<?xml version="1.0" standalone="no"?>
<!DOCTYPE svg PUBLIC "-//W3C//DTD SVG 1.1//EN" "http://www.w3.org/Graphics/SVG/1.1/DTD/svg11.dtd" >
<svg>
<metadata>
Created by FontForge 20090914 at Sat Jan 21 00:18:58 2017
 By www-data
(c) 1996-2012 Typodermic Fonts Inc. See attached license agreement. If agreement is missing visit typodermicfonts.com for more info.
</metadata>
<defs>
<font id="BlueHighway-Bold" horiz-adv-x="569" >
  <font-face 
    font-family="Blue Highway"
    font-weight="700"
    font-stretch="normal"
    units-per-em="1000"
    panose-1="2 11 8 3 2 2 2 0 1 4"
    ascent="760"
    descent="-240"
    x-height="559"
    cap-height="718"
    bbox="-214 -233.002 1043 952.003"
    underline-thickness="20"
    underline-position="-123"
    unicode-range="U+0017-U+FB02"
  />
<missing-glyph horiz-adv-x="700" 
d="M109 -143c-46 0 -69 31 -69 93v726c0 62 23 93 69 93h481c46.667 0 70 -31 70 -93v-726c0 -62 -23.333 -93 -70 -93h-481zM167 31c0 -8 1.33398 -15.832 4.00098 -23.499s6.5 -14.834 11.5 -21.501s11 -12 18 -16s15.167 -6 24.5 -6c17.333 0 32.333 8.16699 45 24.5
s19 35.166 19 56.499c0 16.667 -4.83301 31.334 -14.5 44.001s-22.834 19 -39.501 19s-32.167 -7.16699 -46.5 -21.5s-21.5 -32.833 -21.5 -55.5zM244.001 535.001c26.667 18.667 56.001 28.0029 88.001 28.0029c14.667 0 29 -1.5 43 -4.5s26.5 -7.5 37.5 -13.5
s19.833 -13.833 26.5 -23.5s10 -20.834 10 -33.501c0 -16 -2.66699 -30 -8 -42s-12.5 -22.833 -21.5 -32.5s-19.833 -18.334 -32.5 -26.001s-26 -15.167 -40 -22.5c-32 -16.667 -59.5 -40.334 -82.5 -71.001s-41.167 -70 -54.5 -118l104 -27l14.5 42.5
c4.33301 12.333 9.33301 23.5 15 33.5s13 19 22 27s21.167 16 36.5 24c19.333 10 38.666 21 57.999 33s36.833 26.333 52.5 43s28.334 36.5 38.001 59.5s14.5 50.5 14.5 82.5c0 26.667 -5.66699 51 -17 73s-27.333 40.833 -48 56.5s-45 27.667 -73 36s-59 12.5 -93 12.5
c-44.667 0 -84.334 -12.667 -119.001 -38z" />
    <glyph glyph-name="copyright" unicode="&#x28;C&#x29;" horiz-adv-x="794" 
d="M38 359c0 50.667 9.33301 98.5 28 143.5s44.167 84.167 76.5 117.5s70.333 59.666 114 78.999s90.167 29 139.5 29s95.833 -9.66699 139.5 -29s81.667 -45.666 114 -78.999s58 -72.5 77 -117.5s28.5 -92.833 28.5 -143.5c0 -51.333 -9.5 -99.333 -28.5 -144
s-44.667 -83.667 -77 -117s-70.333 -59.666 -114 -78.999s-90.167 -29 -139.5 -29s-95.833 9.66699 -139.5 29s-81.667 45.666 -114 78.999s-57.833 72.333 -76.5 117s-28 92.667 -28 144zM111 359c0 -39.333 7.5 -76.333 22.5 -111s35.333 -64.834 61 -90.501
s55.834 -46 90.501 -61s71.667 -22.5 111 -22.5c40 0 77.333 7.5 112 22.5s64.834 35.333 90.501 61s46 55.834 61 90.501s22.5 71.667 22.5 111c0 40 -7.5 77.333 -22.5 112s-35.333 64.834 -61 90.501s-55.834 46 -90.501 61s-72 22.5 -112 22.5
c-39.333 0 -76.333 -7.5 -111 -22.5s-64.834 -35.333 -90.501 -61s-46 -55.834 -61 -90.501s-22.5 -72 -22.5 -112zM473 452c-11.333 15.333 -22.999 26.166 -34.999 32.499s-25.667 9.5 -41 9.5c-28.667 0 -51 -11.667 -67 -35s-24 -55 -24 -95c0 -38 8.5 -69.333 25.5 -94
s39.5 -37 67.5 -37c13.333 0 26.833 3.66699 40.5 11s25.167 16.333 34.5 27l61 -42c-34 -51.333 -80 -77 -138 -77c-24.667 0 -47.167 5.33301 -67.5 16s-38 25.5 -53 44.5s-26.667 41.333 -35 67s-12.5 53.834 -12.5 84.501c0 30 4 57.667 12 83s19.167 47.5 33.5 66.5
s31.833 33.833 52.5 44.5s44 16 70 16c63.333 0 110.666 -27 141.999 -81z" />
    <glyph glyph-name="registered" unicode="&#x28;R&#x29;" horiz-adv-x="794" 
d="M38 359c0 50.667 9.33301 98.5 28 143.5s44.167 84.167 76.5 117.5s70.333 59.666 114 78.999s90.167 29 139.5 29s95.833 -9.66699 139.5 -29s81.667 -45.666 114 -78.999s58 -72.5 77 -117.5s28.5 -92.833 28.5 -143.5c0 -51.333 -9.5 -99.333 -28.5 -144
s-44.667 -83.667 -77 -117s-70.333 -59.666 -114 -78.999s-90.167 -29 -139.5 -29s-95.833 9.66699 -139.5 29s-81.667 45.666 -114 78.999s-57.833 72.333 -76.5 117s-28 92.667 -28 144zM111 359c0 -39.333 7.5 -76.333 22.5 -111s35.333 -64.834 61 -90.501
s55.834 -46 90.501 -61s71.667 -22.5 111 -22.5c40 0 77.333 7.5 112 22.5s64.834 35.333 90.501 61s46 55.834 61 90.501s22.5 71.667 22.5 111c0 40 -7.5 77.333 -22.5 112s-35.333 64.834 -61 90.501s-55.834 46 -90.501 61s-72 22.5 -112 22.5
c-39.333 0 -76.333 -7.5 -111 -22.5s-64.834 -35.333 -90.501 -61s-46 -55.834 -61 -90.501s-22.5 -72 -22.5 -112zM344 496v-109h78c36 0 54 17.333 54 52c0 38 -18 57 -54 57h-78zM402 314l-58 0.000976562v-156h-74v411h153c38 0 68.333 -11.167 91 -33.5
s34 -53.5 34 -93.5c0 -58.667 -24 -98.334 -72 -119.001l78 -165h-80z" />
    <glyph glyph-name="uni2117" unicode="&#x28;P&#x29;" horiz-adv-x="794" 
d="M38 359c0 50.667 9.33301 98.5 28 143.5s44.167 84.167 76.5 117.5s70.333 59.666 114 78.999s90.167 29 139.5 29s95.833 -9.66699 139.5 -29s81.667 -45.666 114 -78.999s58 -72.5 77 -117.5s28.5 -92.833 28.5 -143.5c0 -51.333 -9.5 -99.333 -28.5 -144
s-44.667 -83.667 -77 -117s-70.333 -59.666 -114 -78.999s-90.167 -29 -139.5 -29s-95.833 9.66699 -139.5 29s-81.667 45.666 -114 78.999s-57.833 72.333 -76.5 117s-28 92.667 -28 144zM111 359c0 -39.333 7.5 -76.333 22.5 -111s35.333 -64.834 61 -90.501
s55.834 -46 90.501 -61s71.667 -22.5 111 -22.5c40 0 77.333 7.5 112 22.5s64.834 35.333 90.501 61s46 55.834 61 90.501s22.5 71.667 22.5 111c0 40 -7.5 77.333 -22.5 112s-35.333 64.834 -61 90.501s-55.834 46 -90.501 61s-72 22.5 -112 22.5
c-39.333 0 -76.333 -7.5 -111 -22.5s-64.834 -35.333 -90.501 -61s-46 -55.834 -61 -90.501s-22.5 -72 -22.5 -112zM352 496v-109h78c36 0 54 17.333 54 52c0 38 -18 57 -54 57h-78zM352 314v-156h-74v411h153c38 0 68.333 -11.167 91 -33.5s34 -53.5 34 -93.5
c0 -42 -11.833 -73.833 -35.5 -95.5s-55.5 -32.5 -95.5 -32.5h-73z" />
    <glyph glyph-name=".notdef" horiz-adv-x="700" 
d="M109 -143c-46 0 -69 31 -69 93v726c0 62 23 93 69 93h481c46.667 0 70 -31 70 -93v-726c0 -62 -23.333 -93 -70 -93h-481zM167 31c0 -8 1.33398 -15.832 4.00098 -23.499s6.5 -14.834 11.5 -21.501s11 -12 18 -16s15.167 -6 24.5 -6c17.333 0 32.333 8.16699 45 24.5
s19 35.166 19 56.499c0 16.667 -4.83301 31.334 -14.5 44.001s-22.834 19 -39.501 19s-32.167 -7.16699 -46.5 -21.5s-21.5 -32.833 -21.5 -55.5zM244.001 535.001c26.667 18.667 56.001 28.0029 88.001 28.0029c14.667 0 29 -1.5 43 -4.5s26.5 -7.5 37.5 -13.5
s19.833 -13.833 26.5 -23.5s10 -20.834 10 -33.501c0 -16 -2.66699 -30 -8 -42s-12.5 -22.833 -21.5 -32.5s-19.833 -18.334 -32.5 -26.001s-26 -15.167 -40 -22.5c-32 -16.667 -59.5 -40.334 -82.5 -71.001s-41.167 -70 -54.5 -118l104 -27l14.5 42.5
c4.33301 12.333 9.33301 23.5 15 33.5s13 19 22 27s21.167 16 36.5 24c19.333 10 38.666 21 57.999 33s36.833 26.333 52.5 43s28.334 36.5 38.001 59.5s14.5 50.5 14.5 82.5c0 26.667 -5.66699 51 -17 73s-27.333 40.833 -48 56.5s-45 27.667 -73 36s-59 12.5 -93 12.5
c-44.667 0 -84.334 -12.667 -119.001 -38z" />
    <glyph glyph-name="uni0017" horiz-adv-x="300" 
 />
    <glyph glyph-name="space" unicode=" " horiz-adv-x="300" 
 />
    <glyph glyph-name="exclam" unicode="!" horiz-adv-x="251" 
d="M126 0c-20.667 0 -37.334 8 -50.001 24s-19 35.333 -19 58c0 24 6.33301 43.833 19 59.5s29.334 23.5 50.001 23.5c17.333 0 33 -7.83301 47 -23.5s21 -35.5 21 -59.5c0 -22.667 -6.83301 -42 -20.5 -58s-29.5 -24 -47.5 -24zM94 211l-34 206v301h129v-300l-27 -207h-68z
" />
    <glyph glyph-name="quotedbl" unicode="&#x22;" horiz-adv-x="347" 
d="M54 428l-17 326h111l-21 -326h-73zM215 428l-17 326h111l-21 -326h-73z" />
    <glyph glyph-name="numbersign" unicode="#" horiz-adv-x="646" 
d="M253 276h112l37 170h-116zM487 444l-36 -166h115v-104h-133l-38 -174h-84l34 174h-113l-36 -174h-85l34 174h-108v104h129l33 166h-116v105h138l32 169h88l-32 -169h111l37 169h85l-35 -169h103v-105h-123z" />
    <glyph glyph-name="dollar" unicode="$" horiz-adv-x="531" 
d="M170 500c0 -10 3.16699 -18 9.5 -24s15.166 -11 26.499 -15v84c-11.333 -5.33301 -20.166 -11 -26.499 -17s-9.5 -15.333 -9.5 -28zM370 246c0 12.667 -3.66699 25.1699 -11 37.5029s-18.333 19.166 -33 20.499v-114c13.333 5.33301 24 12.166 32 20.499
s12 20.166 12 35.499zM492 257.003c0 -52.667 -14.166 -94.999 -42.499 -126.999s-69.5 -53.667 -123.5 -65v-65h-120v63c-59.333 8 -114.333 24 -165 48l41 120c18.667 -11.333 38.667 -20.833 60 -28.5s42.666 -13.167 63.999 -16.5v144c-54 16.667 -95 39.667 -123 69
s-42 65.333 -42 108c0 36.667 14 67.167 42 91.5s69 42.5 123 54.5v65h120v-59c26.667 -4.66699 52.167 -10.834 76.5 -18.501s45.166 -17.5 62.499 -29.5l-36 -123c-13.333 8.66699 -28.666 16 -45.999 22s-36.333 12 -57 18v-92c54 -13.333 95.167 -35 123.5 -65
s42.5 -68 42.5 -114z" />
    <glyph glyph-name="percent" unicode="%" horiz-adv-x="830" 
d="M199 654c-46 0 -69 -41.333 -69 -124c0 -83.333 23 -125 69 -125c46.667 0 70 41.667 70 125c0 42 -5.33301 73.167 -16 93.5s-28.667 30.5 -54 30.5zM200 324c-48 0 -85 17.667 -111 53s-39 86.333 -39 153c0 64.667 12.333 114.667 37 150s62 53 112 53
s87.333 -17.667 112 -53s37 -85.333 37 -150c0 -66 -12.167 -116.833 -36.5 -152.5s-61.5 -53.5 -111.5 -53.5zM80 0l563 718h106l-565 -718h-104zM632 314c-46 0 -69 -41.333 -69 -124c0 -83.333 23 -125 69 -125c46.667 0 70 41.667 70 125c0 42 -5.33301 73.167 -16 93.5
s-28.667 30.5 -54 30.5zM633 -16c-48 0 -85 17.667 -111 53s-39 86.333 -39 153c0 64.667 12.333 114.667 37 150s62 53 112 53s87.333 -17.667 112 -53s37 -85.333 37 -150c0 -66 -12.167 -116.833 -36.5 -152.5s-61.5 -53.5 -111.5 -53.5z" />
    <glyph glyph-name="ampersand" unicode="&#x26;" horiz-adv-x="691" 
d="M270 124c34 0 62.333 16.332 85 48.999l-134 134l-21 -16c-17.333 -21.333 -26 -41.666 -26 -60.999c0 -13.333 2.83301 -26.333 8.5 -39s13 -24 22 -34s19.333 -18 31 -24s23.167 -9 34.5 -9zM449 64.999c-64.667 -52.667 -127.334 -79 -188.001 -79
c-34.667 0 -66.167 5.16699 -94.5 15.5s-52.666 25 -72.999 44s-36.166 42 -47.499 69s-17 57.167 -17 90.5c0 24 2.16699 44.333 6.5 61s10.833 31.5 19.5 44.5s18.834 24.833 30.501 35.5s25.167 22 40.5 34l11 11c-25.333 28 -44.833 56 -58.5 84s-20.5 58 -20.5 90
s6.66699 58.667 20 80s30.5 38.5 51.5 51.5s43.833 22.167 68.5 27.5s48.667 8 72 8c125.333 0 189.333 -55.333 192 -166l-136 -49c-6 60.667 -27.667 91 -65 91c-40 0 -60 -21.333 -60 -64c0 -24 35.667 -71.667 107 -143c2.66699 -4 14.167 -16.167 34.5 -36.5
l91.5 -88.5c6 16.667 11.667 36.167 17 58.5s8.66602 48.5 9.99902 78.5h138v-48c0 -38 -4.83301 -73 -14.5 -105s-22.834 -63 -39.501 -93l146 -166h-185z" />
    <glyph glyph-name="quotesingle" unicode="'" horiz-adv-x="186" 
d="M54 428l-17 326h111l-21 -326h-73z" />
    <glyph glyph-name="parenleft" unicode="(" horiz-adv-x="363" 
d="M221 -179c-86 148.667 -129 303.001 -129 463.001c0 159.333 43 313.666 129 462.999h124c-100.667 -136.667 -151 -291 -151 -463c0 -154 49.333 -308.333 148 -463h-121z" />
    <glyph glyph-name="parenright" unicode=")" horiz-adv-x="361" 
d="M19 -179c26.667 40.667 49.502 79.667 68.502 117s34.5 74.5 46.5 111.5s20.667 74.667 26 113s8 78.833 8 121.5c0 44 -3.16699 86 -9.5 126s-15.833 78.833 -28.5 116.5s-28.334 74.5 -47.001 110.5s-40.334 72.667 -65.001 110h122
c44.667 -76 77.334 -151.333 98.001 -226s31 -153.667 31 -237s-10.333 -162.333 -31 -237s-53.334 -150 -98.001 -226h-121z" />
    <glyph glyph-name="asterisk" unicode="*" horiz-adv-x="598" 
d="M214 459l-185 100l44 80l182 -107l-5 212h90v-212l180 111l47 -79l-184 -104l185 -100l-45 -80l-181 107l5 -212h-89v211l-181 -111l-46 80z" />
    <glyph glyph-name="plus" unicode="+" 
d="M229 299h-198v111h198v197h111v-197h197v-111h-197v-198h-111v198z" />
    <glyph glyph-name="comma" unicode="," horiz-adv-x="226" 
d="M62 -48c14.667 4.66699 26.168 10.1699 34.501 16.5029s13.5 16.833 15.5 31.5h-2c-20.667 0 -37 8 -49 24s-18 35.333 -18 58c0 24 6.33301 43.833 19 59.5s29.334 23.5 50.001 23.5c17.333 0 33.166 -7.83301 47.499 -23.5s21.5 -35.5 21.5 -59.5
c0 -20.667 -2.33301 -40.834 -7 -60.501s-11.834 -37.334 -21.501 -53.001s-22 -28.334 -37 -38.001s-32.833 -15.167 -53.5 -16.5v38z" />
    <glyph glyph-name="hyphen" unicode="-" horiz-adv-x="251" 
d="M22 450h207v-127h-207v127z" />
    <glyph glyph-name="period" unicode="." horiz-adv-x="237" 
d="M118 0c-21.333 0 -38.001 7.99902 -50.001 23.999s-18 35.333 -18 58c0 24 6 43.833 18 59.5s28.667 23.5 50 23.5c16.667 0 32.167 -7.83301 46.5 -23.5s21.5 -35.5 21.5 -59.5c0 -11.333 -2 -22 -6 -32s-9.16699 -18.667 -15.5 -26s-13.666 -13.166 -21.999 -17.499
s-16.5 -6.5 -24.5 -6.5z" />
    <glyph glyph-name="slash" unicode="/" horiz-adv-x="407" 
d="M12 -96l276 843h106l-276 -843h-106z" />
    <glyph glyph-name="zero" unicode="0" horiz-adv-x="631" 
d="M316 601c-48 0 -83.167 -20 -105.5 -60s-33.5 -100.333 -33.5 -181c0 -82.667 11.667 -143.5 35 -182.5s58 -58.5 104 -58.5s80.833 19.5 104.5 58.5s35.5 99.833 35.5 182.5c0 80.667 -10.5 141 -31.5 181s-57.167 60 -108.5 60zM318 -10
c-85.333 0 -151.332 31.833 -197.999 95.5s-70 155.167 -70 274.5c0 116.667 22.5 207.167 67.5 271.5s111.167 96.5 198.5 96.5c88.667 0 155.167 -32.167 199.5 -96.5s66.5 -154.833 66.5 -271.5c0 -117.333 -21.833 -208.333 -65.5 -273s-109.834 -97 -198.501 -97z" />
    <glyph glyph-name="one" unicode="1" horiz-adv-x="283" 
d="M92 539h-63.001v117c48.667 5.33301 76.334 26 83.001 62h107v-718h-127v539z" />
    <glyph glyph-name="two" unicode="2" horiz-adv-x="537" 
d="M53 68c0 42.667 3.66699 79.502 11 110.502s17.333 57.833 30 80.5s27.334 42.334 44.001 59.001s34.667 32 54 46c26.667 20 50 35.167 70 45.5s36.833 20 50.5 29s24 19.167 31 30.5s10.5 27.666 10.5 48.999c0 50 -27 75 -81 75c-26 0 -49.333 -5.5 -70 -16.5
s-41.667 -33.5 -63 -67.5l-86 114c27.333 37.333 59.166 64.166 95.499 80.499s79.5 24.5 129.5 24.5c28.667 0 55.5 -3.83301 80.5 -11.5s46.667 -19.834 65 -36.501s32.666 -38.167 42.999 -64.5s15.5 -57.833 15.5 -94.5c0 -38.667 -6.66699 -71.167 -20 -97.5
s-30.333 -49.333 -51 -69s-43 -37 -67 -52s-46.667 -30.667 -68 -47s-39.666 -34.5 -54.999 -54.5s-24.333 -44.667 -27 -74h288v-127h-430v68z" />
    <glyph glyph-name="three" unicode="3" horiz-adv-x="522" 
d="M250 -10c-48 0 -89.002 10.6631 -123.002 31.9961s-61.667 51 -83 89l109 78c10.667 -21.333 24 -38.5 40 -51.5s35.333 -19.5 58 -19.5c30 0 53.667 8.83301 71 26.5s26 41.834 26 72.501c0 20.667 -2.33301 37.834 -7 51.501s-11.5 24.5 -20.5 32.5
s-19.833 13.667 -32.5 17s-26.667 5 -42 5h-54v127h54c21.333 0 38.5 7 51.5 21s19.5 34.333 19.5 61c0 20.667 -6.16699 37.334 -18.5 50.001s-29.166 19 -50.499 19c-34.667 0 -56.334 -15.333 -65.001 -46l-109 44c30.667 86 89.334 129 176.001 129
c58.667 0 104.334 -15.667 137.001 -47s49 -78.333 49 -141c0 -34 -7 -62.667 -21 -86s-31.667 -40.666 -53 -51.999c36 -15.333 64 -36.833 84 -64.5s30 -64.5 30 -110.5c0 -80.667 -19 -140.167 -57 -178.5s-94.333 -57.833 -169 -58.5z" />
    <glyph glyph-name="four" unicode="4" horiz-adv-x="554" 
d="M309 306v219l-145 -219h145zM436 178v-178h-127v178h-282v122l277 418h132v-412h76v-128h-76z" />
    <glyph glyph-name="five" unicode="5" horiz-adv-x="556" 
d="M262 -9c-40.667 0 -77.6699 4.83301 -111.003 14.5s-66 25.5 -98 47.5l64 123c28.667 -20 54.334 -34.167 77.001 -42.5s44.334 -12.5 65.001 -12.5c16.667 0 32.667 2.33301 48 7s28.5 12 39.5 22s19.833 22.5 26.5 37.5s10 32.833 10 53.5s-2.83301 38.667 -8.5 54
s-13.167 28 -22.5 38s-20.166 17.333 -32.499 22s-24.833 7 -37.5 7c-28 0 -48.667 -4 -62 -12s-26 -21.333 -38 -40l-120 51l31 357h373v-127h-262l-10 -123c14.667 9.33301 29.667 15.5 45 18.5s31 4.5 47 4.5c70.667 0 125.167 -21 163.5 -63s57.5 -100.333 57.5 -175
c0 -86 -20.833 -151.167 -62.5 -195.5s-102.5 -66.5 -182.5 -66.5z" />
    <glyph glyph-name="six" unicode="6" horiz-adv-x="524" 
d="M268 354c-30 0 -53.499 -9.99902 -70.499 -29.999s-25.5 -49 -25.5 -87c0 -38.667 8.5 -68.334 25.5 -89.001s40.5 -31 70.5 -31s53.5 10.167 70.5 30.5s25.5 49.5 25.5 87.5s-8.83301 67.333 -26.5 88s-40.834 31 -69.501 31zM267.001 -9.99902
c-35.333 0 -66.668 6.83398 -94.001 20.501s-50.5 33 -69.5 58s-33.5 55.333 -43.5 91s-15 75.5 -15 119.5c0 58.667 7.83301 114.334 23.5 167.001s37.334 99 65.001 139s60.5 72.333 98.5 97s79.333 38.334 124 41.001l21 -123c-42.667 -3.33301 -81.5 -18.5 -116.5 -45.5
s-60.5 -66.833 -76.5 -119.5c15.333 13.333 32.166 23.666 50.499 30.999s35.833 11 52.5 11c28.667 0 54.834 -5.66699 78.501 -17s44.167 -27.333 61.5 -48s30.833 -45.334 40.5 -74.001s14.5 -60.334 14.5 -95.001c0 -84.667 -18.333 -148 -55 -190s-90 -63 -160 -63z
" />
    <glyph glyph-name="seven" unicode="7" horiz-adv-x="515" 
d="M138 0c3.33301 58.667 9.49902 115.999 18.499 171.999s21.167 109.333 36.5 160s33.666 98 54.999 142s46 83 74 117h-279v127h440v-137c-30 -26 -57.667 -60.167 -83 -102.5s-47.166 -89.166 -65.499 -140.499s-32.666 -106 -42.999 -164s-15.833 -116 -16.5 -174h-137
z" />
    <glyph glyph-name="eight" unicode="8" horiz-adv-x="530" 
d="M268 613c-20.667 0 -36.332 -7.16895 -46.999 -21.502s-16 -32.166 -16 -53.499s5.66699 -38.666 17 -51.999s26.666 -20 45.999 -20s34.333 6.83301 45 20.5s16 30.834 16 51.501c0 23.333 -5.33301 41.666 -16 54.999s-25.667 20 -45 20zM268.002 333.998
c-26.667 0 -48.834 -9.00098 -66.501 -27.001s-26.5 -45 -26.5 -81c0 -32 8.83301 -58 26.5 -78s39.834 -30 66.501 -30c28 0 50.667 9.5 68 28.5s26 45.5 26 79.5c0 34.667 -7.66699 61.334 -23 80.001s-39 28 -71 28zM268.002 -10.0029
c-68.667 0 -122.83 20.001 -162.497 60.001s-59.5 97.333 -59.5 172c0 44 9 83.333 27 118s40.333 59.667 67 75c-18 17.333 -30.333 37 -37 59s-10 45.333 -10 70c0 28 4 53.333 12 76s19.333 42 34 58s32.667 28.5 54 37.5s45.666 13.5 72.999 13.5
c58.667 0 103.167 -15.333 133.5 -46s45.5 -77.334 45.5 -140.001c0 -26 -3.66699 -50 -11 -72s-22 -42.333 -44 -61c16 -6 30.167 -15.333 42.5 -28s22.666 -27.5 30.999 -44.5s14.666 -35.5 18.999 -55.5s6.5 -40 6.5 -60c0 -74.667 -19.833 -132 -59.5 -172
s-93.5 -60 -161.5 -60z" />
    <glyph glyph-name="nine" unicode="9" horiz-adv-x="527" 
d="M255 365c30 0 53.667 10 71 30s26 49 26 87s-8.16699 67 -24.5 87s-38.833 30 -67.5 30c-30 0 -53.667 -9.66699 -71 -29s-26 -48 -26 -86s8.33301 -67.333 25 -88s39 -31 67 -31zM269 728c34 0 64.165 -6.83691 90.498 -20.5039s48.5 -33 66.5 -58
s31.667 -55.333 41 -91s14 -75.5 14 -119.5c0 -58 -7.83301 -113.5 -23.5 -166.5s-37.5 -100 -65.5 -141s-61.167 -74 -99.5 -99s-80.5 -38.5 -126.5 -40.5l-15 121c40.667 3.33301 78.167 19.333 112.5 48s59.5 68.334 75.5 119.001
c-14.667 -11.333 -31.167 -20.5 -49.5 -27.5s-36.166 -10.5 -53.499 -10.5c-28.667 0 -55 5.66699 -79 17s-44.5 27.333 -61.5 48s-30.333 45.334 -40 74.001s-14.5 60.334 -14.5 95.001c0 84.667 20.333 147.834 61 189.501s96.334 62.5 167.001 62.5z" />
    <glyph glyph-name="colon" unicode=":" horiz-adv-x="253" 
d="M128 377c-20.667 0 -37.667 7.66699 -51 23s-20 35 -20 59s6.66699 43.667 20 59s30.333 23 51 23c18 0 33.667 -7.66699 47 -23s20 -35 20 -59s-6.66699 -43.667 -20 -59s-29 -23 -47 -23zM128 0c-20.667 0 -37.667 8 -51 24s-20 35.333 -20 58
c0 24 6.66699 43.833 20 59.5s30.333 23.5 51 23.5c18 0 33.667 -7.83301 47 -23.5s20 -35.5 20 -59.5c0 -22.667 -6.66699 -42 -20 -58s-29 -24 -47 -24z" />
    <glyph glyph-name="semicolon" unicode=";" horiz-adv-x="256" 
d="M131 377c-21.333 0 -38.333 7.66699 -51 23s-19 35 -19 59s6.33301 43.667 19 59s29.667 23 51 23c18 0 34.167 -7.66699 48.5 -23s21.5 -35 21.5 -59s-7 -43.667 -21 -59s-30.333 -23 -49 -23zM80 -48c30.667 10.667 48.667 27 54 49l-5 -1
c-20.667 0 -37.167 8 -49.5 24s-18.5 35.333 -18.5 58c0 24 6.33301 43.833 19 59.5s29.667 23.5 51 23.5c18 0 34.167 -7.83301 48.5 -23.5s21.5 -35.5 21.5 -59.5c0 -48 -10 -86.833 -30 -116.5s-50.333 -47.167 -91 -52.5v39z" />
    <glyph glyph-name="less" unicode="&#x3c;" 
d="M31 299v111l506 190v-111l-373 -135l373 -134v-111z" />
    <glyph glyph-name="equal" unicode="=" 
d="M31 449v111h506v-111h-506zM31 149v111h506v-111h-506z" />
    <glyph glyph-name="greater" unicode="&#x3e;" 
d="M31 109v111l373 134l-373 135v111l506 -190v-111z" />
    <glyph glyph-name="question" unicode="?" horiz-adv-x="470" 
d="M217 0c-10 0 -19.332 2.16797 -27.999 6.50098s-16.167 10.166 -22.5 17.499s-11.5 16 -15.5 26s-6 20.667 -6 32c0 24 7.16699 43.833 21.5 59.5s31.166 23.5 50.499 23.5c20.667 0 37.334 -7.83301 50.001 -23.5s19 -35.5 19 -59.5c0 -22.667 -6.33301 -42 -19 -58
s-29.334 -24 -50.001 -24zM38.001 639.001c24.667 32.667 53.8301 55.665 87.4971 68.998s72.834 20 117.501 20c58.667 0 105.334 -16 140.001 -48s52 -79.333 52 -142c0 -23.333 -3 -44 -9 -62s-14 -34.667 -24 -50s-21.5 -29.666 -34.5 -42.999s-26.5 -26.333 -40.5 -39
c-11.333 -10.667 -20.166 -21 -26.499 -31s-11 -20.667 -14 -32s-4.83301 -23.666 -5.5 -36.999s-1 -28 -1 -44h-128v21c0 44.667 6.83301 84.834 20.5 120.501s34.5 65.167 62.5 88.5c13.333 11.333 24.333 21.166 33 29.499s15.5 16.333 20.5 24s8.33301 15.667 10 24
s2.5 18.5 2.5 30.5c0 38.667 -20.333 58 -61 58c-25.333 0 -49.333 -4.5 -72 -13.5s-43.667 -25.833 -63 -50.5z" />
    <glyph glyph-name="at" unicode="@" horiz-adv-x="636" 
d="M442 224c4.66699 -12 15.001 -17.998 31.001 -17.998c13.333 0 24.333 9.5 33 28.5s13 50.5 13 94.5c0 82 -15.333 142.5 -46 181.5s-74.334 58.5 -131.001 58.5c-37.333 0 -69.166 -7.66699 -95.499 -23s-47.833 -36 -64.5 -62s-28.667 -56 -36 -90
s-11 -69.667 -11 -107c0 -74.667 15.833 -136.5 47.5 -185.5s79.834 -80.167 144.501 -93.5l-15 -91c-46 7.33301 -86 21.666 -120 42.999s-62.167 47.833 -84.5 79.5s-39.166 67.5 -50.499 107.5s-17 82.667 -17 128c0 56.667 7.5 108.334 22.5 155.001
s35.667 86.667 62 120s57.333 59 93 77s74.167 27 115.5 27c38.667 0 75 -6.5 109 -19.5s63.667 -32.5 89 -58.5s45.166 -58.667 59.499 -98s21.5 -85.333 21.5 -138c0 -30.667 -3 -58.834 -9 -84.501s-15.167 -47.834 -27.5 -66.501s-27.666 -33.167 -45.999 -43.5
s-39.833 -15.5 -64.5 -15.5c-15.333 0 -28.833 2.5 -40.5 7.5s-20.834 13.167 -27.501 24.5c-9.33301 -9.33301 -21.5 -17.166 -36.5 -23.499s-31.167 -9.5 -48.5 -9.5c-36 0 -63 13.5 -81 40.5s-27 65.5 -27 115.5c0 25.333 3.16699 47.166 9.5 65.499
s14.833 33.5 25.5 45.5s22.667 20.833 36 26.5s27 8.5 41 8.5c15.333 0 28.166 -2.33301 38.499 -7s18.166 -10 23.499 -16v20h64v-204zM331.001 361.002c-18 0 -30.499 -8.00098 -37.499 -24.001s-10.5 -33.333 -10.5 -52c0 -23.333 3.66699 -41.666 11 -54.999
s17.666 -20 30.999 -20c17.333 0 30.333 4.33301 39 13v124c-4.66699 6 -9.5 9.83301 -14.5 11.5s-11.167 2.5 -18.5 2.5z" />
    <glyph glyph-name="A" unicode="A" horiz-adv-x="600" 
d="M382 718l212 -718h-139l-38 134h-235l-37 -134h-139l212 718h164zM216 261h166l-84 291z" />
    <glyph glyph-name="B" unicode="B" 
d="M189 591v-158.998h110c18 0 33.333 8.16699 46 24.5s19 35.166 19 56.499s-6.33301 39.666 -19 54.999s-28 23 -46 23h-110zM189 305.002v-178h131c24 0 43.833 8 59.5 24s23.5 38.333 23.5 67c0 28 -7.66699 49.5 -23 64.5s-34.333 22.5 -57 22.5h-134zM296 718.002
c26 0 50.834 -4.33203 74.501 -12.999s44.334 -21.167 62.001 -37.5s31.667 -36.833 42 -61.5s15.5 -53 15.5 -85c0 -28 -4.33301 -52.333 -13 -73s-21 -38.667 -37 -54c13.333 -5.33301 26.166 -12.833 38.499 -22.5s23.166 -21.5 32.499 -35.5s16.833 -30.5 22.5 -49.5
s8.5 -40.5 8.5 -64.5c0 -70.667 -20.667 -125.334 -62 -164.001s-101.333 -58 -180 -58h-240v718h236z" />
    <glyph glyph-name="C" unicode="C" horiz-adv-x="638" 
d="M476 514c-19.333 26 -39.668 44.666 -61.001 55.999s-45.333 17 -72 17c-50 0 -89 -20.167 -117 -60.5s-42 -95.833 -42 -166.5c0 -33.333 4 -63.833 12 -91.5s19.333 -51.667 34 -72s31.834 -36.166 51.501 -47.499s41.5 -17 65.5 -17c22.667 0 46 6.33301 70 19
s44.333 28 61 46l107 -73c-60 -89.333 -140.667 -134 -242 -134c-43.333 0 -82.833 9.33301 -118.5 28s-66.5 44.5 -92.5 77.5s-46.167 72 -60.5 117s-21.5 94.167 -21.5 147.5c0 52 6.83301 100.5 20.5 145.5s33.167 84 58.5 117s56 58.833 92 77.5s76.667 28 122 28
c111.333 0 194.333 -47.333 249 -142z" />
    <glyph glyph-name="D" unicode="D" horiz-adv-x="647" 
d="M189 591v-462h56c35.333 0 67.166 5.83301 95.499 17.5s52.333 27.834 72 48.501s34.834 45.167 45.501 73.5s16 59.166 16 92.499c0 34 -5.33301 65.167 -16 93.5s-25.834 52.5 -45.501 72.5s-43.667 35.667 -72 47s-60.166 17 -95.499 17h-56zM60 0
l-0.00195312 718.003h208c48.667 0 93.667 -9 135 -27s76.833 -42.833 106.5 -74.5s52.834 -69.334 69.501 -113.001s25 -90.834 25 -141.501c0 -56.667 -8.66699 -107.334 -26 -152.001s-41.166 -82.5 -71.499 -113.5s-66.5 -54.833 -108.5 -71.5s-87.667 -25 -137 -25
h-201z" />
    <glyph glyph-name="E" unicode="E" horiz-adv-x="512" 
d="M60 718h396v-127h-267v-159h166v-127h-166v-178h267v-127h-396v718z" />
    <glyph glyph-name="F" unicode="F" horiz-adv-x="481" 
d="M189 591v-159h170v-127h-170v-305h-129v718h396v-127h-267z" />
    <glyph glyph-name="G" unicode="G" horiz-adv-x="665" 
d="M341 -10c-43.333 0 -83.002 9.5 -119.002 28.5s-66.667 45 -92 78s-45 72 -59 117s-21 93.833 -21 146.5c0 56.667 6.33301 107.667 19 153s31.334 84 56.001 116s55 56.5 91 73.5s77.667 25.5 125 25.5c56 0 104 -10.833 144 -32.5s76 -58.834 108 -111.501l-123 -82
c-6.66699 13.333 -15 25.5 -25 36.5s-20.833 20.5 -32.5 28.5s-23.667 14.167 -36 18.5s-24.166 6.5 -35.499 6.5c-105.333 0 -158 -77.333 -158 -232c0 -34.667 3.66699 -66.5 11 -95.5s18 -54 32 -75s30.667 -37.5 50 -49.5s41 -18 65 -18c36 0 65.5 10.5 88.5 31.5
s37.167 51.5 42.5 91.5h-133v128h283v-58c0 -41.333 -7.16699 -81.5 -21.5 -120.5s-34 -73.667 -59 -104s-54.667 -54.666 -89 -72.999s-71.5 -27.5 -111.5 -27.5z" />
    <glyph glyph-name="H" unicode="H" horiz-adv-x="618" 
d="M430 305h-241v-305h-129v718h129v-286h241v286h128v-718h-128v305z" />
    <glyph glyph-name="I" unicode="I" horiz-adv-x="257" 
d="M64 718h129v-718h-129v718z" />
    <glyph glyph-name="J" unicode="J" horiz-adv-x="392" 
d="M338 718l-0.000976562 -453c0 -35.333 -5.5 -69.333 -16.5 -102s-27 -61.5 -48 -86.5s-46.333 -44.833 -76 -59.5s-63.167 -22 -100.5 -22c-25.333 0 -45.666 1.16699 -60.999 3.5s-27.333 5.5 -36 9.5l13 120c16.667 -4.66699 37.667 -7 63 -7c42 0 74.667 11.5 98 34.5
s35 61.833 35 116.5v446h129z" />
    <glyph glyph-name="K" unicode="K" horiz-adv-x="584" 
d="M275 279l-86 -129v-150h-129v718h129v-345l226 345h154l-211 -312l224 -406h-147z" />
    <glyph glyph-name="L" unicode="L" horiz-adv-x="495" 
d="M60 718h129v-591h288v-127h-417v718z" />
    <glyph glyph-name="M" unicode="M" horiz-adv-x="721" 
d="M532 447l-162 -457h-9l-172 457v-447h-129v718h162l144 -396l140 396h155v-718h-129v447z" />
    <glyph glyph-name="N" unicode="N" horiz-adv-x="627" 
d="M188 474v-474h-128v718h148l231 -453v453h128v-718h-138z" />
    <glyph glyph-name="O" unicode="O" horiz-adv-x="682" 
d="M341 601c-48 0 -87.334 -20 -118.001 -60s-46 -100.333 -46 -181c0 -40 4.33301 -75.167 13 -105.5s20.334 -55.5 35.001 -75.5s32 -35 52 -45s41.333 -15 64 -15c23.333 0 45 5 65 15s37.333 25 52 45s26.167 45.167 34.5 75.5s12.5 65.5 12.5 105.5
c0 80.667 -14.167 141 -42.5 181s-68.833 60 -121.5 60zM346.999 -10c-42 0 -81.167 8.33203 -117.5 24.999s-67.833 40.834 -94.5 72.501s-47.5 70.5 -62.5 116.5s-22.5 98 -22.5 156c0 56.667 7.33301 107.834 22 153.501s35 84.334 61 116.001s56.667 56 92 73
s74 25.5 116 25.5s80.833 -8.5 116.5 -25.5s66.5 -41.333 92.5 -73s46.167 -70.334 60.5 -116.001s21.5 -96.834 21.5 -153.501c0 -57.333 -7 -108.833 -21 -154.5s-33.667 -84.5 -59 -116.5s-55.5 -56.5 -90.5 -73.5s-73.167 -25.5 -114.5 -25.5z" />
    <glyph glyph-name="P" unicode="P" horiz-adv-x="566" 
d="M189 591v-190h136c62.667 0 94 30 94 90c0 66.667 -31.333 100 -94 100h-136zM189 273v-273h-129v718h268c32.667 0 62.5 -5.16699 89.5 -15.5s50 -25 69 -44s33.667 -42.333 44 -70s15.5 -58.5 15.5 -92.5c0 -36 -5.5 -67.833 -16.5 -95.5s-26.5 -51 -46.5 -70
s-44.167 -33.333 -72.5 -43s-59.5 -14.5 -93.5 -14.5h-128z" />
    <glyph glyph-name="Q" unicode="Q" horiz-adv-x="682" 
d="M347 -10c-42 0 -81.167 8.33203 -117.5 24.999s-67.833 40.834 -94.5 72.501s-47.5 70.5 -62.5 116.5s-22.5 98 -22.5 156c0 56.667 7.33301 107.834 22 153.501s35 84.334 61 116.001s56.667 56 92 73s74 25.5 116 25.5s80.833 -8.5 116.5 -25.5s66.5 -41.333 92.5 -73
s46.167 -70.334 60.5 -116.001s21.5 -96.834 21.5 -153.501c0 -58 -6.83301 -109.5 -20.5 -154.5s-33.167 -83.5 -58.5 -115.5l53 -69l-97 -77l-50 71c-34 -16.667 -71.333 -25 -112 -25zM341 600.999c-48 0 -87.334 -20.001 -118.001 -60.001s-46 -101 -46 -183
c0 -40.667 4.33301 -76.167 13 -106.5s20.334 -55.5 35.001 -75.5s32 -35 52 -45s41.333 -15 64 -15c7.33301 0 14.166 0.5 20.499 1.5s12.833 2.16699 19.5 3.5l-96 125l96 82l91 -130c10.667 19.333 18.834 42.333 24.501 69s8.5 57 8.5 91
c0 82.667 -14.167 143.834 -42.5 183.501s-68.833 59.5 -121.5 59.5z" />
    <glyph glyph-name="R" unicode="R" horiz-adv-x="586" 
d="M189 591v-190h136c62.667 0 94 30 94 90c0 66.667 -31.333 100 -94 100h-136zM290 273l-101 0.000976562v-273h-129v718h268c32.667 0 62.5 -5 89.5 -15s50 -24.5 69 -43.5s33.667 -42.333 44 -70s15.5 -58.834 15.5 -93.501c0 -101.333 -42 -170.333 -126 -207l136 -289
h-139z" />
    <glyph glyph-name="S" unicode="S" horiz-adv-x="544" 
d="M260 -10c-36.667 0 -74.666 5.83203 -113.999 17.499s-74 28.5 -104 50.5l50 125c24.667 -18.667 51.5 -34 80.5 -46s59.5 -18 91.5 -18c36 0 62.5 7.83301 79.5 23.5s25.5 37.5 25.5 65.5c0 12 -2.66699 22.5 -8 31.5s-12.666 17.5 -21.999 25.5s-20.833 16 -34.5 24
l-44.5 26c-20 11.333 -42.167 22.833 -66.5 34.5s-47 25.834 -68 42.501s-38.667 36.667 -53 60s-21.5 52.666 -21.5 87.999c0 30.667 6.16699 57.667 18.5 81s29 43 50 59s45.167 28 72.5 36s55.666 12 84.999 12c38 0 73.5 -4.16699 106.5 -12.5s62.833 -22.5 89.5 -42.5
l-37 -132c-23.333 19.333 -47.333 33.333 -72 42s-54 13 -88 13c-30 0 -53.833 -4.66699 -71.5 -14s-26.5 -21.666 -26.5 -36.999c0 -21.333 10.667 -39.333 32 -54s51 -32 89 -52c30 -16 57.5 -32.167 82.5 -48.5s46.5 -33.833 64.5 -52.5s32 -39.167 42 -61.5
s15 -47.5 15 -75.5c0 -72.667 -21.833 -126 -65.5 -160s-102.834 -51 -177.501 -51z" />
    <glyph glyph-name="T" unicode="T" horiz-adv-x="546" 
d="M343 591v-591h-138v591h-183v127h502v-127h-181z" />
    <glyph glyph-name="U" unicode="U" horiz-adv-x="610" 
d="M309 -10c-40 0 -75.835 6.33301 -107.502 19s-58.167 30.5 -79.5 53.5s-37.666 51 -48.999 84s-17 69.833 -17 110.5v461h128v-457c0 -52.667 10.667 -89.834 32 -111.501s52.333 -32.5 93 -32.5c38 0 66.833 10.833 86.5 32.5s29.5 58.834 29.5 111.501v457h129v-457
c0 -41.333 -5.33301 -78.833 -16 -112.5s-26.5 -62.167 -47.5 -85.5s-46.667 -41.333 -77 -54s-65.166 -19 -104.499 -19z" />
    <glyph glyph-name="V" unicode="V" horiz-adv-x="600" 
d="M215 0l-209 718h139l154 -553l155 553h140l-215 -718h-164z" />
    <glyph glyph-name="W" unicode="W" horiz-adv-x="893" 
d="M179 0l-171 718h139l117 -536l118 536h129l119 -536l116 536h139l-174 -718h-164l-101 420l-103 -420h-164z" />
    <glyph glyph-name="X" unicode="X" horiz-adv-x="599" 
d="M304 474l142 244h141l-209 -357l209 -361h-154l-138 249l-139 -249h-144l212 362l-212 356h154z" />
    <glyph glyph-name="Y" unicode="Y" horiz-adv-x="572" 
d="M357 275v-275h-141v273l-212 445h145l138 -300l138 300h143z" />
    <glyph glyph-name="Z" unicode="Z" horiz-adv-x="535" 
d="M41 127l307 464h-307v127h460v-129l-310 -462h311v-127h-461v127z" />
    <glyph glyph-name="bracketleft" unicode="[" horiz-adv-x="345" 
d="M102 747h218v-101h-125v-723h125v-102h-218v926z" />
    <glyph glyph-name="backslash" unicode="\" horiz-adv-x="407" 
d="M288 -96l-276 843h106l276 -843h-106z" />
    <glyph glyph-name="bracketright" unicode="]" horiz-adv-x="345" 
d="M243 -179h-218v102h125v723h-125v101h218v-926z" />
    <glyph glyph-name="asciicircum" unicode="^" 
d="M229 718h111l190 -506h-111l-135 373l-134 -373h-111z" />
    <glyph glyph-name="underscore" unicode="_" horiz-adv-x="578" 
d="M0 9h578v-111h-578v111z" />
    <glyph glyph-name="grave" unicode="`" horiz-adv-x="337" 
d="M96 793l201 -150l-44 -66l-213 131z" />
    <glyph glyph-name="a" unicode="a" horiz-adv-x="509" 
d="M321 240c-5.33301 9.33301 -14.333 17.167 -27 23.5s-26.667 9.5 -42 9.5c-62.667 0 -94 -25.333 -94 -76c0 -22 8.16699 -39.5 24.5 -52.5s35.833 -19.5 58.5 -19.5c33.333 0 60 12 80 36v79zM322 31.001c-11.333 -11.333 -26.832 -21.001 -46.499 -29.001
s-41.167 -12 -64.5 -12c-25.333 0 -48.833 4.83301 -70.5 14.5s-40.834 23.334 -57.501 41.001s-29.667 39 -39 64s-14 53.167 -14 84.5c0 65.333 18.333 114.333 55 147s85 49 145 49c16 0 32.167 -1.5 48.5 -4.5s31.166 -9.16699 44.499 -18.5
c-4.66699 26.667 -13.667 45.5 -27 56.5s-32.666 16.5 -57.999 16.5c-20.667 0 -38.334 -3.5 -53.001 -10.5s-29 -16.5 -43 -28.5l-58 99c19.333 21.333 43 38.166 71 50.499s58.333 18.5 91 18.5c30.667 0 58.667 -5 84 -15s46.833 -24.167 64.5 -42.5
s31.334 -40.666 41.001 -66.999s14.5 -55.5 14.5 -87.5v-357h-128v31z" />
    <glyph glyph-name="b" unicode="b" horiz-adv-x="553" 
d="M272 436c-20 0 -37.5 -6 -52.5 -18s-25.167 -27 -30.5 -45v-194c5.33301 -15.333 15.666 -28.833 30.999 -40.5s34 -17.5 56 -17.5c16.667 0 31.5 4 44.5 12s23.833 19 32.5 33s15.334 30.167 20.001 48.5s7 37.833 7 58.5c0 52.667 -8 93 -24 121s-44 42 -84 42zM60 687
l128.998 56.002v-211c12.667 11.333 28.834 20.333 48.501 27s39.834 10 60.501 10c32 0 60.833 -7 86.5 -21s47.167 -33.833 64.5 -59.5s30.666 -56.834 39.999 -93.501s14 -77.334 14 -122.001c0 -39.333 -5 -76.166 -15 -110.499s-24.167 -64.333 -42.5 -90
s-40.666 -45.834 -66.999 -60.501s-55.833 -22 -88.5 -22c-41.333 0 -75 14 -101 42v-32h-129v687z" />
    <glyph glyph-name="c" unicode="c" horiz-adv-x="498" 
d="M284 -10c-36.667 0 -69.502 7.00293 -98.502 21.0029s-53.5 33.833 -73.5 59.5s-35.333 56.5 -46 92.5s-16 76.333 -16 121c0 40.667 5.66699 78.5 17 113.5s27.333 65.167 48 90.5s45.334 45.166 74.001 59.499s60.334 21.5 95.001 21.5c40 0 72.833 -7.33301 98.5 -22
s47.167 -34.334 64.5 -59.001l-98 -84c-7.33301 12 -16 20.833 -26 26.5s-23 8.5 -39 8.5c-32 0 -57.167 -14 -75.5 -42s-27.5 -66 -27.5 -114c0 -52.667 8.16699 -92.834 24.5 -120.501s42.5 -41.5 78.5 -41.5c27.333 0 52 12.333 74 37l104 -74
c-26 -34 -53 -58.167 -81 -72.5s-60.333 -21.5 -97 -21.5z" />
    <glyph glyph-name="d" unicode="d" horiz-adv-x="558" 
d="M370 358c-7.33301 20 -19.001 36.501 -35.001 49.501s-33.667 19.5 -53 19.5c-38 0 -64.833 -13.333 -80.5 -40s-23.5 -65 -23.5 -115c0 -46 8.83301 -82 26.5 -108s42.834 -39 75.501 -39c23.333 0 42.5 7.16699 57.5 21.5s25.833 31.166 32.5 50.499v161z
M369.999 38.001c-13.333 -11.333 -28.832 -22.165 -46.499 -32.498s-41.167 -15.5 -70.5 -15.5c-30.667 0 -58.5 6.83301 -83.5 20.5s-46.333 33 -64 58s-31.334 54.833 -41.001 89.5s-14.5 72.667 -14.5 114c0 42 4.83301 81.167 14.5 117.5s23.667 67.666 42 93.999
s40.5 47.166 66.5 62.499s55.667 23 89 23c25.333 0 46.333 -2.5 63 -7.5s31.667 -12.5 45 -22.5v148l128 56v-742h-128v37z" />
    <glyph glyph-name="e" unicode="e" horiz-adv-x="545" 
d="M282 444c-28 0 -51.334 -10.5 -70.001 -31.5s-29.667 -47.833 -33 -80.5h196c-4 32.667 -14.167 59.5 -30.5 80.5s-37.166 31.5 -62.499 31.5zM178.999 207c2 -14 6.50195 -26.3281 13.502 -36.9951s15.333 -19.834 25 -27.501s20.334 -13.334 32.001 -17.001
s23.5 -5.5 35.5 -5.5c16.667 0 31.667 2.83301 45 8.5s25.666 16.167 36.999 31.5l87 -82c-24.667 -32 -50.667 -54.667 -78 -68s-59 -20 -95 -20c-74.667 0 -131.834 24 -171.501 72s-59.5 117.667 -59.5 209c0 46.667 5.66699 88.5 17 125.5s27.166 68.333 47.499 94
s44.833 45.167 73.5 58.5s60.334 20 95.001 20c32.667 0 62.667 -5.83301 90 -17.5s50.666 -29.334 69.999 -53.001s34.333 -53.334 45 -89.001s16 -77.5 16 -125.5c0 -22.667 -0.333008 -39.834 -1 -51.501s-1.66699 -20.167 -3 -25.5h-321z" />
    <glyph glyph-name="f" unicode="f" horiz-adv-x="298" 
d="M193 432v-431.999h-128v432h-53v127h53v17c0 58 13.833 101.667 41.5 131s66.5 44 116.5 44c14 0 25.833 -0.833008 35.5 -2.5s18.834 -3.83398 27.501 -6.50098v-118c-7.33301 2.66699 -14.833 4.66699 -22.5 6s-16.834 2 -27.501 2c-19.333 0 -32.5 -4.66699 -39.5 -14
s-10.5 -23.333 -10.5 -42v-17h101v-127h-94z" />
    <glyph glyph-name="g" unicode="g" horiz-adv-x="548" 
d="M358 383c-6 20 -15.5 34.168 -28.5 42.501s-27.833 12.5 -44.5 12.5c-38 0 -65.333 -12.833 -82 -38.5s-25 -63.5 -25 -113.5c0 -52.667 7.5 -92.834 22.5 -120.501s39.5 -41.5 73.5 -41.5c41.333 0 69.333 15.333 84 46v213zM235 -98.999
c32 5.33301 58.834 17.833 80.501 37.5s34.834 46.5 39.501 80.5c-9.33301 -7.33301 -22 -13.166 -38 -17.499s-36 -6.5 -60 -6.5c-36.667 0 -68.334 7.66699 -95.001 23s-48.5 36.166 -65.5 62.499s-29.667 57.333 -38 93s-12.5 73.834 -12.5 114.501
c0 38.667 5.5 75 16.5 109s26 63.667 45 89s41.667 45.333 68 60s54.833 22 85.5 22c19.333 0 36.833 -2.83301 52.5 -8.5s30.5 -13.834 44.5 -24.501v24h128v-507c0 -32.667 -5 -65 -15 -97s-24.667 -61.167 -44 -87.5s-43.333 -48.5 -72 -66.5
s-61.334 -29.333 -98.001 -34z" />
    <glyph glyph-name="h" unicode="h" horiz-adv-x="530" 
d="M352 350c0 24.667 -6.50195 45.833 -19.502 63.5s-34.167 26.5 -63.5 26.5c-19.333 0 -36.166 -5.5 -50.499 -16.5s-24.166 -25.5 -29.499 -43.5v-380h-129v687l129 56v-225c28 34 66.333 51 115 51c28 0 53 -5 75 -15s40.5 -24.167 55.5 -42.5s26.333 -40.333 34 -66
s11.5 -54.167 11.5 -85.5v-360h-128v350z" />
    <glyph glyph-name="i" unicode="i" horiz-adv-x="246" 
d="M124 590c-22 0 -39.168 7.66699 -51.501 23s-18.5 34.666 -18.5 57.999c0 24 6.16699 43.833 18.5 59.5s29.5 23.5 51.5 23.5c18.667 0 34.834 -7.83301 48.501 -23.5s20.5 -35.5 20.5 -59.5c0 -23.333 -7 -42.666 -21 -57.999s-30 -23 -48 -23zM58.999 559h129v-559
h-129v559z" />
    <glyph glyph-name="j" unicode="j" horiz-adv-x="265" 
d="M142 590c-18.667 0 -35 7.66699 -49 23s-21 34.666 -21 57.999c0 24 7 43.833 21 59.5s30.333 23.5 49 23.5c22 0 39.167 -7.83301 51.5 -23.5s18.5 -35.5 18.5 -59.5c0 -23.333 -6.33301 -42.666 -19 -57.999s-29.667 -23 -51 -23zM2 -109
c28 7.33301 47.667 20.667 59 40s17 50 17 92v536h127v-559c0 -62 -16 -114 -48 -156s-80.333 -67.667 -145 -77z" />
    <glyph glyph-name="k" unicode="k" horiz-adv-x="501" 
d="M230 239l-41 -50v-189h-129v687l129 56v-359l136 175h158l-165 -217l173 -342h-144z" />
    <glyph glyph-name="l" unicode="l" horiz-adv-x="248" 
d="M60 687l128 56v-743h-128v687z" />
    <glyph glyph-name="m" unicode="m" horiz-adv-x="820" 
d="M352 359c0 20 -6.66992 38.5 -20.0029 55.5s-34.333 25.5 -63 25.5c-19.333 0 -36.166 -5.5 -50.499 -16.5s-24.166 -25.5 -29.499 -43.5v-380h-129v559h129v-41c28 34 66.333 51 115 51c32 0 57.833 -5 77.5 -15s34.834 -22.333 45.501 -37c18 18 40.333 31.167 67 39.5
s55 12.5 85 12.5c30.667 0 58 -4.83301 82 -14.5s44 -23 60 -40s28.167 -37.333 36.5 -61s12.5 -49.5 12.5 -77.5v-376h-128v359c0 20 -6.66699 38.5 -20 55.5s-34.333 25.5 -63 25.5c-19.333 0 -36 -5.83301 -50 -17.5s-23.667 -27.167 -29 -46.5v-376h-128v359z" />
    <glyph glyph-name="n" unicode="n" horiz-adv-x="530" 
d="M352 350c0 24.667 -6.50098 45.833 -19.501 63.5s-34.167 26.5 -63.5 26.5c-19.333 0 -36.166 -5.5 -50.499 -16.5s-24.166 -25.5 -29.499 -43.5v-380h-129v559h129v-41c28 34 66.333 51 115 51c30.667 0 57.167 -5 79.5 -15s40.666 -24.167 54.999 -42.5
s24.833 -40.333 31.5 -66s10 -54.167 10 -85.5v-360h-128v350z" />
    <glyph glyph-name="o" unicode="o" horiz-adv-x="554" 
d="M277 -10c-34 0 -65 7.5 -93 22.5s-51.833 35.5 -71.5 61.5s-35 56.667 -46 92s-16.5 73.333 -16.5 114s5.5 78.5 16.5 113.5s26.333 65.5 46 91.5s43.5 46.5 71.5 61.5s59 22.5 93 22.5s65 -7.5 93 -22.5s51.833 -35.5 71.5 -61.5s35 -56.5 46 -91.5
s16.5 -72.833 16.5 -113.5s-5.5 -78.667 -16.5 -114s-26.333 -66 -46 -92s-43.5 -46.5 -71.5 -61.5s-59 -22.5 -93 -22.5zM277 123c32 0 56.667 14.5 74 43.5s26 66.833 26 113.5s-8.66699 84.334 -26 113.001s-42 43 -74 43s-56.667 -14.333 -74 -43
s-26 -66.334 -26 -113.001s8.66699 -84.5 26 -113.5s42 -43.5 74 -43.5z" />
    <glyph glyph-name="p" unicode="p" horiz-adv-x="558" 
d="M188 193c7.33301 -20 19.001 -36.501 35.001 -49.501s33.667 -19.5 53 -19.5c38 0 64.833 14.833 80.5 44.5s23.5 69.5 23.5 119.5c0 46 -8.83301 82.5 -26.5 109.5s-42.834 40.5 -75.501 40.5c-23.333 0 -42.5 -7.16699 -57.5 -21.5s-25.833 -31.166 -32.5 -50.499v-173
zM188.001 521.999c13.333 11.333 28.832 22.002 46.499 32.002s41.167 15 70.5 15c30.667 0 58.5 -6.83301 83.5 -20.5s46.333 -32.834 64 -57.501s31.334 -54.334 41.001 -89.001s14.5 -72.667 14.5 -114c0 -42 -4.83301 -81.167 -14.5 -117.5
s-23.334 -67.833 -41.001 -94.5s-39 -47.667 -64 -63s-52.833 -23 -83.5 -23c-30 0 -53.667 2.66699 -71 8s-32.666 13 -45.999 23v-198l-128 -56v792h128v-37z" />
    <glyph glyph-name="q" unicode="q" horiz-adv-x="553" 
d="M281 123c20 0 37.5 6 52.5 18s25.167 27 30.5 45v194c-5.33301 15.333 -15.666 28.833 -30.999 40.5s-34 17.5 -56 17.5c-16.667 0 -31.5 -4 -44.5 -12s-23.833 -19 -32.5 -33s-15.334 -30.167 -20.001 -48.5s-7 -37.833 -7 -58.5c0 -52.667 8 -93 24 -121s44 -42 84 -42
zM493 -177l-129.001 -55.999v260c-13.333 -9.33301 -29.666 -17.833 -48.999 -25.5s-39.333 -11.5 -60 -11.5c-32 0 -60.833 7 -86.5 21s-47.167 33.833 -64.5 59.5s-30.666 56.667 -39.999 93s-14 77.166 -14 122.499c0 39.333 5 76.166 15 110.499s24.167 64.333 42.5 90
s40.666 45.834 66.999 60.501s55.833 22 88.5 22c41.333 0 75 -14 101 -42v32h129v-736z" />
    <glyph glyph-name="r" unicode="r" horiz-adv-x="363" 
d="M303 422c-6 5.33301 -12.833 9.66602 -20.5 12.999s-17.5 5 -29.5 5c-19.333 0 -34.166 -5.5 -44.499 -16.5s-16.833 -25.833 -19.5 -44.5v-379h-129v559h129v-29c20.667 26 48.334 39 83.001 39c13.333 0 26.166 -2.16699 38.499 -6.5s23.166 -11.166 32.499 -20.499z
" />
    <glyph glyph-name="s" unicode="s" horiz-adv-x="461" 
d="M79 157c13.333 -9.33301 31.666 -18 54.999 -26s49 -12 77 -12c32 0 55 5.16699 69 15.5s21 23.5 21 39.5c0 12.667 -5 23 -15 31s-26 15 -48 21c-30 8 -57.333 16.333 -82 25s-45.667 19.167 -63 31.5s-30.666 27.5 -39.999 45.5s-14 40.333 -14 67
c0 30 5.33301 55.833 16 77.5s25.167 39.5 43.5 53.5s40.333 24.167 66 30.5s53.5 9.5 83.5 9.5c59.333 0 111.333 -16.333 156 -49l-37 -125c-23.333 15.333 -45 26.333 -65 33s-41.333 10 -64 10c-26.667 0 -44.667 -3.16699 -54 -9.5s-14 -14.5 -14 -24.5
c0 -10.667 5.33301 -19.167 16 -25.5s23.5 -11.833 38.5 -16.5s31 -8.66699 48 -12s32.167 -7.33301 45.5 -12c34 -13.333 60.833 -32.5 80.5 -57.5s29.5 -59.5 29.5 -103.5c0 -34 -5.66699 -62.667 -17 -86s-26.833 -42.166 -46.5 -56.499s-43 -24.833 -70 -31.5
s-55.833 -10 -86.5 -10c-26 0 -54.333 3.66699 -85 11s-60 20.666 -88 39.999z" />
    <glyph glyph-name="t" unicode="t" horiz-adv-x="329" 
d="M291 6c-6.66699 -4 -16.499 -7.66797 -29.499 -11.001s-31.167 -5 -54.5 -5c-44.667 0 -78.834 14.833 -102.501 44.5s-35.5 68.834 -35.5 117.501v280h-57v127h57v104l127 55v-159h96v-127h-96v-263c0 -18.667 4.33301 -31.667 13 -39s20.667 -11 36 -11
c11.333 0 22.833 2.33301 34.5 7s22.167 11 31.5 19z" />
    <glyph glyph-name="u" unicode="u" horiz-adv-x="534" 
d="M182 209c0 -24.667 6.50195 -45.833 19.502 -63.5s34.167 -26.5 63.5 -26.5c19.333 0 36.166 5.5 50.499 16.5s24.166 25.5 29.499 43.5v380h129v-559h-129v41c-28 -34 -66.333 -51 -115 -51c-31.333 0 -58 5 -80 15s-40.167 24.167 -54.5 42.5s-24.833 40.333 -31.5 66
s-10 54.167 -10 85.5v360h128v-350z" />
    <glyph glyph-name="v" unicode="v" horiz-adv-x="476" 
d="M169 0l-159 559h137l90 -357l93 357h136l-161 -559h-136z" />
    <glyph glyph-name="w" unicode="w" horiz-adv-x="747" 
d="M157 0l-147 559h137l80 -343l80 343h133l80 -343l80 343h137l-150 -559h-136l-77 296l-80 -296h-137z" />
    <glyph glyph-name="x" unicode="x" horiz-adv-x="487" 
d="M315 279l160 -279h-150l-84 169l-85 -169h-143l160 278l-163 281h153l85 -169l84 169h145z" />
    <glyph glyph-name="y" unicode="y" horiz-adv-x="475" 
d="M104 -233l69 243l-163 549h137l93 -363l89 363h136l-226 -792h-135z" />
    <glyph glyph-name="z" unicode="z" horiz-adv-x="468" 
d="M37 108l217 324h-205v127h374v-105l-219 -327h223v-127h-390v108z" />
    <glyph glyph-name="braceleft" unicode="{" horiz-adv-x="467" 
d="M43 335c28 0.666992 51.667 3.99902 71 9.99902s35.333 15.167 48 27.5s21.834 28.5 27.501 48.5s8.5 44 8.5 72v76c0 60 13.833 104.667 41.5 134s72.834 44 135.501 44h79v-94h-59c-28 0 -48.833 -6.83301 -62.5 -20.5s-20.5 -36.834 -20.5 -69.501v-91
c0 -39.333 -7.33301 -75.166 -22 -107.499s-41.667 -58.833 -81 -79.5c39.333 -21.333 66.333 -48.166 81 -80.499s22 -67.833 22 -106.5v-91c0 -32.667 6.83301 -55.834 20.5 -69.501s34.5 -20.5 62.5 -20.5h59v-94h-79c-62.667 0 -107.834 14.667 -135.501 44
s-41.5 74 -41.5 134v76c0 28 -2.83301 51.833 -8.5 71.5s-14.834 35.834 -27.501 48.501s-28.667 22 -48 28s-43 9.33301 -71 10v100z" />
    <glyph glyph-name="bar" unicode="|" horiz-adv-x="287" 
d="M97 747h93v-926h-93v926z" />
    <glyph glyph-name="braceright" unicode="}" horiz-adv-x="467" 
d="M424 235c-28 -0.666992 -51.667 -3.99902 -71 -9.99902s-35.333 -15.333 -48 -28s-21.834 -28.834 -27.501 -48.501s-8.5 -43.5 -8.5 -71.5v-76c0 -60 -13.833 -104.667 -41.5 -134s-72.834 -44 -135.501 -44h-79v94h59c28 0 48.833 6.83301 62.5 20.5
s20.5 36.834 20.5 69.501v91c0 38.667 7.33301 74.167 22 106.5s41.667 59.166 81 80.499c-39.333 20.667 -66.333 47.167 -81 79.5s-22 68.166 -22 107.499v91c0 32.667 -6.83301 55.834 -20.5 69.501s-34.5 20.5 -62.5 20.5h-59v94h79
c62.667 0 107.834 -14.667 135.501 -44s41.5 -74 41.5 -134v-76c0 -28 2.83301 -52 8.5 -72s14.834 -36.167 27.501 -48.5s28.667 -21.5 48 -27.5s43 -9.33301 71 -10v-100z" />
    <glyph glyph-name="asciitilde" unicode="~" 
d="M178 441c26.667 0 49.498 -4.33398 68.498 -13.001s36 -18.167 51 -28.5l42 -28.5c13 -8.66699 26.833 -13 41.5 -13c16.667 0 31.334 6.16699 44.001 18.5s24.334 28.5 35.001 48.5l78 -57c-18.667 -34 -42 -60 -70 -78s-57 -27 -87 -27c-24 0 -45.167 4.33301 -63.5 13
s-35.166 18.334 -50.499 29.001s-30.333 20.334 -45 29.001s-30 13 -46 13c-14 0 -27.333 -5.83301 -40 -17.5s-24.334 -26.834 -35.001 -45.501l-78 58c19.333 34 42.5 59 69.5 75s55.5 24 85.5 24z" />
    <glyph glyph-name="nonbreakingspace" unicode="&#xa0;" horiz-adv-x="300" 
 />
    <glyph glyph-name="exclamdown" unicode="&#xa1;" horiz-adv-x="251" 
d="M125 718c20.667 0 37.334 -8 50.001 -24s19 -35.333 19 -58c0 -24 -6.33301 -43.833 -19 -59.5s-29.334 -23.5 -50.001 -23.5c-17.333 0 -33 7.83301 -47 23.5s-21 35.5 -21 59.5c0 22.667 6.83301 42 20.5 58s29.5 24 47.5 24zM157 507l34 -206v-301h-129v300l27 207h68
z" />
    <glyph glyph-name="cent" unicode="&#xa2;" horiz-adv-x="533" 
d="M378 451c-8 20.667 -21.999 35.002 -41.999 43.002v-279c9.33301 4 17.333 9.5 24 16.5s13 15.5 19 25.5l103 -67c-40 -58.667 -88.667 -94.667 -146 -108v-82h-120v85c-25.333 8 -48.5 20.333 -69.5 37s-38.833 36.667 -53.5 60s-26 49.666 -34 78.999
s-12 60.666 -12 93.999c0 34 3.83301 65.667 11.5 95s18.667 55.5 33 78.5s32 42.667 53 59s44.833 28.5 71.5 36.5v94h120v-90c34 -6.66699 64.167 -19.167 90.5 -37.5s46.166 -44.5 59.499 -78.5zM168.001 355.002c0 -25.333 4.33203 -48.332 12.999 -68.999
s20.334 -37.667 35.001 -51v245c-32 -24.667 -48 -66.334 -48 -125.001z" />
    <glyph glyph-name="sterling" unicode="&#xa3;" horiz-adv-x="577" 
d="M96 449h43.001v67c0 26.667 3.33301 52.667 10 78s18 48 34 68s37 36 63 48s58 18 96 18c40 0 74.167 -8 102.5 -24s48.5 -40 60.5 -72l-94 -76c-10 30.667 -32.667 46 -68 46c-29.333 0 -49 -7.33301 -59 -22s-15.333 -34.667 -16 -60l-1 -71h130v-127h-130v-118
c0 -21.333 -2.66699 -38.333 -8 -51s-10.333 -21.334 -15 -26.001h276v-127h-468v127h18c21.333 0 38.166 6.83301 50.499 20.5s18.5 33.834 18.5 60.501v114h-43v127z" />
    <glyph glyph-name="yen" unicode="&#xa5;" horiz-adv-x="633" 
d="M83 359h157l-205 359h159l124 -240l124 240h157l-207 -359h148v-105h-152v-82h152v-105h-152v-67h-141v67h-164v105h164v82h-164v105z" />
    <glyph glyph-name="brokenbar" unicode="&#xa6;" horiz-adv-x="287" 
d="M190 402h-93v345h93v-345zM190 -179h-93v345h93v-345z" />
    <glyph glyph-name="section" unicode="&#xa7;" horiz-adv-x="573" 
d="M299 728c52.667 0 98.833 -8.1709 138.5 -24.5039s69.167 -41.833 88.5 -76.5l-90 -73c-7.33301 9.33301 -16.666 17.5 -27.999 24.5s-23.333 13 -36 18s-25.334 8.83301 -38.001 11.5s-24 4 -34 4c-10.667 0 -21.5 -0.833008 -32.5 -2.5s-21 -4.33398 -30 -8.00098
s-16.333 -8.16699 -22 -13.5s-8.5 -11.333 -8.5 -18c0 -12 5.83301 -21.667 17.5 -29s25.5 -14.333 41.5 -21c27.333 -10.667 56.166 -21 86.499 -31s58.333 -22.5 84 -37.5s46.834 -33.833 63.501 -56.5s25 -52 25 -88c0 -28 -6.5 -52.167 -19.5 -72.5
s-29.167 -36.166 -48.5 -47.499c23.333 -12.667 40.5 -29.5 51.5 -50.5s16.5 -45.5 16.5 -73.5c0 -30 -7 -55.833 -21 -77.5s-32.167 -39.5 -54.5 -53.5s-47.333 -24.167 -75 -30.5s-55.5 -9.5 -83.5 -9.5c-44 0 -87.333 6.83301 -130 20.5s-84 37.5 -124 71.5l80 93
c10.667 -12 23 -22.5 37 -31.5s28.667 -16.333 44 -22s30.5 -10 45.5 -13s29.167 -4.5 42.5 -4.5c12.667 0 26 1 40 3s26.667 5.33301 38 10s20.833 10.834 28.5 18.501s11.5 17.5 11.5 29.5c0 18.667 -7.83301 33.834 -23.5 45.501s-35 22 -58 31s-48.167 18 -75.5 27
s-52.5 20.333 -75.5 34s-42.333 30.834 -58 51.501s-23.5 47.334 -23.5 80.001c0 25.333 7.5 48.5 22.5 69.5s34.167 35.833 57.5 44.5c-26.667 17.333 -46.667 36 -60 56s-20 45 -20 75c0 22 5.5 42 16.5 60s26 33.5 45 46.5s41.167 23 66.5 30s52.333 10.5 81 10.5z
M299.999 386.996c-10.667 -0.666992 -21.5 -2.33301 -32.5 -5s-21 -6.33398 -30 -11.001s-16.333 -10 -22 -16s-8.5 -12.333 -8.5 -19c0 -13.333 6 -24.333 18 -33s26.5 -16.167 43.5 -22.5s34.667 -12 53 -17s34.166 -10.5 47.499 -16.5c11.333 6 20 13 26 21
s9 18.667 9 32c0 12.667 -3 23.667 -9 33s-13.833 17.333 -23.5 24s-20.667 12.334 -33 17.001s-25.166 9 -38.499 13z" />
    <glyph glyph-name="dieresis" unicode="&#xa8;" horiz-adv-x="410" 
d="M302 626c-21.333 0 -38.001 7.99902 -50.001 23.999s-18 35.333 -18 58c0 24 6 43.833 18 59.5s28.667 23.5 50 23.5c16.667 0 32.167 -7.83301 46.5 -23.5s21.5 -35.5 21.5 -59.5c0 -11.333 -2 -22 -6 -32s-9.16699 -18.667 -15.5 -26s-13.666 -13.166 -21.999 -17.499
s-16.5 -6.5 -24.5 -6.5zM107.999 625.999c-21.333 0 -38.001 7.99902 -50.001 23.999s-18 35.333 -18 58c0 24 6 43.833 18 59.5s28.667 23.5 50 23.5c16.667 0 32.167 -7.83301 46.5 -23.5s21.5 -35.5 21.5 -59.5c0 -11.333 -2 -22 -6 -32s-9.16699 -18.667 -15.5 -26
s-13.666 -13.166 -21.999 -17.499s-16.5 -6.5 -24.5 -6.5z" />
    <glyph glyph-name="ordfeminine" unicode="&#xaa;" horiz-adv-x="310" 
d="M145 631c-24.667 0 -45.334 -7 -62.001 -21l-32 64c9.33301 10.667 22.333 19 39 25s36.334 9 59.001 9c40 0 69.333 -10.333 88 -31s28 -50.334 28 -89.001v-198h-77v21c-5.33301 -8 -14 -14.5 -26 -19.5s-24.667 -7.5 -38 -7.5c-26 0 -48.833 9.33301 -68.5 28
s-29.5 47 -29.5 85c0 36 10.5 61.667 31.5 77s48.833 23 83.5 23c7.33301 0 14.5 -0.666992 21.5 -2s14.167 -3.66602 21.5 -6.99902c0 28.667 -13 43 -39 43zM184 525c-9.33301 5.33301 -19.999 8 -31.999 8c-30 0 -45 -11.667 -45 -35c0 -10 3.83301 -18 11.5 -24
s17.167 -9 28.5 -9c17.333 0 29.666 3.66699 36.999 11v49z" />
    <glyph glyph-name="guillemotleft" unicode="&#xab;" horiz-adv-x="614" 
d="M140 339l124 -57v-90l-211 105v84l211 109v-93zM447 339l124 -57v-90l-211 105v84l211 109v-93z" />
    <glyph glyph-name="logicalnot" unicode="&#xac;" 
d="M426 299h-395v111h506v-410h-111v299z" />
    <glyph glyph-name="macron" unicode="&#xaf;" horiz-adv-x="363" 
d="M40 768h283v-77h-283v77z" />
    <glyph glyph-name="degree" unicode="&#xb0;" horiz-adv-x="418" 
d="M209 728c20.667 0 40.167 -4 58.5 -12s34.5 -19 48.5 -33s25 -30.333 33 -49s12 -38.334 12 -59.001c0 -21.333 -4 -41.166 -12 -59.499s-19 -34.333 -33 -48s-30.167 -24.5 -48.5 -32.5s-37.833 -12 -58.5 -12c-21.333 0 -41.166 4 -59.499 12s-34.333 18.833 -48 32.5
s-24.5 29.667 -32.5 48s-12 38.166 -12 59.499c0 20.667 4 40.334 12 59.001s18.833 35 32.5 49s29.667 25 48 33s38.166 12 59.499 12zM209 652c-21.333 0 -39.5 -7.66797 -54.5 -23.001s-22.5 -33.666 -22.5 -54.999s7.5 -39.5 22.5 -54.5s33.167 -22.5 54.5 -22.5
s39.5 7.5 54.5 22.5s22.5 33.167 22.5 54.5c0 22 -7.5 40.5 -22.5 55.5s-33.167 22.5 -54.5 22.5z" />
    <glyph glyph-name="plusminus" unicode="&#xb1;" 
d="M229 299h-198v111h198v197h111v-197h197v-111h-197v-198h-111v198zM31 -60v111h506v-111h-506z" />
    <glyph glyph-name="twosuperior" unicode="&#xb2;" horiz-adv-x="325" 
d="M39 372c0 27.333 2.49902 50.5039 7.49902 69.5039s11.5 35 19.5 48s17.167 23.667 27.5 32s21.166 15.5 32.499 21.5l35.5 19c9.66699 5.33301 17.5 10.5 23.5 15.5s10.333 10.5 13 16.5s4 13 4 21c0 22.667 -13 34 -39 34c-13.333 0 -25.333 -3.33301 -36 -10
s-22.334 -19.667 -35.001 -39l-54 73c15.333 21.333 33.5 36.666 54.5 45.999s45.5 14 73.5 14c16.667 0 32 -2.16699 46 -6.5s26.333 -11.166 37 -20.499s19 -21.333 25 -36s9 -32.334 9 -53.001c0 -18 -2.16699 -33.5 -6.5 -46.5s-10.166 -24.333 -17.499 -34
s-16.166 -18.334 -26.499 -26.001s-21.833 -14.834 -34.5 -21.501c-13.333 -7.33301 -24.166 -13.833 -32.499 -19.5s-15.166 -11.5 -20.499 -17.5s-9.33301 -12.333 -12 -19s-4.33398 -14.334 -5.00098 -23.001h155v-80h-244v42z" />
    <glyph glyph-name="threesuperior" unicode="&#xb3;" horiz-adv-x="317" 
d="M151 324c-28 0 -51.5 6.49902 -70.5 19.499s-35.167 31.167 -48.5 54.5l69 48c6 -12.667 13.167 -22.667 21.5 -30s18.166 -11 29.499 -11c13.333 0 24.333 4.33301 33 13s13 20 13 34c0 20.667 -4.5 34.5 -13.5 41.5s-20.833 10.5 -35.5 10.5h-35v81h35
c9.33301 0 17 3 23 9s9 15.667 9 29c0 20.667 -10.333 31 -31 31c-16 0 -26.333 -9 -31 -27l-70 27c18.667 52.667 52.667 79 102 79c34 0 60.167 -8.66699 78.5 -26s27.5 -44 27.5 -80c0 -16.667 -3.16699 -31.334 -9.5 -44.001s-14.166 -22.667 -23.499 -30
c17.333 -9.33301 30.833 -21.666 40.5 -36.999s14.5 -34.666 14.5 -57.999c0 -46 -10.833 -79.667 -32.5 -101s-53.5 -32.333 -95.5 -33z" />
    <glyph glyph-name="acute" unicode="&#xb4;" horiz-adv-x="337" 
d="M297 708l-214 -131l-43 66l201 150z" />
    <glyph glyph-name="paragraph" unicode="&#xb6;" horiz-adv-x="763" 
d="M459 591v-768h-129v450h-68c-34 0 -65.167 4.83301 -93.5 14.5s-52.5 24 -72.5 43s-35.5 42.333 -46.5 70s-16.5 59.5 -16.5 95.5c0 34 5.16699 64.833 15.5 92.5s25 51 44 70s41.833 33.667 68.5 44s56.667 15.5 90 15.5h443v-895h-129v768h-106zM254 591
c-62.667 0 -94 -33.333 -94 -100c0 -60 31.333 -90 94 -90h76v190h-76z" />
    <glyph glyph-name="periodcentered" unicode="&#xb7;" horiz-adv-x="237" 
d="M118 271c-21.333 0 -38.001 7.99902 -50.001 23.999s-18 35.333 -18 58c0 24 6 43.833 18 59.5s28.667 23.5 50 23.5c16.667 0 32.167 -7.83301 46.5 -23.5s21.5 -35.5 21.5 -59.5c0 -11.333 -2 -22 -6 -32s-9.16699 -18.667 -15.5 -26s-13.666 -13.166 -21.999 -17.499
s-16.5 -6.5 -24.5 -6.5z" />
    <glyph glyph-name="cedilla" unicode="&#xb8;" horiz-adv-x="219" 
d="M59 -202c14.667 4 26.001 8.66895 34.001 14.002s13.333 13.666 16 24.999h-2c-21.333 0 -37.833 6.33301 -49.5 19s-17.5 28.667 -17.5 48s6.16699 35.5 18.5 48.5s29.166 19.5 50.499 19.5c17.333 0 33.333 -6.5 48 -19.5s22 -29.167 22 -48.5
c0 -17.333 -2.33301 -33.833 -7 -49.5s-12 -29.834 -22 -42.501s-22.5 -23 -37.5 -31s-32.833 -12.667 -53.5 -14v31z" />
    <glyph glyph-name="onesuperior" unicode="&#xb9;" horiz-adv-x="186" 
d="M60 620h-34v74c26.667 2.66699 42 14 46 34h67v-398h-79v290z" />
    <glyph glyph-name="ordmasculine" unicode="&#xba;" horiz-adv-x="335" 
d="M165 384c-19.333 0 -36.666 4.33301 -51.999 13s-28.666 20.334 -39.999 35.001s-20 31.834 -26 51.501s-9 40.834 -9 63.501s3 43.667 9 63s14.667 36.333 26 51s24.666 26.167 39.999 34.5s32.666 12.5 51.999 12.5s37 -4.16699 53 -12.5s29.667 -19.833 41 -34.5
s20 -31.667 26 -51s9 -40.333 9 -63s-3 -43.834 -9 -63.501s-14.667 -36.834 -26 -51.501s-25 -26.334 -41 -35.001s-33.667 -13 -53 -13zM165 468c16 0 28 7.33301 36 22s12 33.667 12 57s-4 42.166 -12 56.499s-20 21.5 -36 21.5
c-15.333 0 -27.166 -7.16699 -35.499 -21.5s-12.5 -33.166 -12.5 -56.499s4.16699 -42.333 12.5 -57s20.166 -22 35.499 -22z" />
    <glyph glyph-name="guillemotright" unicode="&#xbb;" horiz-adv-x="614" 
d="M176 342l-123 57v91l211 -106v-83l-211 -109v92zM483 342l-123 57v91l211 -106v-83l-211 -109v92z" />
    <glyph glyph-name="onequarter" unicode="&#xbc;" horiz-adv-x="802" 
d="M138 620h-34v74c26.667 2.66699 42 14 46 34h67v-398h-79v290zM50 0l563 718h106l-565 -718h-104zM631 166v92l-62 -92h62zM711 86v-97h-80v97h-152v72l152 230h80v-222h42v-80h-42z" />
    <glyph glyph-name="onehalf" unicode="&#xbd;" horiz-adv-x="816" 
d="M138 620h-34v74c26.667 2.66699 42 14 46 34h67v-398h-79v290zM50 0l563 718h106l-565 -718h-104zM523 32c0 27.333 2.49902 50.5039 7.49902 69.5039s11.5 35 19.5 48s17.167 23.667 27.5 32s21.166 15.5 32.499 21.5l35.5 19c9.66699 5.33301 17.5 10.5 23.5 15.5
s10.333 10.5 13 16.5s4 13 4 21c0 22.667 -13 34 -39 34c-13.333 0 -25.333 -3.33301 -36 -10s-22.334 -19.667 -35.001 -39l-54 73c15.333 21.333 33.5 36.666 54.5 45.999s45.5 14 73.5 14c16.667 0 32 -2.16699 46 -6.5s26.333 -11.166 37 -20.499s19 -21.333 25 -36
s9 -32.334 9 -53.001c0 -18 -2.16699 -33.5 -6.5 -46.5s-10.166 -24.333 -17.499 -34s-16.166 -18.334 -26.499 -26.001s-21.833 -14.834 -34.5 -21.501c-13.333 -7.33301 -24.166 -13.833 -32.499 -19.5s-15.166 -11.5 -20.499 -17.5s-9.33301 -12.333 -12 -19
s-4.33398 -14.334 -5.00098 -23.001h155v-80h-244v42z" />
    <glyph glyph-name="threequarters" unicode="&#xbe;" horiz-adv-x="853" 
d="M169 324c-28 0 -51.5 6.49902 -70.5 19.499s-35.167 31.167 -48.5 54.5l69 48c6 -12.667 13.167 -22.667 21.5 -30s18.166 -11 29.499 -11c13.333 0 24.333 4.33301 33 13s13 20 13 34c0 20.667 -4.5 34.5 -13.5 41.5s-20.833 10.5 -35.5 10.5h-35v81h35
c9.33301 0 17 3 23 9s9 15.667 9 29c0 20.667 -10.333 31 -31 31c-16 0 -26.333 -9 -31 -27l-70 27c18.667 52.667 52.667 79 102 79c34 0 60.167 -8.66699 78.5 -26s27.5 -44 27.5 -80c0 -16.667 -3.16699 -31.334 -9.5 -44.001s-14.166 -22.667 -23.499 -30
c17.333 -9.33301 30.833 -21.666 40.5 -36.999s14.5 -34.666 14.5 -57.999c0 -46 -10.833 -79.667 -32.5 -101s-53.5 -32.333 -95.5 -33zM101 -0.000976562l563 718h106l-565 -718h-104zM682 165.999v92l-62 -92h62zM762 85.999v-97h-80v97h-152v72l152 230h80v-222h42v-80
h-42z" />
    <glyph glyph-name="questiondown" unicode="&#xbf;" horiz-adv-x="470" 
d="M256 718c10 0 19.332 -2.16797 27.999 -6.50098s16.167 -10.166 22.5 -17.499s11.5 -16 15.5 -26s6 -20.667 6 -32c0 -24 -7.16699 -43.833 -21.5 -59.5s-31.166 -23.5 -50.499 -23.5c-20.667 0 -37.334 7.83301 -50.001 23.5s-19 35.5 -19 59.5
c0 22.667 6.33301 42 19 58s29.334 24 50.001 24zM434.999 78.999c-24.667 -32.667 -53.8301 -55.667 -87.4971 -69s-72.834 -20 -117.501 -20c-58.667 0 -105.334 16 -140.001 48s-52 79.333 -52 142c0 22.667 3 43.167 9 61.5s14 35 24 50s21.5 29.167 34.5 42.5l40.5 40
c11.333 10.667 20.166 21.167 26.499 31.5s11 21 14 32s4.83301 23 5.5 36s1 27.833 1 44.5h128v-21c0 -44.667 -6.83301 -84.834 -20.5 -120.501s-34.5 -65.167 -62.5 -88.5c-13.333 -11.333 -24.333 -21.166 -33 -29.499s-15.5 -16.333 -20.5 -24
s-8.33301 -15.667 -10 -24s-2.5 -18.5 -2.5 -30.5c0 -38.667 20.333 -58 61 -58c25.333 0 49.333 4.5 72 13.5s43.667 25.833 63 50.5z" />
    <glyph glyph-name="Agrave" unicode="&#xc0;" horiz-adv-x="600" 
d="M382 718l212 -718h-139l-38 134h-235l-37 -134h-139l212 718h164zM216 261h166l-84 291zM177 952l201 -150l-44 -66l-213 131z" />
    <glyph glyph-name="Aacute" unicode="&#xc1;" horiz-adv-x="600" 
d="M382 718l212 -718h-139l-38 134h-235l-37 -134h-139l212 718h164zM216 261h166l-84 291zM478 867l-214 -131l-43 66l201 150z" />
    <glyph glyph-name="Acircumflex" unicode="&#xc2;" horiz-adv-x="600" 
d="M382 718l212 -718h-139l-38 134h-235l-37 -134h-139l212 718h164zM216 261h166l-84 291zM299 836l-112 -94l-45 49l157 161l158 -161l-45 -49z" />
    <glyph glyph-name="Atilde" unicode="&#xc3;" horiz-adv-x="600" 
d="M382 718l212 -718h-139l-38 134h-235l-37 -134h-139l212 718h164zM216 261h166l-84 291zM381 782c-20 0 -37.666 4.66602 -52.999 13.999s-29.5 19.5 -42.5 30.5l-37 30.5c-11.667 9.33301 -23.5 14 -35.5 14c-15.333 0 -29.166 -8.5 -41.499 -25.5
s-23.5 -36.833 -33.5 -59.5l-58 52c5.33301 16.667 12.5 32 21.5 46s19.333 26 31 36s24 17.833 37 23.5s25.833 8.5 38.5 8.5c22.667 0 42.167 -4.66699 58.5 -14s31.166 -19.666 44.499 -30.999l37.5 -31c11.667 -9.33301 23.5 -14 35.5 -14c8 0 15.5 2.5 22.5 7.5
s13.667 11.667 20 20s12.333 17.833 18 28.5s11.167 22 16.5 34l58 -52c-6 -19.333 -14 -36.333 -24 -51s-21.333 -27 -34 -37s-25.834 -17.5 -39.501 -22.5s-27.167 -7.5 -40.5 -7.5z" />
    <glyph glyph-name="Adieresis" unicode="&#xc4;" horiz-adv-x="600" 
d="M382 718l212 -718h-139l-38 134h-235l-37 -134h-139l212 718h164zM216 261h166l-84 291zM397 785c-21.333 0 -38.001 7.99902 -50.001 23.999s-18 35.333 -18 58c0 24 6 43.833 18 59.5s28.667 23.5 50 23.5c16.667 0 32.167 -7.83301 46.5 -23.5s21.5 -35.5 21.5 -59.5
c0 -11.333 -2 -22 -6 -32s-9.16699 -18.667 -15.5 -26s-13.666 -13.166 -21.999 -17.499s-16.5 -6.5 -24.5 -6.5zM202.999 784.999c-21.333 0 -38.001 7.99902 -50.001 23.999s-18 35.333 -18 58c0 24 6 43.833 18 59.5s28.667 23.5 50 23.5
c16.667 0 32.167 -7.83301 46.5 -23.5s21.5 -35.5 21.5 -59.5c0 -11.333 -2 -22 -6 -32s-9.16699 -18.667 -15.5 -26s-13.666 -13.166 -21.999 -17.499s-16.5 -6.5 -24.5 -6.5z" />
    <glyph glyph-name="Aring" unicode="&#xc5;" horiz-adv-x="600" 
d="M382 718l212 -718h-139l-38 134h-235l-37 -134h-139l212 718h164zM216 261h166l-84 291zM300 952c14 0 27.5 -2.83301 40.5 -8.5s24.5 -13.334 34.5 -23.001s18 -21 24 -34s9 -26.833 9 -41.5c0 -15.333 -3 -29.5 -9 -42.5s-14 -24.5 -24 -34.5
s-21.5 -17.833 -34.5 -23.5s-26.5 -8.5 -40.5 -8.5c-15.333 0 -29.666 2.83301 -42.999 8.5s-24.833 13.334 -34.5 23.001s-17.334 21.167 -23.001 34.5s-8.5 27.666 -8.5 42.999c0 14.667 2.83301 28.5 8.5 41.5s13.334 24.333 23.001 34s21.167 17.334 34.5 23.001
s27.666 8.5 42.999 8.5zM300 886c-12 0 -22.167 -4.16699 -30.5 -12.5s-12.5 -17.833 -12.5 -28.5c0 -12.667 4.16699 -23.167 12.5 -31.5s18.5 -12.5 30.5 -12.5c11.333 0 21 4.16699 29 12.5s12 18.833 12 31.5c0 10.667 -4 20.167 -12 28.5s-17.667 12.5 -29 12.5z" />
    <glyph glyph-name="AE" unicode="&#xc6;" horiz-adv-x="842" 
d="M423 134h-241l-37 -134h-139l212 718h568v-127h-300l24 -159h175v-127h-156l26 -178h231v-127h-343zM217 261h187l-49 330h-46z" />
    <glyph glyph-name="Ccedilla" unicode="&#xc7;" horiz-adv-x="638" 
d="M476 514c-19.333 26 -39.668 44.666 -61.001 55.999s-45.333 17 -72 17c-50 0 -89 -20.167 -117 -60.5s-42 -95.833 -42 -166.5c0 -33.333 4 -63.833 12 -91.5s19.333 -51.667 34 -72s31.834 -36.166 51.501 -47.499s41.5 -17 65.5 -17c22.667 0 46 6.33301 70 19
s44.333 28 61 46l107 -73c-60 -89.333 -140.667 -134 -242 -134c-43.333 0 -82.833 9.33301 -118.5 28s-66.5 44.5 -92.5 77.5s-46.167 72 -60.5 117s-21.5 94.167 -21.5 147.5c0 52 6.83301 100.5 20.5 145.5s33.167 84 58.5 117s56 58.833 92 77.5s76.667 28 122 28
c111.333 0 194.333 -47.333 249 -142zM284.998 -202.001c14.667 4 26.001 8.66895 34.001 14.002s13.333 13.666 16 24.999h-2c-21.333 0 -37.833 6.33301 -49.5 19s-17.5 28.667 -17.5 48s6.16699 35.5 18.5 48.5s29.166 19.5 50.499 19.5c17.333 0 33.333 -6.5 48 -19.5
s22 -29.167 22 -48.5c0 -17.333 -2.33301 -33.833 -7 -49.5s-12 -29.834 -22 -42.501s-22.5 -23 -37.5 -31s-32.833 -12.667 -53.5 -14v31z" />
    <glyph glyph-name="Egrave" unicode="&#xc8;" horiz-adv-x="512" 
d="M60 718h396v-127h-267v-159h166v-127h-166v-178h267v-127h-396v718zM143 952l201 -150l-44 -66l-213 131z" />
    <glyph glyph-name="Eacute" unicode="&#xc9;" horiz-adv-x="512" 
d="M60 718h396v-127h-267v-159h166v-127h-166v-178h267v-127h-396v718zM444 867l-214 -131l-43 66l201 150z" />
    <glyph glyph-name="Ecircumflex" unicode="&#xca;" horiz-adv-x="512" 
d="M60 718h396v-127h-267v-159h166v-127h-166v-178h267v-127h-396v718zM265 836l-112 -94l-45 49l157 161l158 -161l-45 -49z" />
    <glyph glyph-name="Edieresis" unicode="&#xcb;" horiz-adv-x="512" 
d="M60 718h396v-127h-267v-159h166v-127h-166v-178h267v-127h-396v718zM363 785c-21.333 0 -38.001 7.99902 -50.001 23.999s-18 35.333 -18 58c0 24 6 43.833 18 59.5s28.667 23.5 50 23.5c16.667 0 32.167 -7.83301 46.5 -23.5s21.5 -35.5 21.5 -59.5
c0 -11.333 -2 -22 -6 -32s-9.16699 -18.667 -15.5 -26s-13.666 -13.166 -21.999 -17.499s-16.5 -6.5 -24.5 -6.5zM168.999 784.999c-21.333 0 -38.001 7.99902 -50.001 23.999s-18 35.333 -18 58c0 24 6 43.833 18 59.5s28.667 23.5 50 23.5
c16.667 0 32.167 -7.83301 46.5 -23.5s21.5 -35.5 21.5 -59.5c0 -11.333 -2 -22 -6 -32s-9.16699 -18.667 -15.5 -26s-13.666 -13.166 -21.999 -17.499s-16.5 -6.5 -24.5 -6.5z" />
    <glyph glyph-name="Igrave" unicode="&#xcc;" horiz-adv-x="257" 
d="M64 718h129v-718h-129v718zM7 952l201 -150l-44 -66l-213 131z" />
    <glyph glyph-name="Iacute" unicode="&#xcd;" horiz-adv-x="257" 
d="M64 718h129v-718h-129v718zM307 867l-214 -131l-43 66l201 150z" />
    <glyph glyph-name="Icircumflex" unicode="&#xce;" horiz-adv-x="257" 
d="M64 718h129v-718h-129v718zM129 836l-112 -94l-45 49l157 161l158 -161l-45 -49z" />
    <glyph glyph-name="Idieresis" unicode="&#xcf;" horiz-adv-x="257" 
d="M64 718h129v-718h-129v718zM227 785c-21.333 0 -38.001 7.99902 -50.001 23.999s-18 35.333 -18 58c0 24 6 43.833 18 59.5s28.667 23.5 50 23.5c16.667 0 32.167 -7.83301 46.5 -23.5s21.5 -35.5 21.5 -59.5c0 -11.333 -2 -22 -6 -32s-9.16699 -18.667 -15.5 -26
s-13.666 -13.166 -21.999 -17.499s-16.5 -6.5 -24.5 -6.5zM32.999 784.999c-21.333 0 -38.001 7.99902 -50.001 23.999s-18 35.333 -18 58c0 24 6 43.833 18 59.5s28.667 23.5 50 23.5c16.667 0 32.167 -7.83301 46.5 -23.5s21.5 -35.5 21.5 -59.5c0 -11.333 -2 -22 -6 -32
s-9.16699 -18.667 -15.5 -26s-13.666 -13.166 -21.999 -17.499s-16.5 -6.5 -24.5 -6.5z" />
    <glyph glyph-name="Eth" unicode="&#xd0;" horiz-adv-x="652" 
d="M18 432l46.998 0.00292969v286h208c48.667 0 93.667 -9 135 -27s76.833 -42.833 106.5 -74.5s52.834 -69.334 69.501 -113.001s25 -90.834 25 -141.501c0 -56.667 -8.66699 -107.334 -26 -152.001s-41.166 -82.5 -71.499 -113.5s-66.5 -54.833 -108.5 -71.5
s-87.667 -25 -137 -25h-201v305h-47v127zM193.998 591.003v-159h129v-127h-129v-176h56c35.333 0 67.166 5.83301 95.499 17.5s52.333 27.834 72 48.501s34.834 45.167 45.501 73.5s16 59.166 16 92.499c0 34 -5.33301 65.167 -16 93.5s-25.834 52.5 -45.501 72.5
s-43.667 35.667 -72 47s-60.166 17 -95.499 17h-56z" />
    <glyph glyph-name="Ntilde" unicode="&#xd1;" horiz-adv-x="627" 
d="M188 474v-474h-128v718h148l231 -453v453h128v-718h-138zM395 782c-20 0 -37.666 4.66602 -52.999 13.999s-29.5 19.5 -42.5 30.5l-37 30.5c-11.667 9.33301 -23.5 14 -35.5 14c-15.333 0 -29.166 -8.5 -41.499 -25.5s-23.5 -36.833 -33.5 -59.5l-58 52
c5.33301 16.667 12.5 32 21.5 46s19.333 26 31 36s24 17.833 37 23.5s25.833 8.5 38.5 8.5c22.667 0 42.167 -4.66699 58.5 -14s31.166 -19.666 44.499 -30.999l37.5 -31c11.667 -9.33301 23.5 -14 35.5 -14c8 0 15.5 2.5 22.5 7.5s13.667 11.667 20 20
s12.333 17.833 18 28.5s11.167 22 16.5 34l58 -52c-6 -19.333 -14 -36.333 -24 -51s-21.333 -27 -34 -37s-25.834 -17.5 -39.501 -22.5s-27.167 -7.5 -40.5 -7.5z" />
    <glyph glyph-name="Ograve" unicode="&#xd2;" horiz-adv-x="682" 
d="M341 601c-48 0 -87.334 -20 -118.001 -60s-46 -100.333 -46 -181c0 -40 4.33301 -75.167 13 -105.5s20.334 -55.5 35.001 -75.5s32 -35 52 -45s41.333 -15 64 -15c23.333 0 45 5 65 15s37.333 25 52 45s26.167 45.167 34.5 75.5s12.5 65.5 12.5 105.5
c0 80.667 -14.167 141 -42.5 181s-68.833 60 -121.5 60zM346.999 -10c-42 0 -81.167 8.33203 -117.5 24.999s-67.833 40.834 -94.5 72.501s-47.5 70.5 -62.5 116.5s-22.5 98 -22.5 156c0 56.667 7.33301 107.834 22 153.501s35 84.334 61 116.001s56.667 56 92 73
s74 25.5 116 25.5s80.833 -8.5 116.5 -25.5s66.5 -41.333 92.5 -73s46.167 -70.334 60.5 -116.001s21.5 -96.834 21.5 -153.501c0 -57.333 -7 -108.833 -21 -154.5s-33.667 -84.5 -59 -116.5s-55.5 -56.5 -90.5 -73.5s-73.167 -25.5 -114.5 -25.5zM217.999 951.999l201 -150
l-44 -66l-213 131z" />
    <glyph glyph-name="Oacute" unicode="&#xd3;" horiz-adv-x="682" 
d="M341 601c-48 0 -87.334 -20 -118.001 -60s-46 -100.333 -46 -181c0 -40 4.33301 -75.167 13 -105.5s20.334 -55.5 35.001 -75.5s32 -35 52 -45s41.333 -15 64 -15c23.333 0 45 5 65 15s37.333 25 52 45s26.167 45.167 34.5 75.5s12.5 65.5 12.5 105.5
c0 80.667 -14.167 141 -42.5 181s-68.833 60 -121.5 60zM346.999 -10c-42 0 -81.167 8.33203 -117.5 24.999s-67.833 40.834 -94.5 72.501s-47.5 70.5 -62.5 116.5s-22.5 98 -22.5 156c0 56.667 7.33301 107.834 22 153.501s35 84.334 61 116.001s56.667 56 92 73
s74 25.5 116 25.5s80.833 -8.5 116.5 -25.5s66.5 -41.333 92.5 -73s46.167 -70.334 60.5 -116.001s21.5 -96.834 21.5 -153.501c0 -57.333 -7 -108.833 -21 -154.5s-33.667 -84.5 -59 -116.5s-55.5 -56.5 -90.5 -73.5s-73.167 -25.5 -114.5 -25.5zM518.999 866.999
l-214 -131l-43 66l201 150z" />
    <glyph glyph-name="Ocircumflex" unicode="&#xd4;" horiz-adv-x="682" 
d="M341 601c-48 0 -87.334 -20 -118.001 -60s-46 -100.333 -46 -181c0 -40 4.33301 -75.167 13 -105.5s20.334 -55.5 35.001 -75.5s32 -35 52 -45s41.333 -15 64 -15c23.333 0 45 5 65 15s37.333 25 52 45s26.167 45.167 34.5 75.5s12.5 65.5 12.5 105.5
c0 80.667 -14.167 141 -42.5 181s-68.833 60 -121.5 60zM346.999 -10c-42 0 -81.167 8.33203 -117.5 24.999s-67.833 40.834 -94.5 72.501s-47.5 70.5 -62.5 116.5s-22.5 98 -22.5 156c0 56.667 7.33301 107.834 22 153.501s35 84.334 61 116.001s56.667 56 92 73
s74 25.5 116 25.5s80.833 -8.5 116.5 -25.5s66.5 -41.333 92.5 -73s46.167 -70.334 60.5 -116.001s21.5 -96.834 21.5 -153.501c0 -57.333 -7 -108.833 -21 -154.5s-33.667 -84.5 -59 -116.5s-55.5 -56.5 -90.5 -73.5s-73.167 -25.5 -114.5 -25.5zM339.999 835.999l-112 -94
l-45 49l157 161l158 -161l-45 -49z" />
    <glyph glyph-name="Otilde" unicode="&#xd5;" horiz-adv-x="682" 
d="M341 601c-48 0 -87.334 -20 -118.001 -60s-46 -100.333 -46 -181c0 -40 4.33301 -75.167 13 -105.5s20.334 -55.5 35.001 -75.5s32 -35 52 -45s41.333 -15 64 -15c23.333 0 45 5 65 15s37.333 25 52 45s26.167 45.167 34.5 75.5s12.5 65.5 12.5 105.5
c0 80.667 -14.167 141 -42.5 181s-68.833 60 -121.5 60zM346.999 -10c-42 0 -81.167 8.33203 -117.5 24.999s-67.833 40.834 -94.5 72.501s-47.5 70.5 -62.5 116.5s-22.5 98 -22.5 156c0 56.667 7.33301 107.834 22 153.501s35 84.334 61 116.001s56.667 56 92 73
s74 25.5 116 25.5s80.833 -8.5 116.5 -25.5s66.5 -41.333 92.5 -73s46.167 -70.334 60.5 -116.001s21.5 -96.834 21.5 -153.501c0 -57.333 -7 -108.833 -21 -154.5s-33.667 -84.5 -59 -116.5s-55.5 -56.5 -90.5 -73.5s-73.167 -25.5 -114.5 -25.5zM421.999 781.999
c-20 0 -37.666 4.66602 -52.999 13.999s-29.5 19.5 -42.5 30.5l-37 30.5c-11.667 9.33301 -23.5 14 -35.5 14c-15.333 0 -29.166 -8.5 -41.499 -25.5s-23.5 -36.833 -33.5 -59.5l-58 52c5.33301 16.667 12.5 32 21.5 46s19.333 26 31 36s24 17.833 37 23.5
s25.833 8.5 38.5 8.5c22.667 0 42.167 -4.66699 58.5 -14s31.166 -19.666 44.499 -30.999l37.5 -31c11.667 -9.33301 23.5 -14 35.5 -14c8 0 15.5 2.5 22.5 7.5s13.667 11.667 20 20s12.333 17.833 18 28.5s11.167 22 16.5 34l58 -52c-6 -19.333 -14 -36.333 -24 -51
s-21.333 -27 -34 -37s-25.834 -17.5 -39.501 -22.5s-27.167 -7.5 -40.5 -7.5z" />
    <glyph glyph-name="Odieresis" unicode="&#xd6;" horiz-adv-x="682" 
d="M341 601c-48 0 -87.334 -20 -118.001 -60s-46 -100.333 -46 -181c0 -40 4.33301 -75.167 13 -105.5s20.334 -55.5 35.001 -75.5s32 -35 52 -45s41.333 -15 64 -15c23.333 0 45 5 65 15s37.333 25 52 45s26.167 45.167 34.5 75.5s12.5 65.5 12.5 105.5
c0 80.667 -14.167 141 -42.5 181s-68.833 60 -121.5 60zM346.999 -10c-42 0 -81.167 8.33203 -117.5 24.999s-67.833 40.834 -94.5 72.501s-47.5 70.5 -62.5 116.5s-22.5 98 -22.5 156c0 56.667 7.33301 107.834 22 153.501s35 84.334 61 116.001s56.667 56 92 73
s74 25.5 116 25.5s80.833 -8.5 116.5 -25.5s66.5 -41.333 92.5 -73s46.167 -70.334 60.5 -116.001s21.5 -96.834 21.5 -153.501c0 -57.333 -7 -108.833 -21 -154.5s-33.667 -84.5 -59 -116.5s-55.5 -56.5 -90.5 -73.5s-73.167 -25.5 -114.5 -25.5zM437.999 784.999
c-21.333 0 -38.001 7.99902 -50.001 23.999s-18 35.333 -18 58c0 24 6 43.833 18 59.5s28.667 23.5 50 23.5c16.667 0 32.167 -7.83301 46.5 -23.5s21.5 -35.5 21.5 -59.5c0 -11.333 -2 -22 -6 -32s-9.16699 -18.667 -15.5 -26s-13.666 -13.166 -21.999 -17.499
s-16.5 -6.5 -24.5 -6.5zM243.998 784.998c-21.333 0 -38.001 7.99902 -50.001 23.999s-18 35.333 -18 58c0 24 6 43.833 18 59.5s28.667 23.5 50 23.5c16.667 0 32.167 -7.83301 46.5 -23.5s21.5 -35.5 21.5 -59.5c0 -11.333 -2 -22 -6 -32s-9.16699 -18.667 -15.5 -26
s-13.666 -13.166 -21.999 -17.499s-16.5 -6.5 -24.5 -6.5z" />
    <glyph glyph-name="multiply" unicode="&#xd7;" horiz-adv-x="583" 
d="M213 354l-140 140l79 78l140 -140l139 140l78 -79l-139 -139l139 -139l-78 -79l-139 140l-140 -140l-79 78z" />
    <glyph glyph-name="Oslash" unicode="&#xd8;" horiz-adv-x="681" 
d="M74 -50l67 130.997c-28.667 32 -51 71.333 -67 118s-24 100.334 -24 161.001c0 56.667 7.33301 107.834 22 153.501s35 84.334 61 116.001s56.667 56 92 73s74 25.5 116 25.5c41.333 0 80.333 -8.66699 117 -26l34 66h115l-66 -128c28.667 -32 51 -71.5 67 -118.5
s24 -100.833 24 -161.5c0 -57.333 -7 -108.833 -21 -154.5s-33.667 -84.5 -59 -116.5s-55.5 -56.5 -90.5 -73.5s-73.167 -25.5 -114.5 -25.5c-46 0 -88 9.33301 -126 28l-35 -68h-112zM505 359.997c0 65.333 -9.33203 117 -27.999 155l-197 -383
c17.333 -8.66699 37.666 -13 60.999 -13s45 5 65 15s37.333 25 52 45s26.167 45.167 34.5 75.5s12.5 65.5 12.5 105.5zM341.001 600.997c-48 0 -87.333 -20 -118 -60s-46 -100.333 -46 -181c0 -32 2.5 -60.333 7.5 -85s12.167 -46.667 21.5 -66l195 381
c-20 7.33301 -40 11 -60 11z" />
    <glyph glyph-name="Ugrave" unicode="&#xd9;" horiz-adv-x="610" 
d="M309 -10c-40 0 -75.835 6.33301 -107.502 19s-58.167 30.5 -79.5 53.5s-37.666 51 -48.999 84s-17 69.833 -17 110.5v461h128v-457c0 -52.667 10.667 -89.834 32 -111.501s52.333 -32.5 93 -32.5c38 0 66.833 10.833 86.5 32.5s29.5 58.834 29.5 111.501v457h129v-457
c0 -41.333 -5.33301 -78.833 -16 -112.5s-26.5 -62.167 -47.5 -85.5s-46.667 -41.333 -77 -54s-65.166 -19 -104.499 -19zM181.998 952l201 -150l-44 -66l-213 131z" />
    <glyph glyph-name="Uacute" unicode="&#xda;" horiz-adv-x="610" 
d="M309 -10c-40 0 -75.835 6.33301 -107.502 19s-58.167 30.5 -79.5 53.5s-37.666 51 -48.999 84s-17 69.833 -17 110.5v461h128v-457c0 -52.667 10.667 -89.834 32 -111.501s52.333 -32.5 93 -32.5c38 0 66.833 10.833 86.5 32.5s29.5 58.834 29.5 111.501v457h129v-457
c0 -41.333 -5.33301 -78.833 -16 -112.5s-26.5 -62.167 -47.5 -85.5s-46.667 -41.333 -77 -54s-65.166 -19 -104.499 -19zM482.998 867l-214 -131l-43 66l201 150z" />
    <glyph glyph-name="Ucircumflex" unicode="&#xdb;" horiz-adv-x="610" 
d="M309 -10c-40 0 -75.835 6.33301 -107.502 19s-58.167 30.5 -79.5 53.5s-37.666 51 -48.999 84s-17 69.833 -17 110.5v461h128v-457c0 -52.667 10.667 -89.834 32 -111.501s52.333 -32.5 93 -32.5c38 0 66.833 10.833 86.5 32.5s29.5 58.834 29.5 111.501v457h129v-457
c0 -41.333 -5.33301 -78.833 -16 -112.5s-26.5 -62.167 -47.5 -85.5s-46.667 -41.333 -77 -54s-65.166 -19 -104.499 -19zM303.998 836l-112 -94l-45 49l157 161l158 -161l-45 -49z" />
    <glyph glyph-name="Udieresis" unicode="&#xdc;" horiz-adv-x="610" 
d="M309 -10c-40 0 -75.835 6.33301 -107.502 19s-58.167 30.5 -79.5 53.5s-37.666 51 -48.999 84s-17 69.833 -17 110.5v461h128v-457c0 -52.667 10.667 -89.834 32 -111.501s52.333 -32.5 93 -32.5c38 0 66.833 10.833 86.5 32.5s29.5 58.834 29.5 111.501v457h129v-457
c0 -41.333 -5.33301 -78.833 -16 -112.5s-26.5 -62.167 -47.5 -85.5s-46.667 -41.333 -77 -54s-65.166 -19 -104.499 -19zM401.998 785c-21.333 0 -38.001 7.99902 -50.001 23.999s-18 35.333 -18 58c0 24 6 43.833 18 59.5s28.667 23.5 50 23.5
c16.667 0 32.167 -7.83301 46.5 -23.5s21.5 -35.5 21.5 -59.5c0 -11.333 -2 -22 -6 -32s-9.16699 -18.667 -15.5 -26s-13.666 -13.166 -21.999 -17.499s-16.5 -6.5 -24.5 -6.5zM207.997 784.999c-21.333 0 -38.001 7.99902 -50.001 23.999s-18 35.333 -18 58
c0 24 6 43.833 18 59.5s28.667 23.5 50 23.5c16.667 0 32.167 -7.83301 46.5 -23.5s21.5 -35.5 21.5 -59.5c0 -11.333 -2 -22 -6 -32s-9.16699 -18.667 -15.5 -26s-13.666 -13.166 -21.999 -17.499s-16.5 -6.5 -24.5 -6.5z" />
    <glyph glyph-name="Yacute" unicode="&#xdd;" horiz-adv-x="572" 
d="M357 275v-275h-141v273l-212 445h145l138 -300l138 300h143zM464 867l-214 -131l-43 66l201 150z" />
    <glyph glyph-name="Thorn" unicode="&#xde;" horiz-adv-x="536" 
d="M189 481v-224h71c20 0 37.667 1.83301 53 5.5s28 10 38 19s17.667 21.167 23 36.5s8 35 8 59c0 20 -3.66699 36.667 -11 50s-17 24 -29 32s-26 13.667 -42 17s-32.333 5 -49 5h-62zM189 608l64.001 0.000976562c84.667 0 149.667 -19 195 -57s68 -95.333 68 -172
c0 -39.333 -6.33301 -74.333 -19 -105s-30.834 -56.834 -54.501 -78.501s-52 -38.167 -85 -49.5s-69.5 -17 -109.5 -17h-59v-129h-129v718h129v-110z" />
    <glyph glyph-name="germandbls" unicode="&#xdf;" horiz-adv-x="580" 
d="M58 519c0 76 17.998 133.665 53.998 172.998s88.333 59 157 59c70.667 0 124.334 -18 161.001 -54s55 -88.333 55 -157c0 -30.667 -6.83301 -57.667 -20.5 -81s-29.167 -40.666 -46.5 -51.999c14.667 -5.33301 29 -12.666 43 -21.999s26.333 -21.166 37 -35.499
s19.334 -31.5 26.001 -51.5s10 -43.333 10 -70c0 -32 -3.5 -62.333 -10.5 -91s-18.667 -53.834 -35 -75.501s-37.666 -39 -63.999 -52s-58.5 -19.5 -96.5 -19.5c-28 0 -53.333 4.16699 -76 12.5s-39 17.166 -49 26.499l61 110c6 -5.33301 14.667 -10.333 26 -15
s22.333 -7 33 -7c28 0 48.833 10.5 62.5 31.5s20.5 48.5 20.5 82.5s-11.333 59.333 -34 76s-55.334 25 -98.001 25h-17v112c36 0 61.667 8.33301 77 25s23 38.334 23 65.001c0 30 -7.83301 52.333 -23.5 67s-36.167 22 -61.5 22c-57.333 0 -86 -31.333 -86 -94v-529h-128
v519z" />
    <glyph glyph-name="agrave" unicode="&#xe0;" horiz-adv-x="509" 
d="M321 240c-5.33301 9.33301 -14.333 17.167 -27 23.5s-26.667 9.5 -42 9.5c-62.667 0 -94 -25.333 -94 -76c0 -22 8.16699 -39.5 24.5 -52.5s35.833 -19.5 58.5 -19.5c33.333 0 60 12 80 36v79zM322 31.001c-11.333 -11.333 -26.832 -21.001 -46.499 -29.001
s-41.167 -12 -64.5 -12c-25.333 0 -48.833 4.83301 -70.5 14.5s-40.834 23.334 -57.501 41.001s-29.667 39 -39 64s-14 53.167 -14 84.5c0 65.333 18.333 114.333 55 147s85 49 145 49c16 0 32.167 -1.5 48.5 -4.5s31.166 -9.16699 44.499 -18.5
c-4.66699 26.667 -13.667 45.5 -27 56.5s-32.666 16.5 -57.999 16.5c-20.667 0 -38.334 -3.5 -53.001 -10.5s-29 -16.5 -43 -28.5l-58 99c19.333 21.333 43 38.166 71 50.499s58.333 18.5 91 18.5c30.667 0 58.667 -5 84 -15s46.833 -24.167 64.5 -42.5
s31.334 -40.666 41.001 -66.999s14.5 -55.5 14.5 -87.5v-357h-128v31zM132.001 793l201 -150l-44 -66l-213 131z" />
    <glyph glyph-name="aacute" unicode="&#xe1;" horiz-adv-x="509" 
d="M321 240c-5.33301 9.33301 -14.333 17.167 -27 23.5s-26.667 9.5 -42 9.5c-62.667 0 -94 -25.333 -94 -76c0 -22 8.16699 -39.5 24.5 -52.5s35.833 -19.5 58.5 -19.5c33.333 0 60 12 80 36v79zM322 31.001c-11.333 -11.333 -26.832 -21.001 -46.499 -29.001
s-41.167 -12 -64.5 -12c-25.333 0 -48.833 4.83301 -70.5 14.5s-40.834 23.334 -57.501 41.001s-29.667 39 -39 64s-14 53.167 -14 84.5c0 65.333 18.333 114.333 55 147s85 49 145 49c16 0 32.167 -1.5 48.5 -4.5s31.166 -9.16699 44.499 -18.5
c-4.66699 26.667 -13.667 45.5 -27 56.5s-32.666 16.5 -57.999 16.5c-20.667 0 -38.334 -3.5 -53.001 -10.5s-29 -16.5 -43 -28.5l-58 99c19.333 21.333 43 38.166 71 50.499s58.333 18.5 91 18.5c30.667 0 58.667 -5 84 -15s46.833 -24.167 64.5 -42.5
s31.334 -40.666 41.001 -66.999s14.5 -55.5 14.5 -87.5v-357h-128v31zM433.001 708l-214 -131l-43 66l201 150z" />
    <glyph glyph-name="acircumflex" unicode="&#xe2;" horiz-adv-x="509" 
d="M321 240c-5.33301 9.33301 -14.333 17.167 -27 23.5s-26.667 9.5 -42 9.5c-62.667 0 -94 -25.333 -94 -76c0 -22 8.16699 -39.5 24.5 -52.5s35.833 -19.5 58.5 -19.5c33.333 0 60 12 80 36v79zM322 31.001c-11.333 -11.333 -26.832 -21.001 -46.499 -29.001
s-41.167 -12 -64.5 -12c-25.333 0 -48.833 4.83301 -70.5 14.5s-40.834 23.334 -57.501 41.001s-29.667 39 -39 64s-14 53.167 -14 84.5c0 65.333 18.333 114.333 55 147s85 49 145 49c16 0 32.167 -1.5 48.5 -4.5s31.166 -9.16699 44.499 -18.5
c-4.66699 26.667 -13.667 45.5 -27 56.5s-32.666 16.5 -57.999 16.5c-20.667 0 -38.334 -3.5 -53.001 -10.5s-29 -16.5 -43 -28.5l-58 99c19.333 21.333 43 38.166 71 50.499s58.333 18.5 91 18.5c30.667 0 58.667 -5 84 -15s46.833 -24.167 64.5 -42.5
s31.334 -40.666 41.001 -66.999s14.5 -55.5 14.5 -87.5v-357h-128v31zM254.001 677l-112 -94l-45 49l157 161l158 -161l-45 -49z" />
    <glyph glyph-name="atilde" unicode="&#xe3;" horiz-adv-x="509" 
d="M321 240c-5.33301 9.33301 -14.333 17.167 -27 23.5s-26.667 9.5 -42 9.5c-62.667 0 -94 -25.333 -94 -76c0 -22 8.16699 -39.5 24.5 -52.5s35.833 -19.5 58.5 -19.5c33.333 0 60 12 80 36v79zM322 31.001c-11.333 -11.333 -26.832 -21.001 -46.499 -29.001
s-41.167 -12 -64.5 -12c-25.333 0 -48.833 4.83301 -70.5 14.5s-40.834 23.334 -57.501 41.001s-29.667 39 -39 64s-14 53.167 -14 84.5c0 65.333 18.333 114.333 55 147s85 49 145 49c16 0 32.167 -1.5 48.5 -4.5s31.166 -9.16699 44.499 -18.5
c-4.66699 26.667 -13.667 45.5 -27 56.5s-32.666 16.5 -57.999 16.5c-20.667 0 -38.334 -3.5 -53.001 -10.5s-29 -16.5 -43 -28.5l-58 99c19.333 21.333 43 38.166 71 50.499s58.333 18.5 91 18.5c30.667 0 58.667 -5 84 -15s46.833 -24.167 64.5 -42.5
s31.334 -40.666 41.001 -66.999s14.5 -55.5 14.5 -87.5v-357h-128v31zM337.001 623c-20 0 -37.666 4.66602 -52.999 13.999s-29.5 19.5 -42.5 30.5l-37 30.5c-11.667 9.33301 -23.5 14 -35.5 14c-15.333 0 -29.166 -8.5 -41.499 -25.5s-23.5 -36.833 -33.5 -59.5l-58 52
c5.33301 16.667 12.5 32 21.5 46s19.333 26 31 36s24 17.833 37 23.5s25.833 8.5 38.5 8.5c22.667 0 42.167 -4.66699 58.5 -14s31.166 -19.666 44.499 -30.999l37.5 -31c11.667 -9.33301 23.5 -14 35.5 -14c8 0 15.5 2.5 22.5 7.5s13.667 11.667 20 20
s12.333 17.833 18 28.5s11.167 22 16.5 34l58 -52c-6 -19.333 -14 -36.333 -24 -51s-21.333 -27 -34 -37s-25.834 -17.5 -39.501 -22.5s-27.167 -7.5 -40.5 -7.5z" />
    <glyph glyph-name="adieresis" unicode="&#xe4;" horiz-adv-x="509" 
d="M321 240c-5.33301 9.33301 -14.333 17.167 -27 23.5s-26.667 9.5 -42 9.5c-62.667 0 -94 -25.333 -94 -76c0 -22 8.16699 -39.5 24.5 -52.5s35.833 -19.5 58.5 -19.5c33.333 0 60 12 80 36v79zM322 31.001c-11.333 -11.333 -26.832 -21.001 -46.499 -29.001
s-41.167 -12 -64.5 -12c-25.333 0 -48.833 4.83301 -70.5 14.5s-40.834 23.334 -57.501 41.001s-29.667 39 -39 64s-14 53.167 -14 84.5c0 65.333 18.333 114.333 55 147s85 49 145 49c16 0 32.167 -1.5 48.5 -4.5s31.166 -9.16699 44.499 -18.5
c-4.66699 26.667 -13.667 45.5 -27 56.5s-32.666 16.5 -57.999 16.5c-20.667 0 -38.334 -3.5 -53.001 -10.5s-29 -16.5 -43 -28.5l-58 99c19.333 21.333 43 38.166 71 50.499s58.333 18.5 91 18.5c30.667 0 58.667 -5 84 -15s46.833 -24.167 64.5 -42.5
s31.334 -40.666 41.001 -66.999s14.5 -55.5 14.5 -87.5v-357h-128v31zM351.001 626c-21.333 0 -38.001 7.99902 -50.001 23.999s-18 35.333 -18 58c0 24 6 43.833 18 59.5s28.667 23.5 50 23.5c16.667 0 32.167 -7.83301 46.5 -23.5s21.5 -35.5 21.5 -59.5
c0 -11.333 -2 -22 -6 -32s-9.16699 -18.667 -15.5 -26s-13.666 -13.166 -21.999 -17.499s-16.5 -6.5 -24.5 -6.5zM157 625.999c-21.333 0 -38.001 7.99902 -50.001 23.999s-18 35.333 -18 58c0 24 6 43.833 18 59.5s28.667 23.5 50 23.5
c16.667 0 32.167 -7.83301 46.5 -23.5s21.5 -35.5 21.5 -59.5c0 -11.333 -2 -22 -6 -32s-9.16699 -18.667 -15.5 -26s-13.666 -13.166 -21.999 -17.499s-16.5 -6.5 -24.5 -6.5z" />
    <glyph glyph-name="aring" unicode="&#xe5;" horiz-adv-x="509" 
d="M321 240c-5.33301 9.33301 -14.333 17.167 -27 23.5s-26.667 9.5 -42 9.5c-62.667 0 -94 -25.333 -94 -76c0 -22 8.16699 -39.5 24.5 -52.5s35.833 -19.5 58.5 -19.5c33.333 0 60 12 80 36v79zM322 31.001c-11.333 -11.333 -26.832 -21.001 -46.499 -29.001
s-41.167 -12 -64.5 -12c-25.333 0 -48.833 4.83301 -70.5 14.5s-40.834 23.334 -57.501 41.001s-29.667 39 -39 64s-14 53.167 -14 84.5c0 65.333 18.333 114.333 55 147s85 49 145 49c16 0 32.167 -1.5 48.5 -4.5s31.166 -9.16699 44.499 -18.5
c-4.66699 26.667 -13.667 45.5 -27 56.5s-32.666 16.5 -57.999 16.5c-20.667 0 -38.334 -3.5 -53.001 -10.5s-29 -16.5 -43 -28.5l-58 99c19.333 21.333 43 38.166 71 50.499s58.333 18.5 91 18.5c30.667 0 58.667 -5 84 -15s46.833 -24.167 64.5 -42.5
s31.334 -40.666 41.001 -66.999s14.5 -55.5 14.5 -87.5v-357h-128v31zM255.001 793c14 0 27.5 -2.83301 40.5 -8.5s24.5 -13.334 34.5 -23.001s18 -21 24 -34s9 -26.833 9 -41.5c0 -15.333 -3 -29.5 -9 -42.5s-14 -24.5 -24 -34.5s-21.5 -17.833 -34.5 -23.5
s-26.5 -8.5 -40.5 -8.5c-15.333 0 -29.666 2.83301 -42.999 8.5s-24.833 13.334 -34.5 23.001s-17.334 21.167 -23.001 34.5s-8.5 27.666 -8.5 42.999c0 14.667 2.83301 28.5 8.5 41.5s13.334 24.333 23.001 34s21.167 17.334 34.5 23.001s27.666 8.5 42.999 8.5z
M255.001 727c-12 0 -22.167 -4.16699 -30.5 -12.5s-12.5 -17.833 -12.5 -28.5c0 -12.667 4.16699 -23.167 12.5 -31.5s18.5 -12.5 30.5 -12.5c11.333 0 21 4.16699 29 12.5s12 18.833 12 31.5c0 10.667 -4 20.167 -12 28.5s-17.667 12.5 -29 12.5z" />
    <glyph glyph-name="ae" unicode="&#xe6;" horiz-adv-x="810" 
d="M444 207c2 -14 6.50195 -26.3281 13.502 -36.9951s15.333 -19.834 25 -27.501s20.334 -13.334 32.001 -17.001s23.5 -5.5 35.5 -5.5c16.667 0 31.667 2.83301 45 8.5s25.666 16.167 36.999 31.5l87 -82c-24.667 -32 -50.667 -54.667 -78 -68s-59 -20 -95 -20
c-42 0 -78.167 7.5 -108.5 22.5s-55.166 36.5 -74.499 64.5c-6.66699 -10 -14.5 -20 -23.5 -30s-19.667 -19.333 -32 -28s-26.5 -15.667 -42.5 -21s-34 -8 -54 -8c-25.333 0 -48.833 4.83301 -70.5 14.5s-40.834 23.334 -57.501 41.001s-29.667 39 -39 64
s-14 53.167 -14 84.5c0 65.333 18.333 114.333 55 147s85 49 145 49c16 0 32.167 -1.5 48.5 -4.5s31.166 -9.16699 44.499 -18.5c-4.66699 26.667 -13.667 45.5 -27 56.5s-32.666 16.5 -57.999 16.5c-20.667 0 -38.334 -3.5 -53.001 -10.5s-29 -16.5 -43 -28.5l-58 99
c19.333 21.333 43 38.166 71 50.499s58.333 18.5 91 18.5c64 0 114.333 -20 151 -60c40 40 90.333 60 151 60c32.667 0 62.667 -5.83301 90 -17.5s50.666 -29.334 69.999 -53.001s34.333 -53.334 45 -89.001s16 -77.5 16 -125.5c0 -22.667 -0.333008 -39.834 -1 -51.501
s-1.66699 -20.167 -3 -25.5h-321zM241.002 125.005c33.333 0 60.001 12 80.001 36l5 6c-3.33301 12.667 -5.83301 25.667 -7.5 39s-2.83398 27 -3.50098 41c-6.66699 7.33301 -15.5 13.5 -26.5 18.5s-23.167 7.5 -36.5 7.5c-62.667 0 -94 -25.333 -94 -76
c0 -22 8.16699 -39.5 24.5 -52.5s35.833 -19.5 58.5 -19.5zM547.003 444.005c-28 0 -51.334 -10.5 -70.001 -31.5s-29.667 -47.833 -33 -80.5h196c-4 32.667 -14.167 59.5 -30.5 80.5s-37.166 31.5 -62.499 31.5z" />
    <glyph glyph-name="ccedilla" unicode="&#xe7;" horiz-adv-x="498" 
d="M284 -10c-36.667 0 -69.502 7.00293 -98.502 21.0029s-53.5 33.833 -73.5 59.5s-35.333 56.5 -46 92.5s-16 76.333 -16 121c0 40.667 5.66699 78.5 17 113.5s27.333 65.167 48 90.5s45.334 45.166 74.001 59.499s60.334 21.5 95.001 21.5c40 0 72.833 -7.33301 98.5 -22
s47.167 -34.334 64.5 -59.001l-98 -84c-7.33301 12 -16 20.833 -26 26.5s-23 8.5 -39 8.5c-32 0 -57.167 -14 -75.5 -42s-27.5 -66 -27.5 -114c0 -52.667 8.16699 -92.834 24.5 -120.501s42.5 -41.5 78.5 -41.5c27.333 0 52 12.333 74 37l104 -74
c-26 -34 -53 -58.167 -81 -72.5s-60.333 -21.5 -97 -21.5zM221.998 -201.997c14.667 4 26.001 8.66895 34.001 14.002s13.333 13.666 16 24.999h-2c-21.333 0 -37.833 6.33301 -49.5 19s-17.5 28.667 -17.5 48s6.16699 35.5 18.5 48.5s29.166 19.5 50.499 19.5
c17.333 0 33.333 -6.5 48 -19.5s22 -29.167 22 -48.5c0 -17.333 -2.33301 -33.833 -7 -49.5s-12 -29.834 -22 -42.501s-22.5 -23 -37.5 -31s-32.833 -12.667 -53.5 -14v31z" />
    <glyph glyph-name="egrave" unicode="&#xe8;" horiz-adv-x="545" 
d="M282 444c-28 0 -51.334 -10.5 -70.001 -31.5s-29.667 -47.833 -33 -80.5h196c-4 32.667 -14.167 59.5 -30.5 80.5s-37.166 31.5 -62.499 31.5zM178.999 207c2 -14 6.50195 -26.3281 13.502 -36.9951s15.333 -19.834 25 -27.501s20.334 -13.334 32.001 -17.001
s23.5 -5.5 35.5 -5.5c16.667 0 31.667 2.83301 45 8.5s25.666 16.167 36.999 31.5l87 -82c-24.667 -32 -50.667 -54.667 -78 -68s-59 -20 -95 -20c-74.667 0 -131.834 24 -171.501 72s-59.5 117.667 -59.5 209c0 46.667 5.66699 88.5 17 125.5s27.166 68.333 47.499 94
s44.833 45.167 73.5 58.5s60.334 20 95.001 20c32.667 0 62.667 -5.83301 90 -17.5s50.666 -29.334 69.999 -53.001s34.333 -53.334 45 -89.001s16 -77.5 16 -125.5c0 -22.667 -0.333008 -39.834 -1 -51.501s-1.66699 -20.167 -3 -25.5h-321zM160.001 793.005l201 -150
l-44 -66l-213 131z" />
    <glyph glyph-name="eacute" unicode="&#xe9;" horiz-adv-x="545" 
d="M282 444c-28 0 -51.334 -10.5 -70.001 -31.5s-29.667 -47.833 -33 -80.5h196c-4 32.667 -14.167 59.5 -30.5 80.5s-37.166 31.5 -62.499 31.5zM178.999 207c2 -14 6.50195 -26.3281 13.502 -36.9951s15.333 -19.834 25 -27.501s20.334 -13.334 32.001 -17.001
s23.5 -5.5 35.5 -5.5c16.667 0 31.667 2.83301 45 8.5s25.666 16.167 36.999 31.5l87 -82c-24.667 -32 -50.667 -54.667 -78 -68s-59 -20 -95 -20c-74.667 0 -131.834 24 -171.501 72s-59.5 117.667 -59.5 209c0 46.667 5.66699 88.5 17 125.5s27.166 68.333 47.499 94
s44.833 45.167 73.5 58.5s60.334 20 95.001 20c32.667 0 62.667 -5.83301 90 -17.5s50.666 -29.334 69.999 -53.001s34.333 -53.334 45 -89.001s16 -77.5 16 -125.5c0 -22.667 -0.333008 -39.834 -1 -51.501s-1.66699 -20.167 -3 -25.5h-321zM461.001 708.005l-214 -131
l-43 66l201 150z" />
    <glyph glyph-name="ecircumflex" unicode="&#xea;" horiz-adv-x="545" 
d="M282 444c-28 0 -51.334 -10.5 -70.001 -31.5s-29.667 -47.833 -33 -80.5h196c-4 32.667 -14.167 59.5 -30.5 80.5s-37.166 31.5 -62.499 31.5zM178.999 207c2 -14 6.50195 -26.3281 13.502 -36.9951s15.333 -19.834 25 -27.501s20.334 -13.334 32.001 -17.001
s23.5 -5.5 35.5 -5.5c16.667 0 31.667 2.83301 45 8.5s25.666 16.167 36.999 31.5l87 -82c-24.667 -32 -50.667 -54.667 -78 -68s-59 -20 -95 -20c-74.667 0 -131.834 24 -171.501 72s-59.5 117.667 -59.5 209c0 46.667 5.66699 88.5 17 125.5s27.166 68.333 47.499 94
s44.833 45.167 73.5 58.5s60.334 20 95.001 20c32.667 0 62.667 -5.83301 90 -17.5s50.666 -29.334 69.999 -53.001s34.333 -53.334 45 -89.001s16 -77.5 16 -125.5c0 -22.667 -0.333008 -39.834 -1 -51.501s-1.66699 -20.167 -3 -25.5h-321zM282.001 677.005l-112 -94
l-45 49l157 161l158 -161l-45 -49z" />
    <glyph glyph-name="edieresis" unicode="&#xeb;" horiz-adv-x="545" 
d="M282 444c-28 0 -51.334 -10.5 -70.001 -31.5s-29.667 -47.833 -33 -80.5h196c-4 32.667 -14.167 59.5 -30.5 80.5s-37.166 31.5 -62.499 31.5zM178.999 207c2 -14 6.50195 -26.3281 13.502 -36.9951s15.333 -19.834 25 -27.501s20.334 -13.334 32.001 -17.001
s23.5 -5.5 35.5 -5.5c16.667 0 31.667 2.83301 45 8.5s25.666 16.167 36.999 31.5l87 -82c-24.667 -32 -50.667 -54.667 -78 -68s-59 -20 -95 -20c-74.667 0 -131.834 24 -171.501 72s-59.5 117.667 -59.5 209c0 46.667 5.66699 88.5 17 125.5s27.166 68.333 47.499 94
s44.833 45.167 73.5 58.5s60.334 20 95.001 20c32.667 0 62.667 -5.83301 90 -17.5s50.666 -29.334 69.999 -53.001s34.333 -53.334 45 -89.001s16 -77.5 16 -125.5c0 -22.667 -0.333008 -39.834 -1 -51.501s-1.66699 -20.167 -3 -25.5h-321zM379.001 626.005
c-21.333 0 -38.001 7.99902 -50.001 23.999s-18 35.333 -18 58c0 24 6 43.833 18 59.5s28.667 23.5 50 23.5c16.667 0 32.167 -7.83301 46.5 -23.5s21.5 -35.5 21.5 -59.5c0 -11.333 -2 -22 -6 -32s-9.16699 -18.667 -15.5 -26s-13.666 -13.166 -21.999 -17.499
s-16.5 -6.5 -24.5 -6.5zM185 626.004c-21.333 0 -38.001 7.99902 -50.001 23.999s-18 35.333 -18 58c0 24 6 43.833 18 59.5s28.667 23.5 50 23.5c16.667 0 32.167 -7.83301 46.5 -23.5s21.5 -35.5 21.5 -59.5c0 -11.333 -2 -22 -6 -32s-9.16699 -18.667 -15.5 -26
s-13.666 -13.166 -21.999 -17.499s-16.5 -6.5 -24.5 -6.5z" />
    <glyph glyph-name="igrave" unicode="&#xec;" horiz-adv-x="246" 
d="M59 559h129v-559h-129v559zM2 793l201 -150l-44 -66l-213 131z" />
    <glyph glyph-name="iacute" unicode="&#xed;" horiz-adv-x="246" 
d="M59 559h129v-559h-129v559zM301 708l-214 -131l-43 66l201 150z" />
    <glyph glyph-name="icircumflex" unicode="&#xee;" horiz-adv-x="272" 
d="M72 559h129v-559h-129v559zM137 677l-112 -94l-45 49l157 161l158 -161l-45 -49z" />
    <glyph glyph-name="idieresis" unicode="&#xef;" horiz-adv-x="275" 
d="M74 559h129v-559h-129v559zM236 626c-21.333 0 -38.001 7.99902 -50.001 23.999s-18 35.333 -18 58c0 24 6 43.833 18 59.5s28.667 23.5 50 23.5c16.667 0 32.167 -7.83301 46.5 -23.5s21.5 -35.5 21.5 -59.5c0 -11.333 -2 -22 -6 -32s-9.16699 -18.667 -15.5 -26
s-13.666 -13.166 -21.999 -17.499s-16.5 -6.5 -24.5 -6.5zM41.999 625.999c-21.333 0 -38.001 7.99902 -50.001 23.999s-18 35.333 -18 58c0 24 6 43.833 18 59.5s28.667 23.5 50 23.5c16.667 0 32.167 -7.83301 46.5 -23.5s21.5 -35.5 21.5 -59.5c0 -11.333 -2 -22 -6 -32
s-9.16699 -18.667 -15.5 -26s-13.666 -13.166 -21.999 -17.499s-16.5 -6.5 -24.5 -6.5z" />
    <glyph glyph-name="eth" unicode="&#xf0;" horiz-adv-x="536" 
d="M203 586l-31.001 9.49902c-10 3 -20.333 5.5 -31 7.5l20 123c53.333 -7.33301 100 -23.333 140 -48l69 65l42 -46l-61 -58c22.667 -22 42.334 -46.833 59.001 -74.5s30.667 -57.334 42 -89.001s19.833 -64.5 25.5 -98.5s8.5 -68 8.5 -102c0 -44 -5 -83.667 -15 -119
s-24.333 -65.166 -43 -89.499s-41.667 -43.166 -69 -56.499s-58.333 -20 -93 -20c-66.667 0 -119.334 20.5 -158.001 61.5s-58 103.5 -58 187.5c0 68.667 16 122.834 48 162.501s76.333 59.5 133 59.5c28 0 52.333 -3.83301 73 -11.5s38.334 -17.834 53.001 -30.501
c-7.33301 30 -19 56.167 -35 78.5s-36 41.5 -60 57.5l-86 -81l-42 46zM263.999 349.999c-28.667 0 -51.833 -10.333 -69.5 -31s-26.5 -50 -26.5 -88s9.33301 -66.5 28 -85.5s43 -28.5 73 -28.5c60.667 0 91 38.667 91 116c0 38 -8.5 67 -25.5 87s-40.5 30 -70.5 30z" />
    <glyph glyph-name="ntilde" unicode="&#xf1;" horiz-adv-x="530" 
d="M352 350c0 24.667 -6.50098 45.833 -19.501 63.5s-34.167 26.5 -63.5 26.5c-19.333 0 -36.166 -5.5 -50.499 -16.5s-24.166 -25.5 -29.499 -43.5v-380h-129v559h129v-41c28 34 66.333 51 115 51c30.667 0 57.167 -5 79.5 -15s40.666 -24.167 54.999 -42.5
s24.833 -40.333 31.5 -66s10 -54.167 10 -85.5v-360h-128v350zM345.999 622.999c-20 0 -37.666 4.66602 -52.999 13.999s-29.5 19.5 -42.5 30.5l-37 30.5c-11.667 9.33301 -23.5 14 -35.5 14c-15.333 0 -29.166 -8.5 -41.499 -25.5s-23.5 -36.833 -33.5 -59.5l-58 52
c5.33301 16.667 12.5 32 21.5 46s19.333 26 31 36s24 17.833 37 23.5s25.833 8.5 38.5 8.5c22.667 0 42.167 -4.66699 58.5 -14s31.166 -19.666 44.499 -30.999l37.5 -31c11.667 -9.33301 23.5 -14 35.5 -14c8 0 15.5 2.5 22.5 7.5s13.667 11.667 20 20
s12.333 17.833 18 28.5s11.167 22 16.5 34l58 -52c-6 -19.333 -14 -36.333 -24 -51s-21.333 -27 -34 -37s-25.834 -17.5 -39.501 -22.5s-27.167 -7.5 -40.5 -7.5z" />
    <glyph glyph-name="ograve" unicode="&#xf2;" horiz-adv-x="554" 
d="M277 -10c-34 0 -65 7.5 -93 22.5s-51.833 35.5 -71.5 61.5s-35 56.667 -46 92s-16.5 73.333 -16.5 114s5.5 78.5 16.5 113.5s26.333 65.5 46 91.5s43.5 46.5 71.5 61.5s59 22.5 93 22.5s65 -7.5 93 -22.5s51.833 -35.5 71.5 -61.5s35 -56.5 46 -91.5
s16.5 -72.833 16.5 -113.5s-5.5 -78.667 -16.5 -114s-26.333 -66 -46 -92s-43.5 -46.5 -71.5 -61.5s-59 -22.5 -93 -22.5zM277 123c32 0 56.667 14.5 74 43.5s26 66.833 26 113.5s-8.66699 84.334 -26 113.001s-42 43 -74 43s-56.667 -14.333 -74 -43
s-26 -66.334 -26 -113.001s8.66699 -84.5 26 -113.5s42 -43.5 74 -43.5zM154 793l201 -150l-44 -66l-213 131z" />
    <glyph glyph-name="oacute" unicode="&#xf3;" horiz-adv-x="554" 
d="M277 -10c-34 0 -65 7.5 -93 22.5s-51.833 35.5 -71.5 61.5s-35 56.667 -46 92s-16.5 73.333 -16.5 114s5.5 78.5 16.5 113.5s26.333 65.5 46 91.5s43.5 46.5 71.5 61.5s59 22.5 93 22.5s65 -7.5 93 -22.5s51.833 -35.5 71.5 -61.5s35 -56.5 46 -91.5
s16.5 -72.833 16.5 -113.5s-5.5 -78.667 -16.5 -114s-26.333 -66 -46 -92s-43.5 -46.5 -71.5 -61.5s-59 -22.5 -93 -22.5zM277 123c32 0 56.667 14.5 74 43.5s26 66.833 26 113.5s-8.66699 84.334 -26 113.001s-42 43 -74 43s-56.667 -14.333 -74 -43
s-26 -66.334 -26 -113.001s8.66699 -84.5 26 -113.5s42 -43.5 74 -43.5zM455 708l-214 -131l-43 66l201 150z" />
    <glyph glyph-name="ocircumflex" unicode="&#xf4;" horiz-adv-x="554" 
d="M277 -10c-34 0 -65 7.5 -93 22.5s-51.833 35.5 -71.5 61.5s-35 56.667 -46 92s-16.5 73.333 -16.5 114s5.5 78.5 16.5 113.5s26.333 65.5 46 91.5s43.5 46.5 71.5 61.5s59 22.5 93 22.5s65 -7.5 93 -22.5s51.833 -35.5 71.5 -61.5s35 -56.5 46 -91.5
s16.5 -72.833 16.5 -113.5s-5.5 -78.667 -16.5 -114s-26.333 -66 -46 -92s-43.5 -46.5 -71.5 -61.5s-59 -22.5 -93 -22.5zM277 123c32 0 56.667 14.5 74 43.5s26 66.833 26 113.5s-8.66699 84.334 -26 113.001s-42 43 -74 43s-56.667 -14.333 -74 -43
s-26 -66.334 -26 -113.001s8.66699 -84.5 26 -113.5s42 -43.5 74 -43.5zM276 677l-112 -94l-45 49l157 161l158 -161l-45 -49z" />
    <glyph glyph-name="otilde" unicode="&#xf5;" horiz-adv-x="554" 
d="M277 -10c-34 0 -65 7.5 -93 22.5s-51.833 35.5 -71.5 61.5s-35 56.667 -46 92s-16.5 73.333 -16.5 114s5.5 78.5 16.5 113.5s26.333 65.5 46 91.5s43.5 46.5 71.5 61.5s59 22.5 93 22.5s65 -7.5 93 -22.5s51.833 -35.5 71.5 -61.5s35 -56.5 46 -91.5
s16.5 -72.833 16.5 -113.5s-5.5 -78.667 -16.5 -114s-26.333 -66 -46 -92s-43.5 -46.5 -71.5 -61.5s-59 -22.5 -93 -22.5zM277 123c32 0 56.667 14.5 74 43.5s26 66.833 26 113.5s-8.66699 84.334 -26 113.001s-42 43 -74 43s-56.667 -14.333 -74 -43
s-26 -66.334 -26 -113.001s8.66699 -84.5 26 -113.5s42 -43.5 74 -43.5zM358 623c-20 0 -37.666 4.66602 -52.999 13.999s-29.5 19.5 -42.5 30.5l-37 30.5c-11.667 9.33301 -23.5 14 -35.5 14c-15.333 0 -29.166 -8.5 -41.499 -25.5s-23.5 -36.833 -33.5 -59.5l-58 52
c5.33301 16.667 12.5 32 21.5 46s19.333 26 31 36s24 17.833 37 23.5s25.833 8.5 38.5 8.5c22.667 0 42.167 -4.66699 58.5 -14s31.166 -19.666 44.499 -30.999l37.5 -31c11.667 -9.33301 23.5 -14 35.5 -14c8 0 15.5 2.5 22.5 7.5s13.667 11.667 20 20
s12.333 17.833 18 28.5s11.167 22 16.5 34l58 -52c-6 -19.333 -14 -36.333 -24 -51s-21.333 -27 -34 -37s-25.834 -17.5 -39.501 -22.5s-27.167 -7.5 -40.5 -7.5z" />
    <glyph glyph-name="odieresis" unicode="&#xf6;" horiz-adv-x="554" 
d="M277 -10c-34 0 -65 7.5 -93 22.5s-51.833 35.5 -71.5 61.5s-35 56.667 -46 92s-16.5 73.333 -16.5 114s5.5 78.5 16.5 113.5s26.333 65.5 46 91.5s43.5 46.5 71.5 61.5s59 22.5 93 22.5s65 -7.5 93 -22.5s51.833 -35.5 71.5 -61.5s35 -56.5 46 -91.5
s16.5 -72.833 16.5 -113.5s-5.5 -78.667 -16.5 -114s-26.333 -66 -46 -92s-43.5 -46.5 -71.5 -61.5s-59 -22.5 -93 -22.5zM277 123c32 0 56.667 14.5 74 43.5s26 66.833 26 113.5s-8.66699 84.334 -26 113.001s-42 43 -74 43s-56.667 -14.333 -74 -43
s-26 -66.334 -26 -113.001s8.66699 -84.5 26 -113.5s42 -43.5 74 -43.5zM374 626c-21.333 0 -38.001 7.99902 -50.001 23.999s-18 35.333 -18 58c0 24 6 43.833 18 59.5s28.667 23.5 50 23.5c16.667 0 32.167 -7.83301 46.5 -23.5s21.5 -35.5 21.5 -59.5
c0 -11.333 -2 -22 -6 -32s-9.16699 -18.667 -15.5 -26s-13.666 -13.166 -21.999 -17.499s-16.5 -6.5 -24.5 -6.5zM179.999 625.999c-21.333 0 -38.001 7.99902 -50.001 23.999s-18 35.333 -18 58c0 24 6 43.833 18 59.5s28.667 23.5 50 23.5
c16.667 0 32.167 -7.83301 46.5 -23.5s21.5 -35.5 21.5 -59.5c0 -11.333 -2 -22 -6 -32s-9.16699 -18.667 -15.5 -26s-13.666 -13.166 -21.999 -17.499s-16.5 -6.5 -24.5 -6.5z" />
    <glyph glyph-name="divide" unicode="&#xf7;" 
d="M31 299v111h506v-111h-506zM284 531c-21.333 0 -38.001 7.99902 -50.001 23.999s-18 35.333 -18 58c0 24 6 43.833 18 59.5s28.667 23.5 50 23.5c16.667 0 32.167 -7.83301 46.5 -23.5s21.5 -35.5 21.5 -59.5c0 -11.333 -2 -22 -6 -32s-9.16699 -18.667 -15.5 -26
s-13.666 -13.166 -21.999 -17.499s-16.5 -6.5 -24.5 -6.5zM283.999 13.999c-21.333 0 -38.001 7.99902 -50.001 23.999s-18 35.333 -18 58c0 24 6 43.833 18 59.5s28.667 23.5 50 23.5c16.667 0 32.167 -7.83301 46.5 -23.5s21.5 -35.5 21.5 -59.5c0 -11.333 -2 -22 -6 -32
s-9.16699 -18.667 -15.5 -26s-13.666 -13.166 -21.999 -17.499s-16.5 -6.5 -24.5 -6.5z" />
    <glyph glyph-name="oslash" unicode="&#xf8;" horiz-adv-x="554" 
d="M57 -50l60 117c-21.333 26.667 -37.833 58.167 -49.5 94.5s-17.5 75.833 -17.5 118.5c0 40.667 5.5 78.5 16.5 113.5s26.333 65.5 46 91.5s43.5 46.5 71.5 61.5s59 22.5 93 22.5c30.667 0 60 -6.66699 88 -20l31 60h102l-61 -118c21.333 -26.667 37.833 -58 49.5 -94
s17.5 -75 17.5 -117c0 -40.667 -5.5 -78.667 -16.5 -114s-26.333 -66 -46 -92s-43.5 -46.5 -71.5 -61.5s-59 -22.5 -93 -22.5c-30.667 0 -60 6.66699 -88 20l-31 -60h-101zM164 280c0 -18 1 -35 3 -51s5.66699 -30.667 11 -44l136 264c-12 4.66699 -24.333 7 -37 7
c-36 0 -63.833 -16.167 -83.5 -48.5s-29.5 -74.833 -29.5 -127.5zM277 103c36 0 63.834 16.332 83.501 48.999s29.5 75.334 29.5 128.001c0 34 -4.66699 65 -14 93l-136 -263c9.33301 -4.66699 21.666 -7 36.999 -7z" />
    <glyph glyph-name="ugrave" unicode="&#xf9;" horiz-adv-x="534" 
d="M182 209c0 -24.667 6.50195 -45.833 19.502 -63.5s34.167 -26.5 63.5 -26.5c19.333 0 36.166 5.5 50.499 16.5s24.166 25.5 29.499 43.5v380h129v-559h-129v41c-28 -34 -66.333 -51 -115 -51c-31.333 0 -58 5 -80 15s-40.167 24.167 -54.5 42.5s-24.833 40.333 -31.5 66
s-10 54.167 -10 85.5v360h128v-350zM144.002 793.001l201 -150l-44 -66l-213 131z" />
    <glyph glyph-name="uacute" unicode="&#xfa;" horiz-adv-x="534" 
d="M182 209c0 -24.667 6.50195 -45.833 19.502 -63.5s34.167 -26.5 63.5 -26.5c19.333 0 36.166 5.5 50.499 16.5s24.166 25.5 29.499 43.5v380h129v-559h-129v41c-28 -34 -66.333 -51 -115 -51c-31.333 0 -58 5 -80 15s-40.167 24.167 -54.5 42.5s-24.833 40.333 -31.5 66
s-10 54.167 -10 85.5v360h128v-350zM445.002 708.001l-214 -131l-43 66l201 150z" />
    <glyph glyph-name="ucircumflex" unicode="&#xfb;" horiz-adv-x="534" 
d="M182 209c0 -24.667 6.50195 -45.833 19.502 -63.5s34.167 -26.5 63.5 -26.5c19.333 0 36.166 5.5 50.499 16.5s24.166 25.5 29.499 43.5v380h129v-559h-129v41c-28 -34 -66.333 -51 -115 -51c-31.333 0 -58 5 -80 15s-40.167 24.167 -54.5 42.5s-24.833 40.333 -31.5 66
s-10 54.167 -10 85.5v360h128v-350zM266.002 677.001l-112 -94l-45 49l157 161l158 -161l-45 -49z" />
    <glyph glyph-name="udieresis" unicode="&#xfc;" horiz-adv-x="534" 
d="M182 209c0 -24.667 6.50195 -45.833 19.502 -63.5s34.167 -26.5 63.5 -26.5c19.333 0 36.166 5.5 50.499 16.5s24.166 25.5 29.499 43.5v380h129v-559h-129v41c-28 -34 -66.333 -51 -115 -51c-31.333 0 -58 5 -80 15s-40.167 24.167 -54.5 42.5s-24.833 40.333 -31.5 66
s-10 54.167 -10 85.5v360h128v-350zM364.002 626.001c-21.333 0 -38.001 7.99902 -50.001 23.999s-18 35.333 -18 58c0 24 6 43.833 18 59.5s28.667 23.5 50 23.5c16.667 0 32.167 -7.83301 46.5 -23.5s21.5 -35.5 21.5 -59.5c0 -11.333 -2 -22 -6 -32
s-9.16699 -18.667 -15.5 -26s-13.666 -13.166 -21.999 -17.499s-16.5 -6.5 -24.5 -6.5zM170.001 626c-21.333 0 -38.001 7.99902 -50.001 23.999s-18 35.333 -18 58c0 24 6 43.833 18 59.5s28.667 23.5 50 23.5c16.667 0 32.167 -7.83301 46.5 -23.5s21.5 -35.5 21.5 -59.5
c0 -11.333 -2 -22 -6 -32s-9.16699 -18.667 -15.5 -26s-13.666 -13.166 -21.999 -17.499s-16.5 -6.5 -24.5 -6.5z" />
    <glyph glyph-name="yacute" unicode="&#xfd;" horiz-adv-x="475" 
d="M104 -233l69 243l-163 549h137l93 -363l89 363h136l-226 -792h-135zM416 708l-214 -131l-43 66l201 150z" />
    <glyph glyph-name="thorn" unicode="&#xfe;" horiz-adv-x="558" 
d="M60 687l128.996 56v-211c12.667 11.333 28.834 20.333 48.501 27s39.834 10 60.501 10c30.667 0 58.834 -6.5 84.501 -19.5s47.834 -31.667 66.501 -56s33.167 -53.833 43.5 -88.5s15.5 -73.667 15.5 -117c0 -42 -4.83301 -81.167 -14.5 -117.5
s-23.334 -67.833 -41.001 -94.5s-39 -47.667 -64 -63s-52.833 -23 -83.5 -23c-30 0 -53.667 2.66699 -71 8s-32.666 13 -45.999 23v-198l-128 -56v920zM271.996 436c-20 0 -37.668 -6 -53.001 -18s-25.666 -27 -30.999 -45v-180c7.33301 -20 19 -36.5 35 -49.5
s33.667 -19.5 53 -19.5c38 0 64.833 14.833 80.5 44.5s23.5 69.5 23.5 119.5c0 46.667 -9 83 -27 109s-45 39 -81 39z" />
    <glyph glyph-name="ydieresis" unicode="&#xff;" horiz-adv-x="475" 
d="M104 -233l69 243l-163 549h137l93 -363l89 363h136l-226 -792h-135zM334 626c-21.333 0 -38.001 7.99902 -50.001 23.999s-18 35.333 -18 58c0 24 6 43.833 18 59.5s28.667 23.5 50 23.5c16.667 0 32.167 -7.83301 46.5 -23.5s21.5 -35.5 21.5 -59.5
c0 -11.333 -2 -22 -6 -32s-9.16699 -18.667 -15.5 -26s-13.666 -13.166 -21.999 -17.499s-16.5 -6.5 -24.5 -6.5zM139.999 625.999c-21.333 0 -38.001 7.99902 -50.001 23.999s-18 35.333 -18 58c0 24 6 43.833 18 59.5s28.667 23.5 50 23.5
c16.667 0 32.167 -7.83301 46.5 -23.5s21.5 -35.5 21.5 -59.5c0 -11.333 -2 -22 -6 -32s-9.16699 -18.667 -15.5 -26s-13.666 -13.166 -21.999 -17.499s-16.5 -6.5 -24.5 -6.5z" />
    <glyph glyph-name="Amacron" unicode="&#x100;" horiz-adv-x="600" 
d="M382 718l212 -718h-139l-38 134h-235l-37 -134h-139l212 718h164zM216 261h166l-84 291zM158 927h283v-77h-283v77z" />
    <glyph glyph-name="amacron" unicode="&#x101;" horiz-adv-x="509" 
d="M321 240c-5.33301 9.33301 -14.333 17.167 -27 23.5s-26.667 9.5 -42 9.5c-62.667 0 -94 -25.333 -94 -76c0 -22 8.16699 -39.5 24.5 -52.5s35.833 -19.5 58.5 -19.5c33.333 0 60 12 80 36v79zM322 31.001c-11.333 -11.333 -26.832 -21.001 -46.499 -29.001
s-41.167 -12 -64.5 -12c-25.333 0 -48.833 4.83301 -70.5 14.5s-40.834 23.334 -57.501 41.001s-29.667 39 -39 64s-14 53.167 -14 84.5c0 65.333 18.333 114.333 55 147s85 49 145 49c16 0 32.167 -1.5 48.5 -4.5s31.166 -9.16699 44.499 -18.5
c-4.66699 26.667 -13.667 45.5 -27 56.5s-32.666 16.5 -57.999 16.5c-20.667 0 -38.334 -3.5 -53.001 -10.5s-29 -16.5 -43 -28.5l-58 99c19.333 21.333 43 38.166 71 50.499s58.333 18.5 91 18.5c30.667 0 58.667 -5 84 -15s46.833 -24.167 64.5 -42.5
s31.334 -40.666 41.001 -66.999s14.5 -55.5 14.5 -87.5v-357h-128v31zM113.001 768h283v-77h-283v77z" />
    <glyph glyph-name="Abreve" unicode="&#x102;" horiz-adv-x="600" 
d="M382 718l212 -718h-139l-38 134h-235l-37 -134h-139l212 718h164zM216 261h166l-84 291zM301 764c-22.667 0 -42.667 5.33301 -60 16s-32 24.334 -44 41.001s-21.167 35.5 -27.5 56.5s-9.83301 41.833 -10.5 62.5h75c2 -11.333 4.83301 -22.333 8.5 -33
s8.16699 -20.167 13.5 -28.5s11.833 -15.166 19.5 -20.499s16.167 -8 25.5 -8s17.666 2.66699 24.999 8s13.833 12.166 19.5 20.499s10.334 17.833 14.001 28.5s6.5 21.667 8.5 33h73c-0.666992 -20.667 -4 -41.5 -10 -62.5s-14.833 -39.833 -26.5 -56.5
s-26.167 -30.334 -43.5 -41.001s-37.333 -16 -60 -16z" />
    <glyph glyph-name="abreve" unicode="&#x103;" horiz-adv-x="509" 
d="M321 240c-5.33301 9.33301 -14.333 17.167 -27 23.5s-26.667 9.5 -42 9.5c-62.667 0 -94 -25.333 -94 -76c0 -22 8.16699 -39.5 24.5 -52.5s35.833 -19.5 58.5 -19.5c33.333 0 60 12 80 36v79zM322 31.001c-11.333 -11.333 -26.832 -21.001 -46.499 -29.001
s-41.167 -12 -64.5 -12c-25.333 0 -48.833 4.83301 -70.5 14.5s-40.834 23.334 -57.501 41.001s-29.667 39 -39 64s-14 53.167 -14 84.5c0 65.333 18.333 114.333 55 147s85 49 145 49c16 0 32.167 -1.5 48.5 -4.5s31.166 -9.16699 44.499 -18.5
c-4.66699 26.667 -13.667 45.5 -27 56.5s-32.666 16.5 -57.999 16.5c-20.667 0 -38.334 -3.5 -53.001 -10.5s-29 -16.5 -43 -28.5l-58 99c19.333 21.333 43 38.166 71 50.499s58.333 18.5 91 18.5c30.667 0 58.667 -5 84 -15s46.833 -24.167 64.5 -42.5
s31.334 -40.666 41.001 -66.999s14.5 -55.5 14.5 -87.5v-357h-128v31zM255.001 605c-22.667 0 -42.667 5.33301 -60 16s-32 24.334 -44 41.001s-21.167 35.5 -27.5 56.5s-9.83301 41.833 -10.5 62.5h75c2 -11.333 4.83301 -22.333 8.5 -33s8.16699 -20.167 13.5 -28.5
s11.833 -15.166 19.5 -20.499s16.167 -8 25.5 -8s17.666 2.66699 24.999 8s13.833 12.166 19.5 20.499s10.334 17.833 14.001 28.5s6.5 21.667 8.5 33h73c-0.666992 -20.667 -4 -41.5 -10 -62.5s-14.833 -39.833 -26.5 -56.5s-26.167 -30.334 -43.5 -41.001
s-37.333 -16 -60 -16z" />
    <glyph glyph-name="Aogonek" unicode="&#x104;" horiz-adv-x="600" 
d="M617 -222c-13.333 -4.66699 -25.5 -7.66504 -36.5 -8.99805s-25.5 -2 -43.5 -2c-30 0 -55.5 8.66699 -76.5 26s-31.5 44 -31.5 80c0 16 3.33301 31.333 10 46s15.667 28 27 40l-49 175h-235l-37 -134h-139l212 718h164l212 -718
c-11.333 -4.66699 -21.666 -10.834 -30.999 -18.501s-17.333 -15.667 -24 -24s-11.667 -16.666 -15 -24.999s-5 -15.833 -5 -22.5c0 -18.667 5.33301 -30.834 16 -36.501s23.334 -8.5 38.001 -8.5c7.33301 0 16.666 1.16699 27.999 3.5s21.666 6.16602 30.999 11.499z
M216 261.002h166l-84 291z" />
    <glyph glyph-name="aogonek" unicode="&#x105;" horiz-adv-x="509" 
d="M473 -222c-13.333 -4.66699 -25.499 -7.66602 -36.499 -8.99902s-25.5 -2 -43.5 -2c-30 0 -55.5 8.66699 -76.5 26s-31.5 44 -31.5 80c0 15.333 3.33301 30.5 10 45.5s15.667 28.167 27 39.5v73c-11.333 -11.333 -26.833 -21 -46.5 -29s-41.167 -12 -64.5 -12
c-25.333 0 -48.833 4.83301 -70.5 14.5s-40.834 23.334 -57.501 41.001s-29.667 39 -39 64s-14 53.167 -14 84.5c0 65.333 18.333 114.333 55 147s85 49 145 49c16 0 32.167 -1.5 48.5 -4.5s31.166 -9.16699 44.499 -18.5c-4.66699 26.667 -13.667 45.5 -27 56.5
s-32.666 16.5 -57.999 16.5c-20.667 0 -38.334 -3.5 -53.001 -10.5s-29 -16.5 -43 -28.5l-58 99c19.333 21.333 43 38.166 71 50.499s58.333 18.5 91 18.5c30.667 0 58.667 -5 84 -15s46.833 -24.167 64.5 -42.5s31.334 -40.666 41.001 -66.999s14.5 -55.5 14.5 -87.5v-357
c-11.333 -4.66699 -21.666 -10.834 -30.999 -18.501s-17.333 -15.667 -24 -24s-11.667 -16.666 -15 -24.999s-5 -15.833 -5 -22.5c0 -18.667 5.33301 -30.834 16 -36.501s23.334 -8.5 38.001 -8.5c7.33301 0 16.666 1.16699 27.999 3.5s21.666 6.16602 30.999 11.499z
M321.001 240.001c-5.33301 9.33301 -14.333 17.167 -27 23.5s-26.667 9.5 -42 9.5c-62.667 0 -94 -25.333 -94 -76c0 -22 8.16699 -39.5 24.5 -52.5s35.833 -19.5 58.5 -19.5c33.333 0 60 12 80 36v79z" />
    <glyph glyph-name="Cacute" unicode="&#x106;" horiz-adv-x="638" 
d="M476 514c-19.333 26 -39.668 44.666 -61.001 55.999s-45.333 17 -72 17c-50 0 -89 -20.167 -117 -60.5s-42 -95.833 -42 -166.5c0 -33.333 4 -63.833 12 -91.5s19.333 -51.667 34 -72s31.834 -36.166 51.501 -47.499s41.5 -17 65.5 -17c22.667 0 46 6.33301 70 19
s44.333 28 61 46l107 -73c-60 -89.333 -140.667 -134 -242 -134c-43.333 0 -82.833 9.33301 -118.5 28s-66.5 44.5 -92.5 77.5s-46.167 72 -60.5 117s-21.5 94.167 -21.5 147.5c0 52 6.83301 100.5 20.5 145.5s33.167 84 58.5 117s56 58.833 92 77.5s76.667 28 122 28
c111.333 0 194.333 -47.333 249 -142zM526.998 866.999l-214 -131l-43 66l201 150z" />
    <glyph glyph-name="cacute" unicode="&#x107;" horiz-adv-x="498" 
d="M284 -10c-36.667 0 -69.502 7.00293 -98.502 21.0029s-53.5 33.833 -73.5 59.5s-35.333 56.5 -46 92.5s-16 76.333 -16 121c0 40.667 5.66699 78.5 17 113.5s27.333 65.167 48 90.5s45.334 45.166 74.001 59.499s60.334 21.5 95.001 21.5c40 0 72.833 -7.33301 98.5 -22
s47.167 -34.334 64.5 -59.001l-98 -84c-7.33301 12 -16 20.833 -26 26.5s-23 8.5 -39 8.5c-32 0 -57.167 -14 -75.5 -42s-27.5 -66 -27.5 -114c0 -52.667 8.16699 -92.834 24.5 -120.501s42.5 -41.5 78.5 -41.5c27.333 0 52 12.333 74 37l104 -74
c-26 -34 -53 -58.167 -81 -72.5s-60.333 -21.5 -97 -21.5zM456.998 708.003l-214 -131l-43 66l201 150z" />
    <glyph glyph-name="Cdotaccent" unicode="&#x10a;" horiz-adv-x="638" 
d="M476 514c-19.333 26 -39.668 44.666 -61.001 55.999s-45.333 17 -72 17c-50 0 -89 -20.167 -117 -60.5s-42 -95.833 -42 -166.5c0 -33.333 4 -63.833 12 -91.5s19.333 -51.667 34 -72s31.834 -36.166 51.501 -47.499s41.5 -17 65.5 -17c22.667 0 46 6.33301 70 19
s44.333 28 61 46l107 -73c-60 -89.333 -140.667 -134 -242 -134c-43.333 0 -82.833 9.33301 -118.5 28s-66.5 44.5 -92.5 77.5s-46.167 72 -60.5 117s-21.5 94.167 -21.5 147.5c0 52 6.83301 100.5 20.5 145.5s33.167 84 58.5 117s56 58.833 92 77.5s76.667 28 122 28
c111.333 0 194.333 -47.333 249 -142zM348.998 784.999c-21.333 0 -38.001 7.99902 -50.001 23.999s-18 35.333 -18 58c0 24 6 43.833 18 59.5s28.667 23.5 50 23.5c16.667 0 32.167 -7.83301 46.5 -23.5s21.5 -35.5 21.5 -59.5c0 -11.333 -2 -22 -6 -32
s-9.16699 -18.667 -15.5 -26s-13.666 -13.166 -21.999 -17.499s-16.5 -6.5 -24.5 -6.5z" />
    <glyph glyph-name="cdotaccent" unicode="&#x10b;" horiz-adv-x="498" 
d="M284 -10c-36.667 0 -69.502 7.00293 -98.502 21.0029s-53.5 33.833 -73.5 59.5s-35.333 56.5 -46 92.5s-16 76.333 -16 121c0 40.667 5.66699 78.5 17 113.5s27.333 65.167 48 90.5s45.334 45.166 74.001 59.499s60.334 21.5 95.001 21.5c40 0 72.833 -7.33301 98.5 -22
s47.167 -34.334 64.5 -59.001l-98 -84c-7.33301 12 -16 20.833 -26 26.5s-23 8.5 -39 8.5c-32 0 -57.167 -14 -75.5 -42s-27.5 -66 -27.5 -114c0 -52.667 8.16699 -92.834 24.5 -120.501s42.5 -41.5 78.5 -41.5c27.333 0 52 12.333 74 37l104 -74
c-26 -34 -53 -58.167 -81 -72.5s-60.333 -21.5 -97 -21.5zM278.998 626.003c-21.333 0 -38.001 7.99902 -50.001 23.999s-18 35.333 -18 58c0 24 6 43.833 18 59.5s28.667 23.5 50 23.5c16.667 0 32.167 -7.83301 46.5 -23.5s21.5 -35.5 21.5 -59.5c0 -11.333 -2 -22 -6 -32
s-9.16699 -18.667 -15.5 -26s-13.666 -13.166 -21.999 -17.499s-16.5 -6.5 -24.5 -6.5z" />
    <glyph glyph-name="Ccaron" unicode="&#x10c;" horiz-adv-x="638" 
d="M476 514c-19.333 26 -39.668 44.666 -61.001 55.999s-45.333 17 -72 17c-50 0 -89 -20.167 -117 -60.5s-42 -95.833 -42 -166.5c0 -33.333 4 -63.833 12 -91.5s19.333 -51.667 34 -72s31.834 -36.166 51.501 -47.499s41.5 -17 65.5 -17c22.667 0 46 6.33301 70 19
s44.333 28 61 46l107 -73c-60 -89.333 -140.667 -134 -242 -134c-43.333 0 -82.833 9.33301 -118.5 28s-66.5 44.5 -92.5 77.5s-46.167 72 -60.5 117s-21.5 94.167 -21.5 147.5c0 52 6.83301 100.5 20.5 145.5s33.167 84 58.5 117s56 58.833 92 77.5s76.667 28 122 28
c111.333 0 194.333 -47.333 249 -142zM348.998 857.999l112 94l45 -49l-157 -161l-158 161l45 49z" />
    <glyph glyph-name="ccaron" unicode="&#x10d;" horiz-adv-x="498" 
d="M284 -10c-36.667 0 -69.502 7.00293 -98.502 21.0029s-53.5 33.833 -73.5 59.5s-35.333 56.5 -46 92.5s-16 76.333 -16 121c0 40.667 5.66699 78.5 17 113.5s27.333 65.167 48 90.5s45.334 45.166 74.001 59.499s60.334 21.5 95.001 21.5c40 0 72.833 -7.33301 98.5 -22
s47.167 -34.334 64.5 -59.001l-98 -84c-7.33301 12 -16 20.833 -26 26.5s-23 8.5 -39 8.5c-32 0 -57.167 -14 -75.5 -42s-27.5 -66 -27.5 -114c0 -52.667 8.16699 -92.834 24.5 -120.501s42.5 -41.5 78.5 -41.5c27.333 0 52 12.333 74 37l104 -74
c-26 -34 -53 -58.167 -81 -72.5s-60.333 -21.5 -97 -21.5zM278.998 699.003l112 94l45 -49l-157 -161l-158 161l45 49z" />
    <glyph glyph-name="Dcaron" unicode="&#x10e;" horiz-adv-x="647" 
d="M189 591v-462h56c35.333 0 67.166 5.83301 95.499 17.5s52.333 27.834 72 48.501s34.834 45.167 45.501 73.5s16 59.166 16 92.499c0 34 -5.33301 65.167 -16 93.5s-25.834 52.5 -45.501 72.5s-43.667 35.667 -72 47s-60.166 17 -95.499 17h-56zM60 0
l-0.00195312 718.003h208c48.667 0 93.667 -9 135 -27s76.833 -42.833 106.5 -74.5s52.834 -69.334 69.501 -113.001s25 -90.834 25 -141.501c0 -56.667 -8.66699 -107.334 -26 -152.001s-41.166 -82.5 -71.499 -113.5s-66.5 -54.833 -108.5 -71.5s-87.667 -25 -137 -25
h-201zM283.998 858.003l112 94l45 -49l-157 -161l-158 161l45 49z" />
    <glyph glyph-name="dcaron" unicode="&#x10f;" horiz-adv-x="654" 
d="M370 358c-7.33301 20 -19.001 36.501 -35.001 49.501s-33.667 19.5 -53 19.5c-38 0 -64.833 -13.333 -80.5 -40s-23.5 -65 -23.5 -115c0 -46 8.83301 -82 26.5 -108s42.834 -39 75.501 -39c23.333 0 42.5 7.16699 57.5 21.5s25.833 31.166 32.5 50.499v161z
M369.999 38.001c-13.333 -11.333 -28.832 -22.165 -46.499 -32.498s-41.167 -15.5 -70.5 -15.5c-30.667 0 -58.5 6.83301 -83.5 20.5s-46.333 33 -64 58s-31.334 54.833 -41.001 89.5s-14.5 72.667 -14.5 114c0 42 4.83301 81.167 14.5 117.5s23.667 67.666 42 93.999
s40.5 47.166 66.5 62.499s55.667 23 89 23c25.333 0 46.333 -2.5 63 -7.5s31.667 -12.5 45 -22.5v148l128 56v-742h-128v37zM557 564.002c14.667 4 26.001 8.66895 34.001 14.002s13.333 13.666 16 24.999h-2c-21.333 0 -37.833 6.33301 -49.5 19s-17.5 28.667 -17.5 48
s6.16699 35.5 18.5 48.5s29.166 19.5 50.499 19.5c17.333 0 33.333 -6.5 48 -19.5s22 -29.167 22 -48.5c0 -17.333 -2.33301 -33.833 -7 -49.5s-12 -29.834 -22 -42.501s-22.5 -23 -37.5 -31s-32.833 -12.667 -53.5 -14v31z" />
    <glyph glyph-name="Dcroat" unicode="&#x110;" horiz-adv-x="652" 
d="M18 432l46.998 0.00292969v286h208c48.667 0 93.667 -9 135 -27s76.833 -42.833 106.5 -74.5s52.834 -69.334 69.501 -113.001s25 -90.834 25 -141.501c0 -56.667 -8.66699 -107.334 -26 -152.001s-41.166 -82.5 -71.499 -113.5s-66.5 -54.833 -108.5 -71.5
s-87.667 -25 -137 -25h-201v305h-47v127zM193.998 591.003v-159h129v-127h-129v-176h56c35.333 0 67.166 5.83301 95.499 17.5s52.333 27.834 72 48.501s34.834 45.167 45.501 73.5s16 59.166 16 92.499c0 34 -5.33301 65.167 -16 93.5s-25.834 52.5 -45.501 72.5
s-43.667 35.667 -72 47s-60.166 17 -95.499 17h-56z" />
    <glyph glyph-name="dmacron" unicode="&#x111;" horiz-adv-x="558" 
d="M275 687l97.001 0.000976562l126 56v-56h60v-77h-60v-609h-128v37c-13.333 -11.333 -28.833 -22.166 -46.5 -32.499s-41.167 -15.5 -70.5 -15.5c-30.667 0 -58.5 6.83301 -83.5 20.5s-46.333 33 -64 58s-31.334 54.833 -41.001 89.5s-14.5 72.667 -14.5 114
c0 42 4.83301 81.167 14.5 117.5s23.667 67.666 42 93.999s40.5 47.166 66.5 62.499s55.667 23 89 23c25.333 0 46.333 -2.5 63 -7.5s31.667 -12.5 45 -22.5v71h-95v77zM370.001 358.001c-7.33301 20 -19.001 36.501 -35.001 49.501s-33.667 19.5 -53 19.5
c-38 0 -64.833 -13.333 -80.5 -40s-23.5 -65 -23.5 -115c0 -46 8.83301 -82 26.5 -108s42.834 -39 75.501 -39c23.333 0 42.5 7.16699 57.5 21.5s25.833 31.166 32.5 50.499v161z" />
    <glyph glyph-name="Emacron" unicode="&#x112;" horiz-adv-x="512" 
d="M60 718h396v-127h-267v-159h166v-127h-166v-178h267v-127h-396v718zM124 927h283v-77h-283v77z" />
    <glyph glyph-name="emacron" unicode="&#x113;" horiz-adv-x="545" 
d="M282 444c-28 0 -51.334 -10.5 -70.001 -31.5s-29.667 -47.833 -33 -80.5h196c-4 32.667 -14.167 59.5 -30.5 80.5s-37.166 31.5 -62.499 31.5zM178.999 207c2 -14 6.50195 -26.3281 13.502 -36.9951s15.333 -19.834 25 -27.501s20.334 -13.334 32.001 -17.001
s23.5 -5.5 35.5 -5.5c16.667 0 31.667 2.83301 45 8.5s25.666 16.167 36.999 31.5l87 -82c-24.667 -32 -50.667 -54.667 -78 -68s-59 -20 -95 -20c-74.667 0 -131.834 24 -171.501 72s-59.5 117.667 -59.5 209c0 46.667 5.66699 88.5 17 125.5s27.166 68.333 47.499 94
s44.833 45.167 73.5 58.5s60.334 20 95.001 20c32.667 0 62.667 -5.83301 90 -17.5s50.666 -29.334 69.999 -53.001s34.333 -53.334 45 -89.001s16 -77.5 16 -125.5c0 -22.667 -0.333008 -39.834 -1 -51.501s-1.66699 -20.167 -3 -25.5h-321zM131.001 768.005h283v-77h-283
v77z" />
    <glyph glyph-name="Ebreve" unicode="&#x114;" horiz-adv-x="512" 
d="M60 718h396v-127h-267v-159h166v-127h-166v-178h267v-127h-396v718zM267 764c-22.667 0 -42.667 5.33301 -60 16s-32 24.334 -44 41.001s-21.167 35.5 -27.5 56.5s-9.83301 41.833 -10.5 62.5h75c2 -11.333 4.83301 -22.333 8.5 -33s8.16699 -20.167 13.5 -28.5
s11.833 -15.166 19.5 -20.499s16.167 -8 25.5 -8s17.666 2.66699 24.999 8s13.833 12.166 19.5 20.499s10.334 17.833 14.001 28.5s6.5 21.667 8.5 33h73c-0.666992 -20.667 -4 -41.5 -10 -62.5s-14.833 -39.833 -26.5 -56.5s-26.167 -30.334 -43.5 -41.001
s-37.333 -16 -60 -16z" />
    <glyph glyph-name="ebreve" unicode="&#x115;" horiz-adv-x="545" 
d="M282 444c-28 0 -51.334 -10.5 -70.001 -31.5s-29.667 -47.833 -33 -80.5h196c-4 32.667 -14.167 59.5 -30.5 80.5s-37.166 31.5 -62.499 31.5zM178.999 207c2 -14 6.50195 -26.3281 13.502 -36.9951s15.333 -19.834 25 -27.501s20.334 -13.334 32.001 -17.001
s23.5 -5.5 35.5 -5.5c16.667 0 31.667 2.83301 45 8.5s25.666 16.167 36.999 31.5l87 -82c-24.667 -32 -50.667 -54.667 -78 -68s-59 -20 -95 -20c-74.667 0 -131.834 24 -171.501 72s-59.5 117.667 -59.5 209c0 46.667 5.66699 88.5 17 125.5s27.166 68.333 47.499 94
s44.833 45.167 73.5 58.5s60.334 20 95.001 20c32.667 0 62.667 -5.83301 90 -17.5s50.666 -29.334 69.999 -53.001s34.333 -53.334 45 -89.001s16 -77.5 16 -125.5c0 -22.667 -0.333008 -39.834 -1 -51.501s-1.66699 -20.167 -3 -25.5h-321zM273.001 605.005
c-22.667 0 -42.667 5.33301 -60 16s-32 24.334 -44 41.001s-21.167 35.5 -27.5 56.5s-9.83301 41.833 -10.5 62.5h75c2 -11.333 4.83301 -22.333 8.5 -33s8.16699 -20.167 13.5 -28.5s11.833 -15.166 19.5 -20.499s16.167 -8 25.5 -8s17.666 2.66699 24.999 8
s13.833 12.166 19.5 20.499s10.334 17.833 14.001 28.5s6.5 21.667 8.5 33h73c-0.666992 -20.667 -4 -41.5 -10 -62.5s-14.833 -39.833 -26.5 -56.5s-26.167 -30.334 -43.5 -41.001s-37.333 -16 -60 -16z" />
    <glyph glyph-name="Edotaccent" unicode="&#x116;" horiz-adv-x="512" 
d="M60 718h396v-127h-267v-159h166v-127h-166v-178h267v-127h-396v718zM266 785c-21.333 0 -38.001 7.99902 -50.001 23.999s-18 35.333 -18 58c0 24 6 43.833 18 59.5s28.667 23.5 50 23.5c16.667 0 32.167 -7.83301 46.5 -23.5s21.5 -35.5 21.5 -59.5
c0 -11.333 -2 -22 -6 -32s-9.16699 -18.667 -15.5 -26s-13.666 -13.166 -21.999 -17.499s-16.5 -6.5 -24.5 -6.5z" />
    <glyph glyph-name="edotaccent" unicode="&#x117;" horiz-adv-x="545" 
d="M282 444c-28 0 -51.334 -10.5 -70.001 -31.5s-29.667 -47.833 -33 -80.5h196c-4 32.667 -14.167 59.5 -30.5 80.5s-37.166 31.5 -62.499 31.5zM178.999 207c2 -14 6.50195 -26.3281 13.502 -36.9951s15.333 -19.834 25 -27.501s20.334 -13.334 32.001 -17.001
s23.5 -5.5 35.5 -5.5c16.667 0 31.667 2.83301 45 8.5s25.666 16.167 36.999 31.5l87 -82c-24.667 -32 -50.667 -54.667 -78 -68s-59 -20 -95 -20c-74.667 0 -131.834 24 -171.501 72s-59.5 117.667 -59.5 209c0 46.667 5.66699 88.5 17 125.5s27.166 68.333 47.499 94
s44.833 45.167 73.5 58.5s60.334 20 95.001 20c32.667 0 62.667 -5.83301 90 -17.5s50.666 -29.334 69.999 -53.001s34.333 -53.334 45 -89.001s16 -77.5 16 -125.5c0 -22.667 -0.333008 -39.834 -1 -51.501s-1.66699 -20.167 -3 -25.5h-321zM272.001 626.005
c-21.333 0 -38.001 7.99902 -50.001 23.999s-18 35.333 -18 58c0 24 6 43.833 18 59.5s28.667 23.5 50 23.5c16.667 0 32.167 -7.83301 46.5 -23.5s21.5 -35.5 21.5 -59.5c0 -11.333 -2 -22 -6 -32s-9.16699 -18.667 -15.5 -26s-13.666 -13.166 -21.999 -17.499
s-16.5 -6.5 -24.5 -6.5z" />
    <glyph glyph-name="Eogonek" unicode="&#x118;" horiz-adv-x="512" 
d="M60 718h396.001v-127h-267v-159h166v-127h-166v-178h267v-127c-11.333 -4.66699 -21.666 -10.834 -30.999 -18.501s-17.333 -15.667 -24 -24s-11.667 -16.666 -15 -24.999s-5 -15.833 -5 -22.5c0 -18.667 5.33301 -30.834 16 -36.501s23.334 -8.5 38.001 -8.5
c7.33301 0 16.666 1.16699 27.999 3.5s21.666 6.16602 30.999 11.499l-15 -102c-13.333 -4.66699 -25.5 -7.66699 -36.5 -9s-25.5 -2 -43.5 -2c-30 0 -55.5 8.66699 -76.5 26s-31.5 44 -31.5 80c0 14.667 3 28.834 9 42.501s13.833 26.334 23.5 38.001s20.667 21.5 33 29.5
s25.166 13.667 38.499 17h-335v718z" />
    <glyph glyph-name="eogonek" unicode="&#x119;" horiz-adv-x="545" 
d="M371 -222c-13.333 -4.66699 -25.4971 -7.65918 -36.4971 -8.99219s-25.5 -2 -43.5 -2c-30 0 -55.5 8.66699 -76.5 26s-31.5 44 -31.5 80c0 24.667 7.83301 47.667 23.5 69s34.167 37.666 55.5 48.999c-68.667 4 -121.167 29.667 -157.5 77s-54.5 115 -54.5 203
c0 46.667 5.66699 88.5 17 125.5s27.166 68.333 47.499 94s44.833 45.167 73.5 58.5s60.334 20 95.001 20c32.667 0 62.667 -5.83301 90 -17.5s50.666 -29.334 69.999 -53.001s34.333 -53.334 45 -89.001s16 -77.5 16 -125.5c0 -22.667 -0.333008 -39.834 -1 -51.501
s-1.66699 -20.167 -3 -25.5h-321c2 -14 6.5 -26.333 13.5 -37s15.333 -19.834 25 -27.501s20.334 -13.334 32.001 -17.001s23.5 -5.5 35.5 -5.5c16.667 0 31.667 2.83301 45 8.5s25.666 16.167 36.999 31.5l87 -82c-17.333 -22 -35.333 -39.333 -54 -52s-38 -22 -58 -28
c-11.333 -3.33301 -21.333 -8.66602 -30 -15.999s-15.834 -15.333 -21.501 -24s-10 -17.334 -13 -26.001s-4.5 -16 -4.5 -22c0 -18.667 5.33301 -30.834 16 -36.501s23.334 -8.5 38.001 -8.5c7.33301 0 16.666 1.16699 27.999 3.5s21.666 6.16602 30.999 11.499z
M282.003 444.008c-28 0 -51.334 -10.5 -70.001 -31.5s-29.667 -47.833 -33 -80.5h196c-4 32.667 -14.167 59.5 -30.5 80.5s-37.166 31.5 -62.499 31.5z" />
    <glyph glyph-name="Ecaron" unicode="&#x11a;" horiz-adv-x="512" 
d="M60 718h396v-127h-267v-159h166v-127h-166v-178h267v-127h-396v718zM266 858l112 94l45 -49l-157 -161l-158 161l45 49z" />
    <glyph glyph-name="ecaron" unicode="&#x11b;" horiz-adv-x="545" 
d="M282 444c-28 0 -51.334 -10.5 -70.001 -31.5s-29.667 -47.833 -33 -80.5h196c-4 32.667 -14.167 59.5 -30.5 80.5s-37.166 31.5 -62.499 31.5zM178.999 207c2 -14 6.50195 -26.3281 13.502 -36.9951s15.333 -19.834 25 -27.501s20.334 -13.334 32.001 -17.001
s23.5 -5.5 35.5 -5.5c16.667 0 31.667 2.83301 45 8.5s25.666 16.167 36.999 31.5l87 -82c-24.667 -32 -50.667 -54.667 -78 -68s-59 -20 -95 -20c-74.667 0 -131.834 24 -171.501 72s-59.5 117.667 -59.5 209c0 46.667 5.66699 88.5 17 125.5s27.166 68.333 47.499 94
s44.833 45.167 73.5 58.5s60.334 20 95.001 20c32.667 0 62.667 -5.83301 90 -17.5s50.666 -29.334 69.999 -53.001s34.333 -53.334 45 -89.001s16 -77.5 16 -125.5c0 -22.667 -0.333008 -39.834 -1 -51.501s-1.66699 -20.167 -3 -25.5h-321zM273.001 699.005l112 94l45 -49
l-157 -161l-158 161l45 49z" />
    <glyph glyph-name="Gbreve" unicode="&#x11e;" horiz-adv-x="665" 
d="M341 -10c-43.333 0 -83.002 9.5 -119.002 28.5s-66.667 45 -92 78s-45 72 -59 117s-21 93.833 -21 146.5c0 56.667 6.33301 107.667 19 153s31.334 84 56.001 116s55 56.5 91 73.5s77.667 25.5 125 25.5c56 0 104 -10.833 144 -32.5s76 -58.834 108 -111.501l-123 -82
c-6.66699 13.333 -15 25.5 -25 36.5s-20.833 20.5 -32.5 28.5s-23.667 14.167 -36 18.5s-24.166 6.5 -35.499 6.5c-105.333 0 -158 -77.333 -158 -232c0 -34.667 3.66699 -66.5 11 -95.5s18 -54 32 -75s30.667 -37.5 50 -49.5s41 -18 65 -18c36 0 65.5 10.5 88.5 31.5
s37.167 51.5 42.5 91.5h-133v128h283v-58c0 -41.333 -7.16699 -81.5 -21.5 -120.5s-34 -73.667 -59 -104s-54.667 -54.666 -89 -72.999s-71.5 -27.5 -111.5 -27.5zM342.998 764c-22.667 0 -42.667 5.33301 -60 16s-32 24.334 -44 41.001s-21.167 35.5 -27.5 56.5
s-9.83301 41.833 -10.5 62.5h75c2 -11.333 4.83301 -22.333 8.5 -33s8.16699 -20.167 13.5 -28.5s11.833 -15.166 19.5 -20.499s16.167 -8 25.5 -8s17.666 2.66699 24.999 8s13.833 12.166 19.5 20.499s10.334 17.833 14.001 28.5s6.5 21.667 8.5 33h73
c-0.666992 -20.667 -4 -41.5 -10 -62.5s-14.833 -39.833 -26.5 -56.5s-26.167 -30.334 -43.5 -41.001s-37.333 -16 -60 -16z" />
    <glyph glyph-name="gbreve" unicode="&#x11f;" horiz-adv-x="548" 
d="M358 383c-6 20 -15.5 34.168 -28.5 42.501s-27.833 12.5 -44.5 12.5c-38 0 -65.333 -12.833 -82 -38.5s-25 -63.5 -25 -113.5c0 -52.667 7.5 -92.834 22.5 -120.501s39.5 -41.5 73.5 -41.5c41.333 0 69.333 15.333 84 46v213zM235 -98.999
c32 5.33301 58.834 17.833 80.501 37.5s34.834 46.5 39.501 80.5c-9.33301 -7.33301 -22 -13.166 -38 -17.499s-36 -6.5 -60 -6.5c-36.667 0 -68.334 7.66699 -95.001 23s-48.5 36.166 -65.5 62.499s-29.667 57.333 -38 93s-12.5 73.834 -12.5 114.501
c0 38.667 5.5 75 16.5 109s26 63.667 45 89s41.667 45.333 68 60s54.833 22 85.5 22c19.333 0 36.833 -2.83301 52.5 -8.5s30.5 -13.834 44.5 -24.501v24h128v-507c0 -32.667 -5 -65 -15 -97s-24.667 -61.167 -44 -87.5s-43.333 -48.5 -72 -66.5
s-61.334 -29.333 -98.001 -34zM275.001 605.001c-22.667 0 -42.667 5.33301 -60 16s-32 24.334 -44 41.001s-21.167 35.5 -27.5 56.5s-9.83301 41.833 -10.5 62.5h75c2 -11.333 4.83301 -22.333 8.5 -33s8.16699 -20.167 13.5 -28.5s11.833 -15.166 19.5 -20.499
s16.167 -8 25.5 -8s17.666 2.66699 24.999 8s13.833 12.166 19.5 20.499s10.334 17.833 14.001 28.5s6.5 21.667 8.5 33h73c-0.666992 -20.667 -4 -41.5 -10 -62.5s-14.833 -39.833 -26.5 -56.5s-26.167 -30.334 -43.5 -41.001s-37.333 -16 -60 -16z" />
    <glyph glyph-name="Gdotaccent" unicode="&#x120;" horiz-adv-x="665" 
d="M341 -10c-43.333 0 -83.002 9.5 -119.002 28.5s-66.667 45 -92 78s-45 72 -59 117s-21 93.833 -21 146.5c0 56.667 6.33301 107.667 19 153s31.334 84 56.001 116s55 56.5 91 73.5s77.667 25.5 125 25.5c56 0 104 -10.833 144 -32.5s76 -58.834 108 -111.501l-123 -82
c-6.66699 13.333 -15 25.5 -25 36.5s-20.833 20.5 -32.5 28.5s-23.667 14.167 -36 18.5s-24.166 6.5 -35.499 6.5c-105.333 0 -158 -77.333 -158 -232c0 -34.667 3.66699 -66.5 11 -95.5s18 -54 32 -75s30.667 -37.5 50 -49.5s41 -18 65 -18c36 0 65.5 10.5 88.5 31.5
s37.167 51.5 42.5 91.5h-133v128h283v-58c0 -41.333 -7.16699 -81.5 -21.5 -120.5s-34 -73.667 -59 -104s-54.667 -54.666 -89 -72.999s-71.5 -27.5 -111.5 -27.5zM341.998 785c-21.333 0 -38.001 7.99902 -50.001 23.999s-18 35.333 -18 58c0 24 6 43.833 18 59.5
s28.667 23.5 50 23.5c16.667 0 32.167 -7.83301 46.5 -23.5s21.5 -35.5 21.5 -59.5c0 -11.333 -2 -22 -6 -32s-9.16699 -18.667 -15.5 -26s-13.666 -13.166 -21.999 -17.499s-16.5 -6.5 -24.5 -6.5z" />
    <glyph glyph-name="gdotaccent" unicode="&#x121;" horiz-adv-x="548" 
d="M358 383c-6 20 -15.5 34.168 -28.5 42.501s-27.833 12.5 -44.5 12.5c-38 0 -65.333 -12.833 -82 -38.5s-25 -63.5 -25 -113.5c0 -52.667 7.5 -92.834 22.5 -120.501s39.5 -41.5 73.5 -41.5c41.333 0 69.333 15.333 84 46v213zM235 -98.999
c32 5.33301 58.834 17.833 80.501 37.5s34.834 46.5 39.501 80.5c-9.33301 -7.33301 -22 -13.166 -38 -17.499s-36 -6.5 -60 -6.5c-36.667 0 -68.334 7.66699 -95.001 23s-48.5 36.166 -65.5 62.499s-29.667 57.333 -38 93s-12.5 73.834 -12.5 114.501
c0 38.667 5.5 75 16.5 109s26 63.667 45 89s41.667 45.333 68 60s54.833 22 85.5 22c19.333 0 36.833 -2.83301 52.5 -8.5s30.5 -13.834 44.5 -24.501v24h128v-507c0 -32.667 -5 -65 -15 -97s-24.667 -61.167 -44 -87.5s-43.333 -48.5 -72 -66.5
s-61.334 -29.333 -98.001 -34zM274.001 626.001c-21.333 0 -38.001 7.99902 -50.001 23.999s-18 35.333 -18 58c0 24 6 43.833 18 59.5s28.667 23.5 50 23.5c16.667 0 32.167 -7.83301 46.5 -23.5s21.5 -35.5 21.5 -59.5c0 -11.333 -2 -22 -6 -32
s-9.16699 -18.667 -15.5 -26s-13.666 -13.166 -21.999 -17.499s-16.5 -6.5 -24.5 -6.5z" />
    <glyph glyph-name="Gcommaaccent" unicode="&#x122;" horiz-adv-x="665" 
d="M341 -10c-43.333 0 -83.002 9.5 -119.002 28.5s-66.667 45 -92 78s-45 72 -59 117s-21 93.833 -21 146.5c0 56.667 6.33301 107.667 19 153s31.334 84 56.001 116s55 56.5 91 73.5s77.667 25.5 125 25.5c56 0 104 -10.833 144 -32.5s76 -58.834 108 -111.501l-123 -82
c-6.66699 13.333 -15 25.5 -25 36.5s-20.833 20.5 -32.5 28.5s-23.667 14.167 -36 18.5s-24.166 6.5 -35.499 6.5c-105.333 0 -158 -77.333 -158 -232c0 -34.667 3.66699 -66.5 11 -95.5s18 -54 32 -75s30.667 -37.5 50 -49.5s41 -18 65 -18c36 0 65.5 10.5 88.5 31.5
s37.167 51.5 42.5 91.5h-133v128h283v-58c0 -41.333 -7.16699 -81.5 -21.5 -120.5s-34 -73.667 -59 -104s-54.667 -54.666 -89 -72.999s-71.5 -27.5 -111.5 -27.5zM279.998 -202c14.667 4 26.001 8.66895 34.001 14.002s13.333 13.666 16 24.999h-2
c-21.333 0 -37.833 6.33301 -49.5 19s-17.5 28.667 -17.5 48s6.16699 35.5 18.5 48.5s29.166 19.5 50.499 19.5c17.333 0 33.333 -6.5 48 -19.5s22 -29.167 22 -48.5c0 -17.333 -2.33301 -33.833 -7 -49.5s-12 -29.834 -22 -42.501s-22.5 -23 -37.5 -31
s-32.833 -12.667 -53.5 -14v31z" />
    <glyph glyph-name="gcommaaccent" unicode="&#x123;" horiz-adv-x="548" 
d="M358 383c-6 20 -15.5 34.168 -28.5 42.501s-27.833 12.5 -44.5 12.5c-38 0 -65.333 -12.833 -82 -38.5s-25 -63.5 -25 -113.5c0 -52.667 7.5 -92.834 22.5 -120.501s39.5 -41.5 73.5 -41.5c41.333 0 69.333 15.333 84 46v213zM235 -98.999
c32 5.33301 58.834 17.833 80.501 37.5s34.834 46.5 39.501 80.5c-9.33301 -7.33301 -22 -13.166 -38 -17.499s-36 -6.5 -60 -6.5c-36.667 0 -68.334 7.66699 -95.001 23s-48.5 36.166 -65.5 62.499s-29.667 57.333 -38 93s-12.5 73.834 -12.5 114.501
c0 38.667 5.5 75 16.5 109s26 63.667 45 89s41.667 45.333 68 60s54.833 22 85.5 22c19.333 0 36.833 -2.83301 52.5 -8.5s30.5 -13.834 44.5 -24.501v24h128v-507c0 -32.667 -5 -65 -15 -97s-24.667 -61.167 -44 -87.5s-43.333 -48.5 -72 -66.5
s-61.334 -29.333 -98.001 -34zM322.005 779.988c-14.666 -3.99902 -25.9971 -8.66504 -33.9961 -13.998s-13.332 -13.666 -15.999 -24.999h2c21.332 0 37.8311 -6.33301 49.4971 -18.999c11.665 -12.666 17.498 -28.665 17.498 -47.9971s-6.16602 -35.498 -18.498 -48.4971
c-12.333 -12.999 -29.165 -19.499 -50.4971 -19.499c-17.333 0 -33.332 6.5 -47.9971 19.499c-14.666 12.999 -21.999 29.165 -21.999 48.4971c0 17.332 2.33301 33.8311 7 49.4971c4.66602 15.665 11.999 29.8311 21.998 42.4971s22.498 22.999 37.4971 30.998
c14.999 8 32.8311 12.666 53.4961 13.999v-30.998z" />
    <glyph glyph-name="Hbar" unicode="&#x126;" horiz-adv-x="618" 
d="M0 620h60v98h129v-98h241v98h128v-98h60v-88h-60v-532h-128v305h-241v-305h-129v532h-60v88zM430 432v100h-241v-100h241z" />
    <glyph glyph-name="hbar" unicode="&#x127;" horiz-adv-x="530" 
d="M0 687l61.998 -0.000976562l127 56v-56h94v-77h-94v-92c28 34 66.333 51 115 51c28 0 53 -5 75 -15s40.5 -24.167 55.5 -42.5s26.333 -40.333 34 -66s11.5 -54.167 11.5 -85.5v-360h-128v350c0 24.667 -6.5 45.834 -19.5 63.501s-34.167 26.5 -63.5 26.5
c-19.333 0 -36.166 -5.5 -50.499 -16.5s-24.166 -25.5 -29.499 -43.5v-380h-129v610h-60v77z" />
    <glyph glyph-name="Imacron" unicode="&#x12a;" horiz-adv-x="257" 
d="M64 718h129v-718h-129v718zM-12 927h283v-77h-283v77z" />
    <glyph glyph-name="imacron" unicode="&#x12b;" horiz-adv-x="261" 
d="M66 559h129v-559h-129v559zM-10 768h283v-77h-283v77z" />
    <glyph glyph-name="Ibreve" unicode="&#x12c;" horiz-adv-x="257" 
d="M64 718h129v-718h-129v718zM131 764c-22.667 0 -42.667 5.33301 -60 16s-32 24.334 -44 41.001s-21.167 35.5 -27.5 56.5s-9.83301 41.833 -10.5 62.5h75c2 -11.333 4.83301 -22.333 8.5 -33s8.16699 -20.167 13.5 -28.5s11.833 -15.166 19.5 -20.499s16.167 -8 25.5 -8
s17.666 2.66699 24.999 8s13.833 12.166 19.5 20.499s10.334 17.833 14.001 28.5s6.5 21.667 8.5 33h73c-0.666992 -20.667 -4 -41.5 -10 -62.5s-14.833 -39.833 -26.5 -56.5s-26.167 -30.334 -43.5 -41.001s-37.333 -16 -60 -16z" />
    <glyph glyph-name="ibreve" unicode="&#x12d;" horiz-adv-x="246" 
d="M59 559h129v-559h-129v559zM125 605c-22.667 0 -42.667 5.33301 -60 16s-32 24.334 -44 41.001s-21.167 35.5 -27.5 56.5s-9.83301 41.833 -10.5 62.5h75c2 -11.333 4.83301 -22.333 8.5 -33s8.16699 -20.167 13.5 -28.5s11.833 -15.166 19.5 -20.499s16.167 -8 25.5 -8
s17.666 2.66699 24.999 8s13.833 12.166 19.5 20.499s10.334 17.833 14.001 28.5s6.5 21.667 8.5 33h73c-0.666992 -20.667 -4 -41.5 -10 -62.5s-14.833 -39.833 -26.5 -56.5s-26.167 -30.334 -43.5 -41.001s-37.333 -16 -60 -16z" />
    <glyph glyph-name="Iogonek" unicode="&#x12e;" horiz-adv-x="257" 
d="M216 -222c-13.333 -4.66699 -25.5 -7.66504 -36.5 -8.99805s-25.5 -2 -43.5 -2c-30 0 -55.5 8.66699 -76.5 26s-31.5 44 -31.5 80c0 32 12 60 36 84v761h129v-718c-11.333 -4.66699 -21.666 -10.834 -30.999 -18.501s-17.333 -15.667 -24 -24
s-11.667 -16.666 -15 -24.999s-5 -15.833 -5 -22.5c0 -18.667 5.33301 -30.834 16 -36.501s23.334 -8.5 38.001 -8.5c7.33301 0 16.666 1.16699 27.999 3.5s21.666 6.16602 30.999 11.499z" />
    <glyph glyph-name="iogonek" unicode="&#x12f;" horiz-adv-x="246" 
d="M211 -222c-13.333 -4.66699 -25.5 -7.66504 -36.5 -8.99805s-25.5 -2 -43.5 -2c-30 0 -55.5 8.66699 -76.5 26s-31.5 44 -31.5 80c0 32 12 60 36 84v602h129v-559c-11.333 -4.66699 -21.666 -10.834 -30.999 -18.501s-17.333 -15.667 -24 -24
s-11.667 -16.666 -15 -24.999s-5 -15.833 -5 -22.5c0 -18.667 5.33301 -30.834 16 -36.501s23.334 -8.5 38.001 -8.5c7.33301 0 16.666 1.16699 27.999 3.5s21.666 6.16602 30.999 11.499zM124 590.002c-22 0 -39.168 7.66699 -51.501 23s-18.5 34.666 -18.5 57.999
c0 24 6.16699 43.833 18.5 59.5s29.5 23.5 51.5 23.5c18.667 0 34.834 -7.83301 48.501 -23.5s20.5 -35.5 20.5 -59.5c0 -23.333 -7 -42.666 -21 -57.999s-30 -23 -48 -23z" />
    <glyph glyph-name="Idotaccent" unicode="&#x130;" horiz-adv-x="257" 
d="M64 718h129v-718h-129v718zM128 785c-21.333 0 -38.001 7.99902 -50.001 23.999s-18 35.333 -18 58c0 24 6 43.833 18 59.5s28.667 23.5 50 23.5c16.667 0 32.167 -7.83301 46.5 -23.5s21.5 -35.5 21.5 -59.5c0 -11.333 -2 -22 -6 -32s-9.16699 -18.667 -15.5 -26
s-13.666 -13.166 -21.999 -17.499s-16.5 -6.5 -24.5 -6.5z" />
    <glyph glyph-name="dotlessi" unicode="&#x131;" horiz-adv-x="246" 
d="M59 559h129v-559h-129v559z" />
    <glyph glyph-name="IJ" unicode="&#x132;" horiz-adv-x="649" 
d="M64 718h129v-718h-129v718zM595 718l-0.000976562 -453c0 -35.333 -5.5 -69.333 -16.5 -102s-27 -61.5 -48 -86.5s-46.333 -44.833 -76 -59.5s-63.167 -22 -100.5 -22c-25.333 0 -45.666 1.16699 -60.999 3.5s-27.333 5.5 -36 9.5l13 120
c16.667 -4.66699 37.667 -7 63 -7c42 0 74.667 11.5 98 34.5s35 61.833 35 116.5v446h129z" />
    <glyph glyph-name="ij" unicode="&#x133;" horiz-adv-x="511" 
d="M124 590c-22 0 -39.168 7.66699 -51.501 23s-18.5 34.666 -18.5 57.999c0 24 6.16699 43.833 18.5 59.5s29.5 23.5 51.5 23.5c18.667 0 34.834 -7.83301 48.501 -23.5s20.5 -35.5 20.5 -59.5c0 -23.333 -7 -42.666 -21 -57.999s-30 -23 -48 -23zM58.999 559h129v-559
h-129v559zM387.999 590c-18.667 0 -35 7.66699 -49 23s-21 34.666 -21 57.999c0 24 7 43.833 21 59.5s30.333 23.5 49 23.5c22 0 39.167 -7.83301 51.5 -23.5s18.5 -35.5 18.5 -59.5c0 -23.333 -6.33301 -42.666 -19 -57.999s-29.667 -23 -51 -23zM247.999 -109
c28 7.33301 47.667 20.667 59 40s17 50 17 92v536h127v-559c0 -62 -16 -114 -48 -156s-80.333 -67.667 -145 -77z" />
    <glyph glyph-name="Kcommaaccent" unicode="&#x136;" horiz-adv-x="584" 
d="M275 279l-86 -129v-150h-129v718h129v-345l226 345h154l-211 -312l224 -406h-147zM257 -202c14.667 4 26.001 8.66895 34.001 14.002s13.333 13.666 16 24.999h-2c-21.333 0 -37.833 6.33301 -49.5 19s-17.5 28.667 -17.5 48s6.16699 35.5 18.5 48.5
s29.166 19.5 50.499 19.5c17.333 0 33.333 -6.5 48 -19.5s22 -29.167 22 -48.5c0 -17.333 -2.33301 -33.833 -7 -49.5s-12 -29.834 -22 -42.501s-22.5 -23 -37.5 -31s-32.833 -12.667 -53.5 -14v31z" />
    <glyph glyph-name="kcommaaccent" unicode="&#x137;" horiz-adv-x="501" 
d="M230 239l-41 -50v-189h-129v687l129 56v-359l136 175h158l-165 -217l173 -342h-144zM221 -202c14.667 4 26.001 8.66895 34.001 14.002s13.333 13.666 16 24.999h-2c-21.333 0 -37.833 6.33301 -49.5 19s-17.5 28.667 -17.5 48s6.16699 35.5 18.5 48.5
s29.166 19.5 50.499 19.5c17.333 0 33.333 -6.5 48 -19.5s22 -29.167 22 -48.5c0 -17.333 -2.33301 -33.833 -7 -49.5s-12 -29.834 -22 -42.501s-22.5 -23 -37.5 -31s-32.833 -12.667 -53.5 -14v31z" />
    <glyph glyph-name="Lacute" unicode="&#x139;" horiz-adv-x="495" 
d="M60 718h129v-591h288v-127h-417v718zM351 867l-214 -131l-43 66l201 150z" />
    <glyph glyph-name="lacute" unicode="&#x13a;" horiz-adv-x="248" 
d="M60 687l128 56v-743h-128v687zM302 867l-214 -131l-43 66l201 150z" />
    <glyph glyph-name="Lcommaaccent" unicode="&#x13b;" horiz-adv-x="495" 
d="M60 718h129v-591h288v-127h-417v718zM213 -202c14.667 4 26.001 8.66895 34.001 14.002s13.333 13.666 16 24.999h-2c-21.333 0 -37.833 6.33301 -49.5 19s-17.5 28.667 -17.5 48s6.16699 35.5 18.5 48.5s29.166 19.5 50.499 19.5c17.333 0 33.333 -6.5 48 -19.5
s22 -29.167 22 -48.5c0 -17.333 -2.33301 -33.833 -7 -49.5s-12 -29.834 -22 -42.501s-22.5 -23 -37.5 -31s-32.833 -12.667 -53.5 -14v31z" />
    <glyph glyph-name="lcommaaccent" unicode="&#x13c;" horiz-adv-x="248" 
d="M60 687l128 56v-743h-128v687zM73 -202c14.667 4 26.001 8.66895 34.001 14.002s13.333 13.666 16 24.999h-2c-21.333 0 -37.833 6.33301 -49.5 19s-17.5 28.667 -17.5 48s6.16699 35.5 18.5 48.5s29.166 19.5 50.499 19.5c17.333 0 33.333 -6.5 48 -19.5
s22 -29.167 22 -48.5c0 -17.333 -2.33301 -33.833 -7 -49.5s-12 -29.834 -22 -42.501s-22.5 -23 -37.5 -31s-32.833 -12.667 -53.5 -14v31z" />
    <glyph glyph-name="Lcaron" unicode="&#x13d;" horiz-adv-x="495" 
d="M60 718h129v-591h288v-127h-417v718zM247 564c14.667 4 26.001 8.66895 34.001 14.002s13.333 13.666 16 24.999h-2c-21.333 0 -37.833 6.33301 -49.5 19s-17.5 28.667 -17.5 48s6.16699 35.5 18.5 48.5s29.166 19.5 50.499 19.5c17.333 0 33.333 -6.5 48 -19.5
s22 -29.167 22 -48.5c0 -17.333 -2.33301 -33.833 -7 -49.5s-12 -29.834 -22 -42.501s-22.5 -23 -37.5 -31s-32.833 -12.667 -53.5 -14v31z" />
    <glyph glyph-name="lcaron" unicode="&#x13e;" horiz-adv-x="345" 
d="M60 687l128 56v-743h-128v687zM247 564c14.667 4 26.001 8.66895 34.001 14.002s13.333 13.666 16 24.999h-2c-21.333 0 -37.833 6.33301 -49.5 19s-17.5 28.667 -17.5 48s6.16699 35.5 18.5 48.5s29.166 19.5 50.499 19.5c17.333 0 33.333 -6.5 48 -19.5
s22 -29.167 22 -48.5c0 -17.333 -2.33301 -33.833 -7 -49.5s-12 -29.834 -22 -42.501s-22.5 -23 -37.5 -31s-32.833 -12.667 -53.5 -14v31z" />
    <glyph glyph-name="Ldot" unicode="&#x13f;" horiz-adv-x="495" 
d="M60 718h129v-591h288v-127h-417v718zM287 321c-21.333 0 -38.001 7.99902 -50.001 23.999s-18 35.333 -18 58c0 24 6 43.833 18 59.5s28.667 23.5 50 23.5c16.667 0 32.167 -7.83301 46.5 -23.5s21.5 -35.5 21.5 -59.5c0 -11.333 -2 -22 -6 -32
s-9.16699 -18.667 -15.5 -26s-13.666 -13.166 -21.999 -17.499s-16.5 -6.5 -24.5 -6.5z" />
    <glyph glyph-name="ldot" unicode="&#x140;" horiz-adv-x="327" 
d="M60 687l128 56v-743h-128v687zM287 325c-21.333 0 -38.001 7.99902 -50.001 23.999s-18 35.333 -18 58c0 24 6 43.833 18 59.5s28.667 23.5 50 23.5c16.667 0 32.167 -7.83301 46.5 -23.5s21.5 -35.5 21.5 -59.5c0 -11.333 -2 -22 -6 -32s-9.16699 -18.667 -15.5 -26
s-13.666 -13.166 -21.999 -17.499s-16.5 -6.5 -24.5 -6.5z" />
    <glyph glyph-name="Lslash" unicode="&#x141;" horiz-adv-x="497" 
d="M15 450l47 24v244h129v-178l177 91v-127l-177 -91v-286h288v-127h-417v347l-47 -24v127z" />
    <glyph glyph-name="lslash" unicode="&#x142;" horiz-adv-x="288" 
d="M5 520l71 25v142l128 56v-151l78 28v-127l-78 -28v-465h-128v418l-71 -25v127z" />
    <glyph glyph-name="Nacute" unicode="&#x143;" horiz-adv-x="627" 
d="M188 474v-474h-128v718h148l231 -453v453h128v-718h-138zM492 867l-214 -131l-43 66l201 150z" />
    <glyph glyph-name="nacute" unicode="&#x144;" horiz-adv-x="530" 
d="M352 350c0 24.667 -6.50098 45.833 -19.501 63.5s-34.167 26.5 -63.5 26.5c-19.333 0 -36.166 -5.5 -50.499 -16.5s-24.166 -25.5 -29.499 -43.5v-380h-129v559h129v-41c28 34 66.333 51 115 51c30.667 0 57.167 -5 79.5 -15s40.666 -24.167 54.999 -42.5
s24.833 -40.333 31.5 -66s10 -54.167 10 -85.5v-360h-128v350zM442.999 707.999l-214 -131l-43 66l201 150z" />
    <glyph glyph-name="Ncommaaccent" unicode="&#x145;" horiz-adv-x="627" 
d="M188 474v-474h-128v718h148l231 -453v453h128v-718h-138zM263 -202c14.667 4 26.001 8.66895 34.001 14.002s13.333 13.666 16 24.999h-2c-21.333 0 -37.833 6.33301 -49.5 19s-17.5 28.667 -17.5 48s6.16699 35.5 18.5 48.5s29.166 19.5 50.499 19.5
c17.333 0 33.333 -6.5 48 -19.5s22 -29.167 22 -48.5c0 -17.333 -2.33301 -33.833 -7 -49.5s-12 -29.834 -22 -42.501s-22.5 -23 -37.5 -31s-32.833 -12.667 -53.5 -14v31z" />
    <glyph glyph-name="ncommaaccent" unicode="&#x146;" horiz-adv-x="530" 
d="M352 350c0 24.667 -6.50098 45.833 -19.501 63.5s-34.167 26.5 -63.5 26.5c-19.333 0 -36.166 -5.5 -50.499 -16.5s-24.166 -25.5 -29.499 -43.5v-380h-129v559h129v-41c28 34 66.333 51 115 51c30.667 0 57.167 -5 79.5 -15s40.666 -24.167 54.999 -42.5
s24.833 -40.333 31.5 -66s10 -54.167 10 -85.5v-360h-128v350zM213.999 -202.001c14.667 4 26.001 8.66895 34.001 14.002s13.333 13.666 16 24.999h-2c-21.333 0 -37.833 6.33301 -49.5 19s-17.5 28.667 -17.5 48s6.16699 35.5 18.5 48.5s29.166 19.5 50.499 19.5
c17.333 0 33.333 -6.5 48 -19.5s22 -29.167 22 -48.5c0 -17.333 -2.33301 -33.833 -7 -49.5s-12 -29.834 -22 -42.501s-22.5 -23 -37.5 -31s-32.833 -12.667 -53.5 -14v31z" />
    <glyph glyph-name="Ncaron" unicode="&#x147;" horiz-adv-x="627" 
d="M188 474v-474h-128v718h148l231 -453v453h128v-718h-138zM314 858l112 94l45 -49l-157 -161l-158 161l45 49z" />
    <glyph glyph-name="ncaron" unicode="&#x148;" horiz-adv-x="530" 
d="M352 350c0 24.667 -6.50098 45.833 -19.501 63.5s-34.167 26.5 -63.5 26.5c-19.333 0 -36.166 -5.5 -50.499 -16.5s-24.166 -25.5 -29.499 -43.5v-380h-129v559h129v-41c28 34 66.333 51 115 51c30.667 0 57.167 -5 79.5 -15s40.666 -24.167 54.999 -42.5
s24.833 -40.333 31.5 -66s10 -54.167 10 -85.5v-360h-128v350zM264.999 698.999l112 94l45 -49l-157 -161l-158 161l45 49z" />
    <glyph glyph-name="Eng" unicode="&#x14a;" horiz-adv-x="627" 
d="M364 -109c23.333 6 40.832 16.332 52.499 30.999s18.834 36.334 21.501 65.001l-250 487v-474h-128v718h148l231 -453v453h128v-718c0 -62 -16 -114 -48 -156s-80.333 -67.667 -145 -77z" />
    <glyph glyph-name="eng" unicode="&#x14b;" horiz-adv-x="530" 
d="M276 -109c28 7.33301 47.666 20.666 58.999 39.999s17 50 17 92v327c0 24.667 -6.5 45.834 -19.5 63.501s-34.167 26.5 -63.5 26.5c-19.333 0 -36.166 -5.5 -50.499 -16.5s-24.166 -25.5 -29.499 -43.5v-380h-129v559h129v-41c28 34 66.333 51 115 51
c30.667 0 57.167 -5 79.5 -15s40.666 -24.167 54.999 -42.5s24.833 -40.333 31.5 -66s10 -54.167 10 -85.5v-360c0 -62 -16.167 -114 -48.5 -156s-80.833 -67.667 -145.5 -77z" />
    <glyph glyph-name="Omacron" unicode="&#x14c;" horiz-adv-x="682" 
d="M341 601c-48 0 -87.334 -20 -118.001 -60s-46 -100.333 -46 -181c0 -40 4.33301 -75.167 13 -105.5s20.334 -55.5 35.001 -75.5s32 -35 52 -45s41.333 -15 64 -15c23.333 0 45 5 65 15s37.333 25 52 45s26.167 45.167 34.5 75.5s12.5 65.5 12.5 105.5
c0 80.667 -14.167 141 -42.5 181s-68.833 60 -121.5 60zM346.999 -10c-42 0 -81.167 8.33203 -117.5 24.999s-67.833 40.834 -94.5 72.501s-47.5 70.5 -62.5 116.5s-22.5 98 -22.5 156c0 56.667 7.33301 107.834 22 153.501s35 84.334 61 116.001s56.667 56 92 73
s74 25.5 116 25.5s80.833 -8.5 116.5 -25.5s66.5 -41.333 92.5 -73s46.167 -70.334 60.5 -116.001s21.5 -96.834 21.5 -153.501c0 -57.333 -7 -108.833 -21 -154.5s-33.667 -84.5 -59 -116.5s-55.5 -56.5 -90.5 -73.5s-73.167 -25.5 -114.5 -25.5zM198.999 926.999h283v-77
h-283v77z" />
    <glyph glyph-name="omacron" unicode="&#x14d;" horiz-adv-x="554" 
d="M277 -10c-34 0 -65 7.5 -93 22.5s-51.833 35.5 -71.5 61.5s-35 56.667 -46 92s-16.5 73.333 -16.5 114s5.5 78.5 16.5 113.5s26.333 65.5 46 91.5s43.5 46.5 71.5 61.5s59 22.5 93 22.5s65 -7.5 93 -22.5s51.833 -35.5 71.5 -61.5s35 -56.5 46 -91.5
s16.5 -72.833 16.5 -113.5s-5.5 -78.667 -16.5 -114s-26.333 -66 -46 -92s-43.5 -46.5 -71.5 -61.5s-59 -22.5 -93 -22.5zM277 123c32 0 56.667 14.5 74 43.5s26 66.833 26 113.5s-8.66699 84.334 -26 113.001s-42 43 -74 43s-56.667 -14.333 -74 -43
s-26 -66.334 -26 -113.001s8.66699 -84.5 26 -113.5s42 -43.5 74 -43.5zM135 768h283v-77h-283v77z" />
    <glyph glyph-name="Obreve" unicode="&#x14e;" horiz-adv-x="682" 
d="M341 601c-48 0 -87.334 -20 -118.001 -60s-46 -100.333 -46 -181c0 -40 4.33301 -75.167 13 -105.5s20.334 -55.5 35.001 -75.5s32 -35 52 -45s41.333 -15 64 -15c23.333 0 45 5 65 15s37.333 25 52 45s26.167 45.167 34.5 75.5s12.5 65.5 12.5 105.5
c0 80.667 -14.167 141 -42.5 181s-68.833 60 -121.5 60zM346.999 -10c-42 0 -81.167 8.33203 -117.5 24.999s-67.833 40.834 -94.5 72.501s-47.5 70.5 -62.5 116.5s-22.5 98 -22.5 156c0 56.667 7.33301 107.834 22 153.501s35 84.334 61 116.001s56.667 56 92 73
s74 25.5 116 25.5s80.833 -8.5 116.5 -25.5s66.5 -41.333 92.5 -73s46.167 -70.334 60.5 -116.001s21.5 -96.834 21.5 -153.501c0 -57.333 -7 -108.833 -21 -154.5s-33.667 -84.5 -59 -116.5s-55.5 -56.5 -90.5 -73.5s-73.167 -25.5 -114.5 -25.5zM341.999 763.999
c-22.667 0 -42.667 5.33301 -60 16s-32 24.334 -44 41.001s-21.167 35.5 -27.5 56.5s-9.83301 41.833 -10.5 62.5h75c2 -11.333 4.83301 -22.333 8.5 -33s8.16699 -20.167 13.5 -28.5s11.833 -15.166 19.5 -20.499s16.167 -8 25.5 -8s17.666 2.66699 24.999 8
s13.833 12.166 19.5 20.499s10.334 17.833 14.001 28.5s6.5 21.667 8.5 33h73c-0.666992 -20.667 -4 -41.5 -10 -62.5s-14.833 -39.833 -26.5 -56.5s-26.167 -30.334 -43.5 -41.001s-37.333 -16 -60 -16z" />
    <glyph glyph-name="obreve" unicode="&#x14f;" horiz-adv-x="554" 
d="M277 -10c-34 0 -65 7.5 -93 22.5s-51.833 35.5 -71.5 61.5s-35 56.667 -46 92s-16.5 73.333 -16.5 114s5.5 78.5 16.5 113.5s26.333 65.5 46 91.5s43.5 46.5 71.5 61.5s59 22.5 93 22.5s65 -7.5 93 -22.5s51.833 -35.5 71.5 -61.5s35 -56.5 46 -91.5
s16.5 -72.833 16.5 -113.5s-5.5 -78.667 -16.5 -114s-26.333 -66 -46 -92s-43.5 -46.5 -71.5 -61.5s-59 -22.5 -93 -22.5zM277 123c32 0 56.667 14.5 74 43.5s26 66.833 26 113.5s-8.66699 84.334 -26 113.001s-42 43 -74 43s-56.667 -14.333 -74 -43
s-26 -66.334 -26 -113.001s8.66699 -84.5 26 -113.5s42 -43.5 74 -43.5zM278 605c-22.667 0 -42.667 5.33301 -60 16s-32 24.334 -44 41.001s-21.167 35.5 -27.5 56.5s-9.83301 41.833 -10.5 62.5h75c2 -11.333 4.83301 -22.333 8.5 -33s8.16699 -20.167 13.5 -28.5
s11.833 -15.166 19.5 -20.499s16.167 -8 25.5 -8s17.666 2.66699 24.999 8s13.833 12.166 19.5 20.499s10.334 17.833 14.001 28.5s6.5 21.667 8.5 33h73c-0.666992 -20.667 -4 -41.5 -10 -62.5s-14.833 -39.833 -26.5 -56.5s-26.167 -30.334 -43.5 -41.001
s-37.333 -16 -60 -16z" />
    <glyph glyph-name="Ohungarumlaut" unicode="&#x150;" horiz-adv-x="682" 
d="M341 601c-48 0 -87.334 -20 -118.001 -60s-46 -100.333 -46 -181c0 -40 4.33301 -75.167 13 -105.5s20.334 -55.5 35.001 -75.5s32 -35 52 -45s41.333 -15 64 -15c23.333 0 45 5 65 15s37.333 25 52 45s26.167 45.167 34.5 75.5s12.5 65.5 12.5 105.5
c0 80.667 -14.167 141 -42.5 181s-68.833 60 -121.5 60zM346.999 -10c-42 0 -81.167 8.33203 -117.5 24.999s-67.833 40.834 -94.5 72.501s-47.5 70.5 -62.5 116.5s-22.5 98 -22.5 156c0 56.667 7.33301 107.834 22 153.501s35 84.334 61 116.001s56.667 56 92 73
s74 25.5 116 25.5s80.833 -8.5 116.5 -25.5s66.5 -41.333 92.5 -73s46.167 -70.334 60.5 -116.001s21.5 -96.834 21.5 -153.501c0 -57.333 -7 -108.833 -21 -154.5s-33.667 -84.5 -59 -116.5s-55.5 -56.5 -90.5 -73.5s-73.167 -25.5 -114.5 -25.5zM631.999 866.999
l-213 -131l-44 66l201 150zM405.999 866.999l-214 -131l-43 66l200 150z" />
    <glyph glyph-name="ohungarumlaut" unicode="&#x151;" horiz-adv-x="554" 
d="M277 -10c-34 0 -65 7.5 -93 22.5s-51.833 35.5 -71.5 61.5s-35 56.667 -46 92s-16.5 73.333 -16.5 114s5.5 78.5 16.5 113.5s26.333 65.5 46 91.5s43.5 46.5 71.5 61.5s59 22.5 93 22.5s65 -7.5 93 -22.5s51.833 -35.5 71.5 -61.5s35 -56.5 46 -91.5
s16.5 -72.833 16.5 -113.5s-5.5 -78.667 -16.5 -114s-26.333 -66 -46 -92s-43.5 -46.5 -71.5 -61.5s-59 -22.5 -93 -22.5zM277 123c32 0 56.667 14.5 74 43.5s26 66.833 26 113.5s-8.66699 84.334 -26 113.001s-42 43 -74 43s-56.667 -14.333 -74 -43
s-26 -66.334 -26 -113.001s8.66699 -84.5 26 -113.5s42 -43.5 74 -43.5zM568 708l-213 -131l-44 66l201 150zM342 708l-214 -131l-43 66l200 150z" />
    <glyph glyph-name="OE" unicode="&#x152;" horiz-adv-x="945" 
d="M493 38c-41.333 -32 -90 -48.0029 -146 -48.0029c-42 0 -81.167 8.33301 -117.5 25s-67.833 40.834 -94.5 72.501s-47.5 70.5 -62.5 116.5s-22.5 98 -22.5 156c0 56.667 7.33301 107.834 22 153.501s35 84.334 61 116.001s56.667 56 92 73s74 25.5 116 25.5
c30 0 57.5 -4.33301 82.5 -13s48.167 -21 69.5 -37v40h396v-127h-267v-159h166v-127h-166v-178h267v-127h-396v38zM341 600.997c-48 0 -87.333 -20 -118 -60s-46 -100.333 -46 -181c0 -40 4.33301 -75.167 13 -105.5s20.334 -55.5 35.001 -75.5s32 -35 52 -45
s41.333 -15 64 -15c36 0 67.333 11.333 94 34s46 57 58 103v214c-22.667 87.333 -73.334 131 -152.001 131z" />
    <glyph glyph-name="oe" unicode="&#x153;" horiz-adv-x="867" 
d="M501 207c2 -14 6.50098 -26.3271 13.501 -36.9941s15.333 -19.834 25 -27.501s20.334 -13.334 32.001 -17.001s23.5 -5.5 35.5 -5.5c16.667 0 31.667 2.83301 45 8.5s25.666 16.167 36.999 31.5l87 -82c-24.667 -32 -50.667 -54.667 -78 -68s-59 -20 -95 -20
c-77.333 0 -134.333 26 -171 78c-18.667 -24.667 -41 -43.834 -67 -57.501s-55.333 -20.5 -88 -20.5c-34 0 -65 7.5 -93 22.5s-51.833 35.5 -71.5 61.5s-35 56.667 -46 92s-16.5 73.333 -16.5 114s5.5 78.5 16.5 113.5s26.333 65.5 46 91.5s43.5 46.5 71.5 61.5
s59 22.5 93 22.5s64.5 -7.5 91.5 -22.5s49.833 -35.833 68.5 -62.5c39.333 56.667 95.333 85 168 85c32.667 0 62.667 -5.83301 90 -17.5s50.666 -29.334 69.999 -53.001s34.333 -53.334 45 -89.001s16 -77.5 16 -125.5c0 -22.667 -0.333008 -39.834 -1 -51.501
s-1.66699 -20.167 -3 -25.5h-321zM277.001 123.006c32 0 56.667 14.5 74 43.5s26 66.833 26 113.5s-8.66699 84.334 -26 113.001s-42 43 -74 43s-56.667 -14.333 -74 -43s-26 -66.334 -26 -113.001s8.66699 -84.5 26 -113.5s42 -43.5 74 -43.5zM604.001 444.006
c-28 0 -51.334 -10.5 -70.001 -31.5s-29.667 -47.833 -33 -80.5h196c-4 32.667 -14.167 59.5 -30.5 80.5s-37.166 31.5 -62.499 31.5z" />
    <glyph glyph-name="Racute" unicode="&#x154;" horiz-adv-x="586" 
d="M189 591v-190h136c62.667 0 94 30 94 90c0 66.667 -31.333 100 -94 100h-136zM290 273l-101 0.000976562v-273h-129v718h268c32.667 0 62.5 -5 89.5 -15s50 -24.5 69 -43.5s33.667 -42.333 44 -70s15.5 -58.834 15.5 -93.501c0 -101.333 -42 -170.333 -126 -207l136 -289
h-139zM461 867.001l-214 -131l-43 66l201 150z" />
    <glyph glyph-name="racute" unicode="&#x155;" horiz-adv-x="363" 
d="M303 422c-6 5.33301 -12.833 9.66602 -20.5 12.999s-17.5 5 -29.5 5c-19.333 0 -34.166 -5.5 -44.499 -16.5s-16.833 -25.833 -19.5 -44.5v-379h-129v559h129v-29c20.667 26 48.334 39 83.001 39c13.333 0 26.166 -2.16699 38.499 -6.5s23.166 -11.166 32.499 -20.499z
M370 708l-214 -131l-43 66l201 150z" />
    <glyph glyph-name="Rcommaaccent" unicode="&#x156;" horiz-adv-x="586" 
d="M189 591v-190h136c62.667 0 94 30 94 90c0 66.667 -31.333 100 -94 100h-136zM290 273l-101 0.000976562v-273h-129v718h268c32.667 0 62.5 -5 89.5 -15s50 -24.5 69 -43.5s33.667 -42.333 44 -70s15.5 -58.834 15.5 -93.501c0 -101.333 -42 -170.333 -126 -207l136 -289
h-139zM242 -201.999c14.667 4 26.001 8.66895 34.001 14.002s13.333 13.666 16 24.999h-2c-21.333 0 -37.833 6.33301 -49.5 19s-17.5 28.667 -17.5 48s6.16699 35.5 18.5 48.5s29.166 19.5 50.499 19.5c17.333 0 33.333 -6.5 48 -19.5s22 -29.167 22 -48.5
c0 -17.333 -2.33301 -33.833 -7 -49.5s-12 -29.834 -22 -42.501s-22.5 -23 -37.5 -31s-32.833 -12.667 -53.5 -14v31z" />
    <glyph glyph-name="rcommaaccent" unicode="&#x157;" horiz-adv-x="363" 
d="M303 422c-6 5.33301 -12.833 9.66602 -20.5 12.999s-17.5 5 -29.5 5c-19.333 0 -34.166 -5.5 -44.499 -16.5s-16.833 -25.833 -19.5 -44.5v-379h-129v559h129v-29c20.667 26 48.334 39 83.001 39c13.333 0 26.166 -2.16699 38.499 -6.5s23.166 -11.166 32.499 -20.499z
M73 -202c14.667 4 26.001 8.66895 34.001 14.002s13.333 13.666 16 24.999h-2c-21.333 0 -37.833 6.33301 -49.5 19s-17.5 28.667 -17.5 48s6.16699 35.5 18.5 48.5s29.166 19.5 50.499 19.5c17.333 0 33.333 -6.5 48 -19.5s22 -29.167 22 -48.5
c0 -17.333 -2.33301 -33.833 -7 -49.5s-12 -29.834 -22 -42.501s-22.5 -23 -37.5 -31s-32.833 -12.667 -53.5 -14v31z" />
    <glyph glyph-name="Rcaron" unicode="&#x158;" horiz-adv-x="586" 
d="M189 591v-190h136c62.667 0 94 30 94 90c0 66.667 -31.333 100 -94 100h-136zM290 273l-101 0.000976562v-273h-129v718h268c32.667 0 62.5 -5 89.5 -15s50 -24.5 69 -43.5s33.667 -42.333 44 -70s15.5 -58.834 15.5 -93.501c0 -101.333 -42 -170.333 -126 -207l136 -289
h-139zM283 858.001l112 94l45 -49l-157 -161l-158 161l45 49z" />
    <glyph glyph-name="rcaron" unicode="&#x159;" horiz-adv-x="363" 
d="M303 422c-6 5.33301 -12.833 9.66602 -20.5 12.999s-17.5 5 -29.5 5c-19.333 0 -34.166 -5.5 -44.499 -16.5s-16.833 -25.833 -19.5 -44.5v-379h-129v559h129v-29c20.667 26 48.334 39 83.001 39c13.333 0 26.166 -2.16699 38.499 -6.5s23.166 -11.166 32.499 -20.499z
M193 699l112 94l45 -49l-157 -161l-158 161l45 49z" />
    <glyph glyph-name="Sacute" unicode="&#x15a;" horiz-adv-x="544" 
d="M260 -10c-36.667 0 -74.666 5.83203 -113.999 17.499s-74 28.5 -104 50.5l50 125c24.667 -18.667 51.5 -34 80.5 -46s59.5 -18 91.5 -18c36 0 62.5 7.83301 79.5 23.5s25.5 37.5 25.5 65.5c0 12 -2.66699 22.5 -8 31.5s-12.666 17.5 -21.999 25.5s-20.833 16 -34.5 24
l-44.5 26c-20 11.333 -42.167 22.833 -66.5 34.5s-47 25.834 -68 42.501s-38.667 36.667 -53 60s-21.5 52.666 -21.5 87.999c0 30.667 6.16699 57.667 18.5 81s29 43 50 59s45.167 28 72.5 36s55.666 12 84.999 12c38 0 73.5 -4.16699 106.5 -12.5s62.833 -22.5 89.5 -42.5
l-37 -132c-23.333 19.333 -47.333 33.333 -72 42s-54 13 -88 13c-30 0 -53.833 -4.66699 -71.5 -14s-26.5 -21.666 -26.5 -36.999c0 -21.333 10.667 -39.333 32 -54s51 -32 89 -52c30 -16 57.5 -32.167 82.5 -48.5s46.5 -33.833 64.5 -52.5s32 -39.167 42 -61.5
s15 -47.5 15 -75.5c0 -72.667 -21.833 -126 -65.5 -160s-102.834 -51 -177.501 -51zM450.001 866.999l-214 -131l-43 66l201 150z" />
    <glyph glyph-name="sacute" unicode="&#x15b;" horiz-adv-x="461" 
d="M79 157c13.333 -9.33301 31.666 -18 54.999 -26s49 -12 77 -12c32 0 55 5.16699 69 15.5s21 23.5 21 39.5c0 12.667 -5 23 -15 31s-26 15 -48 21c-30 8 -57.333 16.333 -82 25s-45.667 19.167 -63 31.5s-30.666 27.5 -39.999 45.5s-14 40.333 -14 67
c0 30 5.33301 55.833 16 77.5s25.167 39.5 43.5 53.5s40.333 24.167 66 30.5s53.5 9.5 83.5 9.5c59.333 0 111.333 -16.333 156 -49l-37 -125c-23.333 15.333 -45 26.333 -65 33s-41.333 10 -64 10c-26.667 0 -44.667 -3.16699 -54 -9.5s-14 -14.5 -14 -24.5
c0 -10.667 5.33301 -19.167 16 -25.5s23.5 -11.833 38.5 -16.5s31 -8.66699 48 -12s32.167 -7.33301 45.5 -12c34 -13.333 60.833 -32.5 80.5 -57.5s29.5 -59.5 29.5 -103.5c0 -34 -5.66699 -62.667 -17 -86s-26.833 -42.166 -46.5 -56.499s-43 -24.833 -70 -31.5
s-55.833 -10 -86.5 -10c-26 0 -54.333 3.66699 -85 11s-60 20.666 -88 39.999zM409 708l-214 -131l-43 66l201 150z" />
    <glyph glyph-name="Scedilla" unicode="&#x15e;" horiz-adv-x="544" 
d="M260 -10c-36.667 0 -74.666 5.83203 -113.999 17.499s-74 28.5 -104 50.5l50 125c24.667 -18.667 51.5 -34 80.5 -46s59.5 -18 91.5 -18c36 0 62.5 7.83301 79.5 23.5s25.5 37.5 25.5 65.5c0 12 -2.66699 22.5 -8 31.5s-12.666 17.5 -21.999 25.5s-20.833 16 -34.5 24
l-44.5 26c-20 11.333 -42.167 22.833 -66.5 34.5s-47 25.834 -68 42.501s-38.667 36.667 -53 60s-21.5 52.666 -21.5 87.999c0 30.667 6.16699 57.667 18.5 81s29 43 50 59s45.167 28 72.5 36s55.666 12 84.999 12c38 0 73.5 -4.16699 106.5 -12.5s62.833 -22.5 89.5 -42.5
l-37 -132c-23.333 19.333 -47.333 33.333 -72 42s-54 13 -88 13c-30 0 -53.833 -4.66699 -71.5 -14s-26.5 -21.666 -26.5 -36.999c0 -21.333 10.667 -39.333 32 -54s51 -32 89 -52c30 -16 57.5 -32.167 82.5 -48.5s46.5 -33.833 64.5 -52.5s32 -39.167 42 -61.5
s15 -47.5 15 -75.5c0 -72.667 -21.833 -126 -65.5 -160s-102.834 -51 -177.501 -51zM221.001 -202.001c14.667 4 26.001 8.66895 34.001 14.002s13.333 13.666 16 24.999h-2c-21.333 0 -37.833 6.33301 -49.5 19s-17.5 28.667 -17.5 48s6.16699 35.5 18.5 48.5
s29.166 19.5 50.499 19.5c17.333 0 33.333 -6.5 48 -19.5s22 -29.167 22 -48.5c0 -17.333 -2.33301 -33.833 -7 -49.5s-12 -29.834 -22 -42.501s-22.5 -23 -37.5 -31s-32.833 -12.667 -53.5 -14v31z" />
    <glyph glyph-name="scedilla" unicode="&#x15f;" horiz-adv-x="461" 
d="M79 157c13.333 -9.33301 31.666 -18 54.999 -26s49 -12 77 -12c32 0 55 5.16699 69 15.5s21 23.5 21 39.5c0 12.667 -5 23 -15 31s-26 15 -48 21c-30 8 -57.333 16.333 -82 25s-45.667 19.167 -63 31.5s-30.666 27.5 -39.999 45.5s-14 40.333 -14 67
c0 30 5.33301 55.833 16 77.5s25.167 39.5 43.5 53.5s40.333 24.167 66 30.5s53.5 9.5 83.5 9.5c59.333 0 111.333 -16.333 156 -49l-37 -125c-23.333 15.333 -45 26.333 -65 33s-41.333 10 -64 10c-26.667 0 -44.667 -3.16699 -54 -9.5s-14 -14.5 -14 -24.5
c0 -10.667 5.33301 -19.167 16 -25.5s23.5 -11.833 38.5 -16.5s31 -8.66699 48 -12s32.167 -7.33301 45.5 -12c34 -13.333 60.833 -32.5 80.5 -57.5s29.5 -59.5 29.5 -103.5c0 -34 -5.66699 -62.667 -17 -86s-26.833 -42.166 -46.5 -56.499s-43 -24.833 -70 -31.5
s-55.833 -10 -86.5 -10c-26 0 -54.333 3.66699 -85 11s-60 20.666 -88 39.999zM180 -202c14.667 4 26.001 8.66895 34.001 14.002s13.333 13.666 16 24.999h-2c-21.333 0 -37.833 6.33301 -49.5 19s-17.5 28.667 -17.5 48s6.16699 35.5 18.5 48.5s29.166 19.5 50.499 19.5
c17.333 0 33.333 -6.5 48 -19.5s22 -29.167 22 -48.5c0 -17.333 -2.33301 -33.833 -7 -49.5s-12 -29.834 -22 -42.501s-22.5 -23 -37.5 -31s-32.833 -12.667 -53.5 -14v31z" />
    <glyph glyph-name="Scaron" unicode="&#x160;" horiz-adv-x="544" 
d="M260 -10c-36.667 0 -74.666 5.83203 -113.999 17.499s-74 28.5 -104 50.5l50 125c24.667 -18.667 51.5 -34 80.5 -46s59.5 -18 91.5 -18c36 0 62.5 7.83301 79.5 23.5s25.5 37.5 25.5 65.5c0 12 -2.66699 22.5 -8 31.5s-12.666 17.5 -21.999 25.5s-20.833 16 -34.5 24
l-44.5 26c-20 11.333 -42.167 22.833 -66.5 34.5s-47 25.834 -68 42.501s-38.667 36.667 -53 60s-21.5 52.666 -21.5 87.999c0 30.667 6.16699 57.667 18.5 81s29 43 50 59s45.167 28 72.5 36s55.666 12 84.999 12c38 0 73.5 -4.16699 106.5 -12.5s62.833 -22.5 89.5 -42.5
l-37 -132c-23.333 19.333 -47.333 33.333 -72 42s-54 13 -88 13c-30 0 -53.833 -4.66699 -71.5 -14s-26.5 -21.666 -26.5 -36.999c0 -21.333 10.667 -39.333 32 -54s51 -32 89 -52c30 -16 57.5 -32.167 82.5 -48.5s46.5 -33.833 64.5 -52.5s32 -39.167 42 -61.5
s15 -47.5 15 -75.5c0 -72.667 -21.833 -126 -65.5 -160s-102.834 -51 -177.501 -51zM272.001 857.999l112 94l45 -49l-157 -161l-158 161l45 49z" />
    <glyph glyph-name="scaron" unicode="&#x161;" horiz-adv-x="461" 
d="M79 157c13.333 -9.33301 31.666 -18 54.999 -26s49 -12 77 -12c32 0 55 5.16699 69 15.5s21 23.5 21 39.5c0 12.667 -5 23 -15 31s-26 15 -48 21c-30 8 -57.333 16.333 -82 25s-45.667 19.167 -63 31.5s-30.666 27.5 -39.999 45.5s-14 40.333 -14 67
c0 30 5.33301 55.833 16 77.5s25.167 39.5 43.5 53.5s40.333 24.167 66 30.5s53.5 9.5 83.5 9.5c59.333 0 111.333 -16.333 156 -49l-37 -125c-23.333 15.333 -45 26.333 -65 33s-41.333 10 -64 10c-26.667 0 -44.667 -3.16699 -54 -9.5s-14 -14.5 -14 -24.5
c0 -10.667 5.33301 -19.167 16 -25.5s23.5 -11.833 38.5 -16.5s31 -8.66699 48 -12s32.167 -7.33301 45.5 -12c34 -13.333 60.833 -32.5 80.5 -57.5s29.5 -59.5 29.5 -103.5c0 -34 -5.66699 -62.667 -17 -86s-26.833 -42.166 -46.5 -56.499s-43 -24.833 -70 -31.5
s-55.833 -10 -86.5 -10c-26 0 -54.333 3.66699 -85 11s-60 20.666 -88 39.999zM231 699l112 94l45 -49l-157 -161l-158 161l45 49z" />
    <glyph glyph-name="Tcedilla" unicode="&#x162;" horiz-adv-x="546" 
d="M343 591v-591h-138v591h-183v127h502v-127h-181zM222 -202c14.667 4 26.001 8.66895 34.001 14.002s13.333 13.666 16 24.999h-2c-21.333 0 -37.833 6.33301 -49.5 19s-17.5 28.667 -17.5 48s6.16699 35.5 18.5 48.5s29.166 19.5 50.499 19.5
c17.333 0 33.333 -6.5 48 -19.5s22 -29.167 22 -48.5c0 -17.333 -2.33301 -33.833 -7 -49.5s-12 -29.834 -22 -42.501s-22.5 -23 -37.5 -31s-32.833 -12.667 -53.5 -14v31z" />
    <glyph glyph-name="tcedilla" unicode="&#x163;" horiz-adv-x="329" 
d="M291 6c-6.66699 -4 -16.499 -7.66797 -29.499 -11.001s-31.167 -5 -54.5 -5c-44.667 0 -78.834 14.833 -102.501 44.5s-35.5 68.834 -35.5 117.501v280h-57v127h57v104l127 55v-159h96v-127h-96v-263c0 -18.667 4.33301 -31.667 13 -39s20.667 -11 36 -11
c11.333 0 22.833 2.33301 34.5 7s22.167 11 31.5 19zM137.001 -202.001c14.667 4 26.001 8.66895 34.001 14.002s13.333 13.666 16 24.999h-2c-21.333 0 -37.833 6.33301 -49.5 19s-17.5 28.667 -17.5 48s6.16699 35.5 18.5 48.5s29.166 19.5 50.499 19.5
c17.333 0 33.333 -6.5 48 -19.5s22 -29.167 22 -48.5c0 -17.333 -2.33301 -33.833 -7 -49.5s-12 -29.834 -22 -42.501s-22.5 -23 -37.5 -31s-32.833 -12.667 -53.5 -14v31z" />
    <glyph glyph-name="Tcaron" unicode="&#x164;" horiz-adv-x="546" 
d="M343 591v-591h-138v591h-183v127h502v-127h-181zM273 858l112 94l45 -49l-157 -161l-158 161l45 49z" />
    <glyph glyph-name="tcaron" unicode="&#x165;" horiz-adv-x="412" 
d="M291 6c-6.66699 -4 -16.499 -7.66797 -29.499 -11.001s-31.167 -5 -54.5 -5c-44.667 0 -78.834 14.833 -102.501 44.5s-35.5 68.834 -35.5 117.501v280h-57v127h57v104l127 55v-159h96v-127h-96v-263c0 -18.667 4.33301 -31.667 13 -39s20.667 -11 36 -11
c11.333 0 22.833 2.33301 34.5 7s22.167 11 31.5 19zM317.001 563.999c14.667 4 26.001 8.66895 34.001 14.002s13.333 13.666 16 24.999h-2c-21.333 0 -37.833 6.33301 -49.5 19s-17.5 28.667 -17.5 48s6.16699 35.5 18.5 48.5s29.166 19.5 50.499 19.5
c17.333 0 33.333 -6.5 48 -19.5s22 -29.167 22 -48.5c0 -17.333 -2.33301 -33.833 -7 -49.5s-12 -29.834 -22 -42.501s-22.5 -23 -37.5 -31s-32.833 -12.667 -53.5 -14v31z" />
    <glyph glyph-name="Tbar" unicode="&#x166;" horiz-adv-x="546" 
d="M119 489h86v102h-183v127h502v-127h-181v-102h83v-117h-83v-372h-138v372h-86v117z" />
    <glyph glyph-name="tbar" unicode="&#x167;" horiz-adv-x="329" 
d="M16 344l53.001 -0.000976562v88h-57v127h57v104l127 55v-159h96v-127h-96v-88h94v-117h-94v-58c0 -18.667 4.33301 -31.667 13 -39s20.667 -11 36 -11c11.333 0 22.833 2.33301 34.5 7s22.167 11 31.5 19l-20 -139c-6.66699 -4 -16.5 -7.66699 -29.5 -11
s-31.167 -5 -54.5 -5c-44.667 0 -78.834 14.833 -102.501 44.5s-35.5 68.834 -35.5 117.501v75h-53v117z" />
    <glyph glyph-name="Utilde" unicode="&#x168;" horiz-adv-x="610" 
d="M309 -10c-40 0 -75.835 6.33301 -107.502 19s-58.167 30.5 -79.5 53.5s-37.666 51 -48.999 84s-17 69.833 -17 110.5v461h128v-457c0 -52.667 10.667 -89.834 32 -111.501s52.333 -32.5 93 -32.5c38 0 66.833 10.833 86.5 32.5s29.5 58.834 29.5 111.501v457h129v-457
c0 -41.333 -5.33301 -78.833 -16 -112.5s-26.5 -62.167 -47.5 -85.5s-46.667 -41.333 -77 -54s-65.166 -19 -104.499 -19zM385.998 782c-20 0 -37.666 4.66602 -52.999 13.999s-29.5 19.5 -42.5 30.5l-37 30.5c-11.667 9.33301 -23.5 14 -35.5 14
c-15.333 0 -29.166 -8.5 -41.499 -25.5s-23.5 -36.833 -33.5 -59.5l-58 52c5.33301 16.667 12.5 32 21.5 46s19.333 26 31 36s24 17.833 37 23.5s25.833 8.5 38.5 8.5c22.667 0 42.167 -4.66699 58.5 -14s31.166 -19.666 44.499 -30.999l37.5 -31
c11.667 -9.33301 23.5 -14 35.5 -14c8 0 15.5 2.5 22.5 7.5s13.667 11.667 20 20s12.333 17.833 18 28.5s11.167 22 16.5 34l58 -52c-6 -19.333 -14 -36.333 -24 -51s-21.333 -27 -34 -37s-25.834 -17.5 -39.501 -22.5s-27.167 -7.5 -40.5 -7.5z" />
    <glyph glyph-name="utilde" unicode="&#x169;" horiz-adv-x="534" 
d="M182 209c0 -24.667 6.50195 -45.833 19.502 -63.5s34.167 -26.5 63.5 -26.5c19.333 0 36.166 5.5 50.499 16.5s24.166 25.5 29.499 43.5v380h129v-559h-129v41c-28 -34 -66.333 -51 -115 -51c-31.333 0 -58 5 -80 15s-40.167 24.167 -54.5 42.5s-24.833 40.333 -31.5 66
s-10 54.167 -10 85.5v360h128v-350zM348.002 623.001c-20 0 -37.666 4.66602 -52.999 13.999s-29.5 19.5 -42.5 30.5l-37 30.5c-11.667 9.33301 -23.5 14 -35.5 14c-15.333 0 -29.166 -8.5 -41.499 -25.5s-23.5 -36.833 -33.5 -59.5l-58 52c5.33301 16.667 12.5 32 21.5 46
s19.333 26 31 36s24 17.833 37 23.5s25.833 8.5 38.5 8.5c22.667 0 42.167 -4.66699 58.5 -14s31.166 -19.666 44.499 -30.999l37.5 -31c11.667 -9.33301 23.5 -14 35.5 -14c8 0 15.5 2.5 22.5 7.5s13.667 11.667 20 20s12.333 17.833 18 28.5s11.167 22 16.5 34l58 -52
c-6 -19.333 -14 -36.333 -24 -51s-21.333 -27 -34 -37s-25.834 -17.5 -39.501 -22.5s-27.167 -7.5 -40.5 -7.5z" />
    <glyph glyph-name="Umacron" unicode="&#x16a;" horiz-adv-x="610" 
d="M309 -10c-40 0 -75.835 6.33301 -107.502 19s-58.167 30.5 -79.5 53.5s-37.666 51 -48.999 84s-17 69.833 -17 110.5v461h128v-457c0 -52.667 10.667 -89.834 32 -111.501s52.333 -32.5 93 -32.5c38 0 66.833 10.833 86.5 32.5s29.5 58.834 29.5 111.501v457h129v-457
c0 -41.333 -5.33301 -78.833 -16 -112.5s-26.5 -62.167 -47.5 -85.5s-46.667 -41.333 -77 -54s-65.166 -19 -104.499 -19zM162.998 927h283v-77h-283v77z" />
    <glyph glyph-name="umacron" unicode="&#x16b;" horiz-adv-x="534" 
d="M182 209c0 -24.667 6.50195 -45.833 19.502 -63.5s34.167 -26.5 63.5 -26.5c19.333 0 36.166 5.5 50.499 16.5s24.166 25.5 29.499 43.5v380h129v-559h-129v41c-28 -34 -66.333 -51 -115 -51c-31.333 0 -58 5 -80 15s-40.167 24.167 -54.5 42.5s-24.833 40.333 -31.5 66
s-10 54.167 -10 85.5v360h128v-350zM125.002 768.001h283v-77h-283v77z" />
    <glyph glyph-name="Ubreve" unicode="&#x16c;" horiz-adv-x="610" 
d="M309 -10c-40 0 -75.835 6.33301 -107.502 19s-58.167 30.5 -79.5 53.5s-37.666 51 -48.999 84s-17 69.833 -17 110.5v461h128v-457c0 -52.667 10.667 -89.834 32 -111.501s52.333 -32.5 93 -32.5c38 0 66.833 10.833 86.5 32.5s29.5 58.834 29.5 111.501v457h129v-457
c0 -41.333 -5.33301 -78.833 -16 -112.5s-26.5 -62.167 -47.5 -85.5s-46.667 -41.333 -77 -54s-65.166 -19 -104.499 -19zM305.998 764c-22.667 0 -42.667 5.33301 -60 16s-32 24.334 -44 41.001s-21.167 35.5 -27.5 56.5s-9.83301 41.833 -10.5 62.5h75
c2 -11.333 4.83301 -22.333 8.5 -33s8.16699 -20.167 13.5 -28.5s11.833 -15.166 19.5 -20.499s16.167 -8 25.5 -8s17.666 2.66699 24.999 8s13.833 12.166 19.5 20.499s10.334 17.833 14.001 28.5s6.5 21.667 8.5 33h73c-0.666992 -20.667 -4 -41.5 -10 -62.5
s-14.833 -39.833 -26.5 -56.5s-26.167 -30.334 -43.5 -41.001s-37.333 -16 -60 -16z" />
    <glyph glyph-name="ubreve" unicode="&#x16d;" horiz-adv-x="534" 
d="M182 209c0 -24.667 6.50195 -45.833 19.502 -63.5s34.167 -26.5 63.5 -26.5c19.333 0 36.166 5.5 50.499 16.5s24.166 25.5 29.499 43.5v380h129v-559h-129v41c-28 -34 -66.333 -51 -115 -51c-31.333 0 -58 5 -80 15s-40.167 24.167 -54.5 42.5s-24.833 40.333 -31.5 66
s-10 54.167 -10 85.5v360h128v-350zM268.002 605.001c-22.667 0 -42.667 5.33301 -60 16s-32 24.334 -44 41.001s-21.167 35.5 -27.5 56.5s-9.83301 41.833 -10.5 62.5h75c2 -11.333 4.83301 -22.333 8.5 -33s8.16699 -20.167 13.5 -28.5s11.833 -15.166 19.5 -20.499
s16.167 -8 25.5 -8s17.666 2.66699 24.999 8s13.833 12.166 19.5 20.499s10.334 17.833 14.001 28.5s6.5 21.667 8.5 33h73c-0.666992 -20.667 -4 -41.5 -10 -62.5s-14.833 -39.833 -26.5 -56.5s-26.167 -30.334 -43.5 -41.001s-37.333 -16 -60 -16z" />
    <glyph glyph-name="Uring" unicode="&#x16e;" horiz-adv-x="610" 
d="M309 -10c-40 0 -75.835 6.33301 -107.502 19s-58.167 30.5 -79.5 53.5s-37.666 51 -48.999 84s-17 69.833 -17 110.5v461h128v-457c0 -52.667 10.667 -89.834 32 -111.501s52.333 -32.5 93 -32.5c38 0 66.833 10.833 86.5 32.5s29.5 58.834 29.5 111.501v457h129v-457
c0 -41.333 -5.33301 -78.833 -16 -112.5s-26.5 -62.167 -47.5 -85.5s-46.667 -41.333 -77 -54s-65.166 -19 -104.499 -19zM304.998 952c14 0 27.5 -2.83301 40.5 -8.5s24.5 -13.334 34.5 -23.001s18 -21 24 -34s9 -26.833 9 -41.5c0 -15.333 -3 -29.5 -9 -42.5
s-14 -24.5 -24 -34.5s-21.5 -17.833 -34.5 -23.5s-26.5 -8.5 -40.5 -8.5c-15.333 0 -29.666 2.83301 -42.999 8.5s-24.833 13.334 -34.5 23.001s-17.334 21.167 -23.001 34.5s-8.5 27.666 -8.5 42.999c0 14.667 2.83301 28.5 8.5 41.5s13.334 24.333 23.001 34
s21.167 17.334 34.5 23.001s27.666 8.5 42.999 8.5zM304.998 886c-12 0 -22.167 -4.16699 -30.5 -12.5s-12.5 -17.833 -12.5 -28.5c0 -12.667 4.16699 -23.167 12.5 -31.5s18.5 -12.5 30.5 -12.5c11.333 0 21 4.16699 29 12.5s12 18.833 12 31.5
c0 10.667 -4 20.167 -12 28.5s-17.667 12.5 -29 12.5z" />
    <glyph glyph-name="uring" unicode="&#x16f;" horiz-adv-x="534" 
d="M182 209c0 -24.667 6.50195 -45.833 19.502 -63.5s34.167 -26.5 63.5 -26.5c19.333 0 36.166 5.5 50.499 16.5s24.166 25.5 29.499 43.5v380h129v-559h-129v41c-28 -34 -66.333 -51 -115 -51c-31.333 0 -58 5 -80 15s-40.167 24.167 -54.5 42.5s-24.833 40.333 -31.5 66
s-10 54.167 -10 85.5v360h128v-350zM267.002 793.001c14 0 27.5 -2.83301 40.5 -8.5s24.5 -13.334 34.5 -23.001s18 -21 24 -34s9 -26.833 9 -41.5c0 -15.333 -3 -29.5 -9 -42.5s-14 -24.5 -24 -34.5s-21.5 -17.833 -34.5 -23.5s-26.5 -8.5 -40.5 -8.5
c-15.333 0 -29.666 2.83301 -42.999 8.5s-24.833 13.334 -34.5 23.001s-17.334 21.167 -23.001 34.5s-8.5 27.666 -8.5 42.999c0 14.667 2.83301 28.5 8.5 41.5s13.334 24.333 23.001 34s21.167 17.334 34.5 23.001s27.666 8.5 42.999 8.5zM267.002 727.001
c-12 0 -22.167 -4.16699 -30.5 -12.5s-12.5 -17.833 -12.5 -28.5c0 -12.667 4.16699 -23.167 12.5 -31.5s18.5 -12.5 30.5 -12.5c11.333 0 21 4.16699 29 12.5s12 18.833 12 31.5c0 10.667 -4 20.167 -12 28.5s-17.667 12.5 -29 12.5z" />
    <glyph glyph-name="Uhungarumlaut" unicode="&#x170;" horiz-adv-x="610" 
d="M309 -10c-40 0 -75.835 6.33301 -107.502 19s-58.167 30.5 -79.5 53.5s-37.666 51 -48.999 84s-17 69.833 -17 110.5v461h128v-457c0 -52.667 10.667 -89.834 32 -111.501s52.333 -32.5 93 -32.5c38 0 66.833 10.833 86.5 32.5s29.5 58.834 29.5 111.501v457h129v-457
c0 -41.333 -5.33301 -78.833 -16 -112.5s-26.5 -62.167 -47.5 -85.5s-46.667 -41.333 -77 -54s-65.166 -19 -104.499 -19zM595.998 867l-213 -131l-44 66l201 150zM369.998 867l-214 -131l-43 66l200 150z" />
    <glyph glyph-name="uhungarumlaut" unicode="&#x171;" horiz-adv-x="534" 
d="M182 209c0 -24.667 6.50195 -45.833 19.502 -63.5s34.167 -26.5 63.5 -26.5c19.333 0 36.166 5.5 50.499 16.5s24.166 25.5 29.499 43.5v380h129v-559h-129v41c-28 -34 -66.333 -51 -115 -51c-31.333 0 -58 5 -80 15s-40.167 24.167 -54.5 42.5s-24.833 40.333 -31.5 66
s-10 54.167 -10 85.5v360h128v-350zM558.002 708.001l-213 -131l-44 66l201 150zM332.002 708.001l-214 -131l-43 66l200 150z" />
    <glyph glyph-name="Uogonek" unicode="&#x172;" horiz-adv-x="610" 
d="M409 -222c-13.333 -4.66699 -25.4971 -7.66504 -36.4971 -8.99805s-25.5 -2 -43.5 -2c-30 0 -55.5 8.66699 -76.5 26s-31.5 44 -31.5 80c0 24.667 7.66699 47.5 23 68.5s33.666 37.167 54.999 48.5c-39.333 0.666992 -74 7.5 -104 20.5s-55.333 31.167 -76 54.5
s-36.334 51.166 -47.001 83.499s-16 68.5 -16 108.5v461h128v-457c0 -52.667 10.667 -89.834 32 -111.501s52.333 -32.5 93 -32.5c38 0 66.833 10.833 86.5 32.5s29.5 58.834 29.5 111.501v457h129v-457c0 -69.333 -14.667 -126.666 -44 -171.999s-71.333 -75 -126 -89
c-12 -3.33301 -22.5 -8.5 -31.5 -15.5s-16.5 -15 -22.5 -24s-10.667 -18 -14 -27s-5 -16.833 -5 -23.5c0 -18.667 5.33301 -30.834 16 -36.501s23.334 -8.5 38.001 -8.5c7.33301 0 16.666 1.16699 27.999 3.5s21.666 6.16602 30.999 11.499z" />
    <glyph glyph-name="uogonek" unicode="&#x173;" horiz-adv-x="534" 
d="M497 -222c-13.333 -4.66699 -25.498 -7.66406 -36.498 -8.99707s-25.5 -2 -43.5 -2c-30 0 -55.5 8.66699 -76.5 26s-31.5 44 -31.5 80c0 32 12 60 36 84v84c-28 -34 -66.333 -51 -115 -51c-31.333 0 -58 5 -80 15s-40.167 24.167 -54.5 42.5s-24.833 40.333 -31.5 66
s-10 54.167 -10 85.5v360h128v-350c0 -24.667 6.5 -45.834 19.5 -63.501s34.167 -26.5 63.5 -26.5c19.333 0 36.166 5.5 50.499 16.5s24.166 25.5 29.499 43.5v380h129v-559c-11.333 -4.66699 -21.666 -10.834 -30.999 -18.501s-17.333 -15.667 -24 -24
s-11.667 -16.666 -15 -24.999s-5 -15.833 -5 -22.5c0 -18.667 5.33301 -30.834 16 -36.501s23.334 -8.5 38.001 -8.5c7.33301 0 16.666 1.16699 27.999 3.5s21.666 6.16602 30.999 11.499z" />
    <glyph glyph-name="Wcircumflex" unicode="&#x174;" horiz-adv-x="893" 
d="M179 0l-171 718h139l117 -536l118 536h129l119 -536l116 536h139l-174 -718h-164l-101 420l-103 -420h-164zM446 836l-112 -94l-45 49l157 161l158 -161l-45 -49z" />
    <glyph glyph-name="wcircumflex" unicode="&#x175;" horiz-adv-x="747" 
d="M157 0l-147 559h137l80 -343l80 343h133l80 -343l80 343h137l-150 -559h-136l-77 296l-80 -296h-137zM373 677l-112 -94l-45 49l157 161l158 -161l-45 -49z" />
    <glyph glyph-name="Ycircumflex" unicode="&#x176;" horiz-adv-x="572" 
d="M357 275v-275h-141v273l-212 445h145l138 -300l138 300h143zM285 836l-112 -94l-45 49l157 161l158 -161l-45 -49z" />
    <glyph glyph-name="ycircumflex" unicode="&#x177;" horiz-adv-x="475" 
d="M104 -233l69 243l-163 549h137l93 -363l89 363h136l-226 -792h-135zM237 677l-112 -94l-45 49l157 161l158 -161l-45 -49z" />
    <glyph glyph-name="Ydieresis" unicode="&#x178;" horiz-adv-x="572" 
d="M357 275v-275h-141v273l-212 445h145l138 -300l138 300h143zM383 785c-21.333 0 -38.001 7.99902 -50.001 23.999s-18 35.333 -18 58c0 24 6 43.833 18 59.5s28.667 23.5 50 23.5c16.667 0 32.167 -7.83301 46.5 -23.5s21.5 -35.5 21.5 -59.5c0 -11.333 -2 -22 -6 -32
s-9.16699 -18.667 -15.5 -26s-13.666 -13.166 -21.999 -17.499s-16.5 -6.5 -24.5 -6.5zM188.999 784.999c-21.333 0 -38.001 7.99902 -50.001 23.999s-18 35.333 -18 58c0 24 6 43.833 18 59.5s28.667 23.5 50 23.5c16.667 0 32.167 -7.83301 46.5 -23.5
s21.5 -35.5 21.5 -59.5c0 -11.333 -2 -22 -6 -32s-9.16699 -18.667 -15.5 -26s-13.666 -13.166 -21.999 -17.499s-16.5 -6.5 -24.5 -6.5z" />
    <glyph glyph-name="Zacute" unicode="&#x179;" horiz-adv-x="535" 
d="M41 127l307 464h-307v127h460v-129l-310 -462h311v-127h-461v127zM456 867l-214 -131l-43 66l201 150z" />
    <glyph glyph-name="zacute" unicode="&#x17a;" horiz-adv-x="468" 
d="M37 108l217 324h-205v127h374v-105l-219 -327h223v-127h-390v108zM417 708l-214 -131l-43 66l201 150z" />
    <glyph glyph-name="Zdotaccent" unicode="&#x17b;" horiz-adv-x="535" 
d="M41 127l307 464h-307v127h460v-129l-310 -462h311v-127h-461v127zM277 785c-21.333 0 -38.001 7.99902 -50.001 23.999s-18 35.333 -18 58c0 24 6 43.833 18 59.5s28.667 23.5 50 23.5c16.667 0 32.167 -7.83301 46.5 -23.5s21.5 -35.5 21.5 -59.5
c0 -11.333 -2 -22 -6 -32s-9.16699 -18.667 -15.5 -26s-13.666 -13.166 -21.999 -17.499s-16.5 -6.5 -24.5 -6.5z" />
    <glyph glyph-name="zdotaccent" unicode="&#x17c;" horiz-adv-x="468" 
d="M37 108l217 324h-205v127h374v-105l-219 -327h223v-127h-390v108zM239 626c-21.333 0 -38.001 7.99902 -50.001 23.999s-18 35.333 -18 58c0 24 6 43.833 18 59.5s28.667 23.5 50 23.5c16.667 0 32.167 -7.83301 46.5 -23.5s21.5 -35.5 21.5 -59.5
c0 -11.333 -2 -22 -6 -32s-9.16699 -18.667 -15.5 -26s-13.666 -13.166 -21.999 -17.499s-16.5 -6.5 -24.5 -6.5z" />
    <glyph glyph-name="Zcaron" unicode="&#x17d;" horiz-adv-x="535" 
d="M41 127l307 464h-307v127h460v-129l-310 -462h311v-127h-461v127zM278 858l112 94l45 -49l-157 -161l-158 161l45 49z" />
    <glyph glyph-name="zcaron" unicode="&#x17e;" horiz-adv-x="468" 
d="M37 108l217 324h-205v127h374v-105l-219 -327h223v-127h-390v108zM239 699l112 94l45 -49l-157 -161l-158 161l45 49z" />
    <glyph glyph-name="florin" unicode="&#x192;" horiz-adv-x="474" 
d="M308 432l-78.002 -432.001c-11.333 -62 -35.666 -114 -72.999 -156s-88.333 -67.667 -153 -77l12 124c28.667 6.66699 50.5 19.834 65.5 39.501s26.167 50.5 33.5 92.5l74 409h-57l23 127h57c11.333 66.667 33 115.334 65 146.001s73 46 123 46
c14 0 25.667 -0.833008 35 -2.5s18 -3.83398 26 -6.50098l-21 -118c-7.33301 2.66699 -14.5 4.66699 -21.5 6s-15.833 2 -26.5 2c-19.333 0 -34.166 -5.16699 -44.499 -15.5s-17.833 -29.5 -22.5 -57.5h105l-23 -127h-99z" />
    <glyph glyph-name="Scommaaccent" unicode="&#x218;" horiz-adv-x="544" 
d="M260 -10c-36.667 0 -74.666 5.83203 -113.999 17.499s-74 28.5 -104 50.5l50 125c24.667 -18.667 51.5 -34 80.5 -46s59.5 -18 91.5 -18c36 0 62.5 7.83301 79.5 23.5s25.5 37.5 25.5 65.5c0 12 -2.66699 22.5 -8 31.5s-12.666 17.5 -21.999 25.5s-20.833 16 -34.5 24
l-44.5 26c-20 11.333 -42.167 22.833 -66.5 34.5s-47 25.834 -68 42.501s-38.667 36.667 -53 60s-21.5 52.666 -21.5 87.999c0 30.667 6.16699 57.667 18.5 81s29 43 50 59s45.167 28 72.5 36s55.666 12 84.999 12c38 0 73.5 -4.16699 106.5 -12.5s62.833 -22.5 89.5 -42.5
l-37 -132c-23.333 19.333 -47.333 33.333 -72 42s-54 13 -88 13c-30 0 -53.833 -4.66699 -71.5 -14s-26.5 -21.666 -26.5 -36.999c0 -21.333 10.667 -39.333 32 -54s51 -32 89 -52c30 -16 57.5 -32.167 82.5 -48.5s46.5 -33.833 64.5 -52.5s32 -39.167 42 -61.5
s15 -47.5 15 -75.5c0 -72.667 -21.833 -126 -65.5 -160s-102.834 -51 -177.501 -51zM221.001 -202.001c14.667 4 26.001 8.66895 34.001 14.002s13.333 13.666 16 24.999h-2c-21.333 0 -37.833 6.33301 -49.5 19s-17.5 28.667 -17.5 48s6.16699 35.5 18.5 48.5
s29.166 19.5 50.499 19.5c17.333 0 33.333 -6.5 48 -19.5s22 -29.167 22 -48.5c0 -17.333 -2.33301 -33.833 -7 -49.5s-12 -29.834 -22 -42.501s-22.5 -23 -37.5 -31s-32.833 -12.667 -53.5 -14v31z" />
    <glyph glyph-name="scommaaccent" unicode="&#x219;" horiz-adv-x="461" 
d="M79 157c13.333 -9.33301 31.666 -18 54.999 -26s49 -12 77 -12c32 0 55 5.16699 69 15.5s21 23.5 21 39.5c0 12.667 -5 23 -15 31s-26 15 -48 21c-30 8 -57.333 16.333 -82 25s-45.667 19.167 -63 31.5s-30.666 27.5 -39.999 45.5s-14 40.333 -14 67
c0 30 5.33301 55.833 16 77.5s25.167 39.5 43.5 53.5s40.333 24.167 66 30.5s53.5 9.5 83.5 9.5c59.333 0 111.333 -16.333 156 -49l-37 -125c-23.333 15.333 -45 26.333 -65 33s-41.333 10 -64 10c-26.667 0 -44.667 -3.16699 -54 -9.5s-14 -14.5 -14 -24.5
c0 -10.667 5.33301 -19.167 16 -25.5s23.5 -11.833 38.5 -16.5s31 -8.66699 48 -12s32.167 -7.33301 45.5 -12c34 -13.333 60.833 -32.5 80.5 -57.5s29.5 -59.5 29.5 -103.5c0 -34 -5.66699 -62.667 -17 -86s-26.833 -42.166 -46.5 -56.499s-43 -24.833 -70 -31.5
s-55.833 -10 -86.5 -10c-26 0 -54.333 3.66699 -85 11s-60 20.666 -88 39.999zM180 -202c14.667 4 26.001 8.66895 34.001 14.002s13.333 13.666 16 24.999h-2c-21.333 0 -37.833 6.33301 -49.5 19s-17.5 28.667 -17.5 48s6.16699 35.5 18.5 48.5s29.166 19.5 50.499 19.5
c17.333 0 33.333 -6.5 48 -19.5s22 -29.167 22 -48.5c0 -17.333 -2.33301 -33.833 -7 -49.5s-12 -29.834 -22 -42.501s-22.5 -23 -37.5 -31s-32.833 -12.667 -53.5 -14v31z" />
    <glyph glyph-name="uni021A" unicode="&#x21a;" horiz-adv-x="546" 
d="M343 591v-591h-138v591h-183v127h502v-127h-181zM222 -202c14.667 4 26.001 8.66895 34.001 14.002s13.333 13.666 16 24.999h-2c-21.333 0 -37.833 6.33301 -49.5 19s-17.5 28.667 -17.5 48s6.16699 35.5 18.5 48.5s29.166 19.5 50.499 19.5
c17.333 0 33.333 -6.5 48 -19.5s22 -29.167 22 -48.5c0 -17.333 -2.33301 -33.833 -7 -49.5s-12 -29.834 -22 -42.501s-22.5 -23 -37.5 -31s-32.833 -12.667 -53.5 -14v31z" />
    <glyph glyph-name="uni021B" unicode="&#x21b;" horiz-adv-x="329" 
d="M291 6c-6.66699 -4 -16.499 -7.66797 -29.499 -11.001s-31.167 -5 -54.5 -5c-44.667 0 -78.834 14.833 -102.501 44.5s-35.5 68.834 -35.5 117.501v280h-57v127h57v104l127 55v-159h96v-127h-96v-263c0 -18.667 4.33301 -31.667 13 -39s20.667 -11 36 -11
c11.333 0 22.833 2.33301 34.5 7s22.167 11 31.5 19zM137.001 -202.001c14.667 4 26.001 8.66895 34.001 14.002s13.333 13.666 16 24.999h-2c-21.333 0 -37.833 6.33301 -49.5 19s-17.5 28.667 -17.5 48s6.16699 35.5 18.5 48.5s29.166 19.5 50.499 19.5
c17.333 0 33.333 -6.5 48 -19.5s22 -29.167 22 -48.5c0 -17.333 -2.33301 -33.833 -7 -49.5s-12 -29.834 -22 -42.501s-22.5 -23 -37.5 -31s-32.833 -12.667 -53.5 -14v31z" />
    <glyph glyph-name="circumflex" unicode="&#x2c6;" horiz-adv-x="395" 
d="M197 677l-112 -94l-45 49l157 161l158 -161l-45 -49z" />
    <glyph glyph-name="caron" unicode="&#x2c7;" horiz-adv-x="395" 
d="M198 699l112 94l45 -49l-157 -161l-158 161l45 49z" />
    <glyph glyph-name="breve" unicode="&#x2d8;" horiz-adv-x="362" 
d="M182 605c-22.667 0 -42.667 5.33301 -60 16s-32 24.334 -44 41.001s-21.167 35.5 -27.5 56.5s-9.83301 41.833 -10.5 62.5h75c2 -11.333 4.83301 -22.333 8.5 -33s8.16699 -20.167 13.5 -28.5s11.833 -15.166 19.5 -20.499s16.167 -8 25.5 -8s17.666 2.66699 24.999 8
s13.833 12.166 19.5 20.499s10.334 17.833 14.001 28.5s6.5 21.667 8.5 33h73c-0.666992 -20.667 -4 -41.5 -10 -62.5s-14.833 -39.833 -26.5 -56.5s-26.167 -30.334 -43.5 -41.001s-37.333 -16 -60 -16z" />
    <glyph glyph-name="dotaccent" unicode="&#x2d9;" horiz-adv-x="216" 
d="M108 626c-21.333 0 -38.001 7.99902 -50.001 23.999s-18 35.333 -18 58c0 24 6 43.833 18 59.5s28.667 23.5 50 23.5c16.667 0 32.167 -7.83301 46.5 -23.5s21.5 -35.5 21.5 -59.5c0 -11.333 -2 -22 -6 -32s-9.16699 -18.667 -15.5 -26s-13.666 -13.166 -21.999 -17.499
s-16.5 -6.5 -24.5 -6.5z" />
    <glyph glyph-name="ring" unicode="&#x2da;" horiz-adv-x="297" 
d="M149 793c14 0 27.5 -2.83301 40.5 -8.5s24.5 -13.334 34.5 -23.001s18 -21 24 -34s9 -26.833 9 -41.5c0 -15.333 -3 -29.5 -9 -42.5s-14 -24.5 -24 -34.5s-21.5 -17.833 -34.5 -23.5s-26.5 -8.5 -40.5 -8.5c-15.333 0 -29.666 2.83301 -42.999 8.5
s-24.833 13.334 -34.5 23.001s-17.334 21.167 -23.001 34.5s-8.5 27.666 -8.5 42.999c0 14.667 2.83301 28.5 8.5 41.5s13.334 24.333 23.001 34s21.167 17.334 34.5 23.001s27.666 8.5 42.999 8.5zM149 727c-12 0 -22.167 -4.16699 -30.5 -12.5s-12.5 -17.833 -12.5 -28.5
c0 -12.667 4.16699 -23.167 12.5 -31.5s18.5 -12.5 30.5 -12.5c11.333 0 21 4.16699 29 12.5s12 18.833 12 31.5c0 10.667 -4 20.167 -12 28.5s-17.667 12.5 -29 12.5z" />
    <glyph glyph-name="ogonek" unicode="&#x2db;" horiz-adv-x="283" 
d="M228 -222c-13.333 -4.66699 -25.499 -7.66699 -36.499 -9s-25.5 -2 -43.5 -2c-30 0 -55.5 8.66699 -76.5 26s-31.5 44 -31.5 80c0 14.667 3 28.834 9 42.501s13.833 26.334 23.5 38.001s20.667 21.5 33 29.5s25.166 13.667 38.499 17h61
c-11.333 -4.66699 -21.666 -10.834 -30.999 -18.501s-17.333 -15.667 -24 -24s-11.667 -16.666 -15 -24.999s-5 -15.833 -5 -22.5c0 -18.667 5.33301 -30.834 16 -36.501s23.334 -8.5 38.001 -8.5c7.33301 0 16.666 1.16699 27.999 3.5s21.666 6.16602 30.999 11.499z" />
    <glyph glyph-name="tilde" unicode="&#x2dc;" horiz-adv-x="519" 
d="M341 623c-20 0 -37.666 4.66602 -52.999 13.999s-29.5 19.5 -42.5 30.5l-37 30.5c-11.667 9.33301 -23.5 14 -35.5 14c-15.333 0 -29.166 -8.5 -41.499 -25.5s-23.5 -36.833 -33.5 -59.5l-58 52c5.33301 16.667 12.5 32 21.5 46s19.333 26 31 36s24 17.833 37 23.5
s25.833 8.5 38.5 8.5c22.667 0 42.167 -4.66699 58.5 -14s31.166 -19.666 44.499 -30.999l37.5 -31c11.667 -9.33301 23.5 -14 35.5 -14c8 0 15.5 2.5 22.5 7.5s13.667 11.667 20 20s12.333 17.833 18 28.5s11.167 22 16.5 34l58 -52c-6 -19.333 -14 -36.333 -24 -51
s-21.333 -27 -34 -37s-25.834 -17.5 -39.501 -22.5s-27.167 -7.5 -40.5 -7.5z" />
    <glyph glyph-name="hungarumlaut" unicode="&#x2dd;" horiz-adv-x="563" 
d="M523 708l-213 -131l-44 66l201 150zM297 708l-214 -131l-43 66l200 150z" />
    <glyph glyph-name="Delta" unicode="&#x394;" horiz-adv-x="600" 
d="M382 718l212 -718h-588l212 718h164zM183 139h232l-117 413z" />
    <glyph glyph-name="Omega" unicode="&#x3a9;" horiz-adv-x="679" 
d="M321 0h-273.002v127h119c-42 56 -72.333 108.833 -91 158.5s-28 100.5 -28 152.5c0 96 24.333 168.333 73 217s121.334 73 218.001 73s169.334 -24.333 218.001 -73s73 -121 73 -217c0 -52 -9.33301 -102.833 -28 -152.5s-49 -102.5 -91 -158.5h119v-127h-273l4 103
c30 34 54.167 66 72.5 96s32.5 59 42.5 87s16.5 55.167 19.5 81.5s4.5 53.166 4.5 80.499c0 29.333 -3.66699 53.833 -11 73.5s-17.833 35.334 -31.5 47.001s-30.5 20 -50.5 25s-42.667 7.5 -68 7.5s-48 -2.5 -68 -7.5s-36.833 -13.333 -50.5 -25
s-24.167 -27.334 -31.5 -47.001s-11 -44.167 -11 -73.5c0 -27.333 1.5 -54.166 4.5 -80.499s9.5 -53.5 19.5 -81.5s24.167 -57 42.5 -87s42.5 -62 72.5 -96z" />
    <glyph glyph-name="mu" unicode="&#x3bc;" horiz-adv-x="541" 
d="M59 -233l0.00292969 791.998h128v-350c0 -24.667 6.5 -45.834 19.5 -63.501s34.167 -26.5 63.5 -26.5c19.333 0 36.166 5.5 50.499 16.5s24.166 25.5 29.499 43.5v380h129v-559h-129v41c-28 -34 -66.333 -51 -115 -51c-18.667 0 -36.334 6 -53.001 18
c0.666992 -6 1.33398 -15.667 2.00098 -29s1.16699 -28.666 1.5 -45.999s0.666016 -35.666 0.999023 -54.999s0.5 -37.666 0.5 -54.999z" />
    <glyph glyph-name="pi" unicode="&#x3c0;" horiz-adv-x="598" 
d="M575 6c-6.66699 -4 -16.499 -7.66797 -29.499 -11.001s-31.167 -5 -54.5 -5c-44.667 0 -78.834 14.833 -102.501 44.5s-35.5 68.834 -35.5 117.501v280h-164v-432h-129v559h420v-390c0 -18.667 4.33301 -31.667 13 -39s20.667 -11 36 -11c11.333 0 22.833 2.33301 34.5 7
s22.167 11 31.5 19z" />
    <glyph glyph-name="Wgrave" unicode="&#x1e80;" horiz-adv-x="893" 
d="M179 0l-171 718h139l117 -536l118 536h129l119 -536l116 536h139l-174 -718h-164l-101 420l-103 -420h-164zM324 952l201 -150l-44 -66l-213 131z" />
    <glyph glyph-name="wgrave" unicode="&#x1e81;" horiz-adv-x="747" 
d="M157 0l-147 559h137l80 -343l80 343h133l80 -343l80 343h137l-150 -559h-136l-77 296l-80 -296h-137zM251 793l201 -150l-44 -66l-213 131z" />
    <glyph glyph-name="Wacute" unicode="&#x1e82;" horiz-adv-x="893" 
d="M179 0l-171 718h139l117 -536l118 536h129l119 -536l116 536h139l-174 -718h-164l-101 420l-103 -420h-164zM625 867l-214 -131l-43 66l201 150z" />
    <glyph glyph-name="wacute" unicode="&#x1e83;" horiz-adv-x="747" 
d="M157 0l-147 559h137l80 -343l80 343h133l80 -343l80 343h137l-150 -559h-136l-77 296l-80 -296h-137zM552 708l-214 -131l-43 66l201 150z" />
    <glyph glyph-name="Wdieresis" unicode="&#x1e84;" horiz-adv-x="893" 
d="M179 0l-171 718h139l117 -536l118 536h129l119 -536l116 536h139l-174 -718h-164l-101 420l-103 -420h-164zM543 785c-21.333 0 -38.001 7.99902 -50.001 23.999s-18 35.333 -18 58c0 24 6 43.833 18 59.5s28.667 23.5 50 23.5c16.667 0 32.167 -7.83301 46.5 -23.5
s21.5 -35.5 21.5 -59.5c0 -11.333 -2 -22 -6 -32s-9.16699 -18.667 -15.5 -26s-13.666 -13.166 -21.999 -17.499s-16.5 -6.5 -24.5 -6.5zM348.999 784.999c-21.333 0 -38.001 7.99902 -50.001 23.999s-18 35.333 -18 58c0 24 6 43.833 18 59.5s28.667 23.5 50 23.5
c16.667 0 32.167 -7.83301 46.5 -23.5s21.5 -35.5 21.5 -59.5c0 -11.333 -2 -22 -6 -32s-9.16699 -18.667 -15.5 -26s-13.666 -13.166 -21.999 -17.499s-16.5 -6.5 -24.5 -6.5z" />
    <glyph glyph-name="wdieresis" unicode="&#x1e85;" horiz-adv-x="747" 
d="M157 0l-147 559h137l80 -343l80 343h133l80 -343l80 343h137l-150 -559h-136l-77 296l-80 -296h-137zM470 626c-21.333 0 -38.001 7.99902 -50.001 23.999s-18 35.333 -18 58c0 24 6 43.833 18 59.5s28.667 23.5 50 23.5c16.667 0 32.167 -7.83301 46.5 -23.5
s21.5 -35.5 21.5 -59.5c0 -11.333 -2 -22 -6 -32s-9.16699 -18.667 -15.5 -26s-13.666 -13.166 -21.999 -17.499s-16.5 -6.5 -24.5 -6.5zM275.999 625.999c-21.333 0 -38.001 7.99902 -50.001 23.999s-18 35.333 -18 58c0 24 6 43.833 18 59.5s28.667 23.5 50 23.5
c16.667 0 32.167 -7.83301 46.5 -23.5s21.5 -35.5 21.5 -59.5c0 -11.333 -2 -22 -6 -32s-9.16699 -18.667 -15.5 -26s-13.666 -13.166 -21.999 -17.499s-16.5 -6.5 -24.5 -6.5z" />
    <glyph glyph-name="Ygrave" unicode="&#x1ef2;" horiz-adv-x="572" 
d="M357 275v-275h-141v273l-212 445h145l138 -300l138 300h143zM163 952l201 -150l-44 -66l-213 131z" />
    <glyph glyph-name="ygrave" unicode="&#x1ef3;" horiz-adv-x="475" 
d="M104 -233l69 243l-163 549h137l93 -363l89 363h136l-226 -792h-135zM115 793l201 -150l-44 -66l-213 131z" />
    <glyph glyph-name="endash" unicode="&#x2013;" horiz-adv-x="521" 
d="M22 450h477v-127h-477v127z" />
    <glyph glyph-name="emdash" unicode="&#x2014;" horiz-adv-x="913" 
d="M22 450h869v-127h-869v127z" />
    <glyph glyph-name="quoteleft" unicode="&#x2018;" horiz-adv-x="185" 
d="M93 542c-20.667 0 -37 7.99902 -49 23.999s-18 35.667 -18 59c0 102.667 38 158.667 114 168v-42c-14.667 -4 -25.5 -8.83301 -32.5 -14.5s-12.167 -15.5 -15.5 -29.5h5c8 0 16 -2.33301 24 -7s15.167 -10.667 21.5 -18s11.5 -16 15.5 -26s6 -20.333 6 -31
c0 -12 -2 -23 -6 -33s-9.16699 -18.667 -15.5 -26s-13.833 -13.166 -22.5 -17.499s-17.667 -6.5 -27 -6.5z" />
    <glyph glyph-name="quoteright" unicode="&#x2019;" horiz-adv-x="187" 
d="M46 540c14 2 25 6.16797 33 12.501s13 16.5 15 30.5h-1c-21.333 0 -38.666 7.66699 -51.999 23s-20 34.666 -20 57.999c0 24.667 6.66699 44.667 20 60s30.666 23 51.999 23c18.667 0 34.667 -7.66699 48 -23s20 -35.333 20 -60c0 -44.667 -9.5 -82.5 -28.5 -113.5
s-47.833 -49.167 -86.5 -54.5v44z" />
    <glyph glyph-name="quotesinglbase" unicode="&#x201a;" horiz-adv-x="185" 
d="M40 -48c14.667 4.66699 26.168 10.1699 34.501 16.5029s13.5 16.833 15.5 31.5h-2c-20.667 0 -37 8 -49 24s-18 35.333 -18 58c0 24 6.33301 43.833 19 59.5s29.334 23.5 50.001 23.5c17.333 0 33.166 -7.83301 47.499 -23.5s21.5 -35.5 21.5 -59.5
c0 -20.667 -2.33301 -40.834 -7 -60.501s-11.834 -37.334 -21.501 -53.001s-22 -28.334 -37 -38.001s-32.833 -15.167 -53.5 -16.5v38z" />
    <glyph glyph-name="quotedblleft" unicode="&#x201c;" horiz-adv-x="370" 
d="M93 542c-20.667 0 -37 7.99902 -49 23.999s-18 35.667 -18 59c0 102.667 38 158.667 114 168v-42c-14.667 -4 -25.5 -8.83301 -32.5 -14.5s-12.167 -15.5 -15.5 -29.5h5c8 0 16 -2.33301 24 -7s15.167 -10.667 21.5 -18s11.5 -16 15.5 -26s6 -20.333 6 -31
c0 -12 -2 -23 -6 -33s-9.16699 -18.667 -15.5 -26s-13.833 -13.166 -22.5 -17.499s-17.667 -6.5 -27 -6.5zM278 541.999c-20.667 0 -37 7.99902 -49 23.999s-18 35.667 -18 59c0 102.667 38 158.667 114 168v-42c-14.667 -4 -25.5 -8.83301 -32.5 -14.5
s-12.167 -15.5 -15.5 -29.5h5c8 0 16 -2.33301 24 -7s15.167 -10.667 21.5 -18s11.5 -16 15.5 -26s6 -20.333 6 -31c0 -12 -2 -23 -6 -33s-9.16699 -18.667 -15.5 -26s-13.833 -13.166 -22.5 -17.499s-17.667 -6.5 -27 -6.5z" />
    <glyph glyph-name="quotedblright" unicode="&#x201d;" horiz-adv-x="374" 
d="M46 540c14 2 25 6.16797 33 12.501s13 16.5 15 30.5h-1c-21.333 0 -38.666 7.66699 -51.999 23s-20 34.666 -20 57.999c0 24.667 6.66699 44.667 20 60s30.666 23 51.999 23c18.667 0 34.667 -7.66699 48 -23s20 -35.333 20 -60c0 -44.667 -9.5 -82.5 -28.5 -113.5
s-47.833 -49.167 -86.5 -54.5v44zM233 540.001c14 2 25 6.16797 33 12.501s13 16.5 15 30.5h-1c-21.333 0 -38.666 7.66699 -51.999 23s-20 34.666 -20 57.999c0 24.667 6.66699 44.667 20 60s30.666 23 51.999 23c18.667 0 34.667 -7.66699 48 -23s20 -35.333 20 -60
c0 -44.667 -9.5 -82.5 -28.5 -113.5s-47.833 -49.167 -86.5 -54.5v44z" />
    <glyph glyph-name="quotedblbase" unicode="&#x201e;" horiz-adv-x="370" 
d="M40 -48c14.667 4.66699 26.168 10.1699 34.501 16.5029s13.5 16.833 15.5 31.5h-2c-20.667 0 -37 8 -49 24s-18 35.333 -18 58c0 24 6.33301 43.833 19 59.5s29.334 23.5 50.001 23.5c17.333 0 33.166 -7.83301 47.499 -23.5s21.5 -35.5 21.5 -59.5
c0 -20.667 -2.33301 -40.834 -7 -60.501s-11.834 -37.334 -21.501 -53.001s-22 -28.334 -37 -38.001s-32.833 -15.167 -53.5 -16.5v38zM225.001 -47.9971c14.667 4.66699 26.168 10.1699 34.501 16.5029s13.5 16.833 15.5 31.5h-2c-20.667 0 -37 8 -49 24s-18 35.333 -18 58
c0 24 6.33301 43.833 19 59.5s29.334 23.5 50.001 23.5c17.333 0 33.166 -7.83301 47.499 -23.5s21.5 -35.5 21.5 -59.5c0 -20.667 -2.33301 -40.834 -7 -60.501s-11.834 -37.334 -21.501 -53.001s-22 -28.334 -37 -38.001s-32.833 -15.167 -53.5 -16.5v38z" />
    <glyph glyph-name="dagger" unicode="&#x2020;" horiz-adv-x="445" 
d="M59 579h112v139h106v-139h109v-105h-109v-474h-106v474h-112v105z" />
    <glyph glyph-name="daggerdbl" unicode="&#x2021;" horiz-adv-x="445" 
d="M59 244h112v230h-112v105h112v139h106v-139h109v-105h-109v-230h109v-105h-109v-139h-106v139h-112v105z" />
    <glyph glyph-name="bullet" unicode="&#x2022;" horiz-adv-x="460" 
d="M71 354c0 21.333 4.16699 41.666 12.5 60.999s19.666 36.166 33.999 50.499s31.166 25.833 50.499 34.5s40 13 62 13s42.667 -4.33301 62 -13s36.166 -20.167 50.499 -34.5s25.666 -31.166 33.999 -50.499s12.5 -39.666 12.5 -60.999c0 -22 -4.16699 -42.833 -12.5 -62.5
s-19.666 -36.667 -33.999 -51s-31.166 -25.666 -50.499 -33.999s-40 -12.5 -62 -12.5s-42.667 4.16699 -62 12.5s-36.166 19.666 -50.499 33.999s-25.666 31.333 -33.999 51s-12.5 40.5 -12.5 62.5z" />
    <glyph glyph-name="ellipsis" unicode="&#x2026;" horiz-adv-x="1006" 
d="M129 0c-21.333 0 -38.001 7.99902 -50.001 23.999s-18 35.333 -18 58c0 24 6 43.833 18 59.5s28.667 23.5 50 23.5c16.667 0 32.167 -7.83301 46.5 -23.5s21.5 -35.5 21.5 -59.5c0 -11.333 -2 -22 -6 -32s-9.16699 -18.667 -15.5 -26s-13.666 -13.166 -21.999 -17.499
s-16.5 -6.5 -24.5 -6.5zM502.999 -0.000976562c-21.333 0 -38.001 7.99902 -50.001 23.999s-18 35.333 -18 58c0 24 6 43.833 18 59.5s28.667 23.5 50 23.5c16.667 0 32.167 -7.83301 46.5 -23.5s21.5 -35.5 21.5 -59.5c0 -11.333 -2 -22 -6 -32s-9.16699 -18.667 -15.5 -26
s-13.666 -13.166 -21.999 -17.499s-16.5 -6.5 -24.5 -6.5zM876.998 -0.00195312c-21.333 0 -38.001 7.99902 -50.001 23.999s-18 35.333 -18 58c0 24 6 43.833 18 59.5s28.667 23.5 50 23.5c16.667 0 32.167 -7.83301 46.5 -23.5s21.5 -35.5 21.5 -59.5
c0 -11.333 -2 -22 -6 -32s-9.16699 -18.667 -15.5 -26s-13.666 -13.166 -21.999 -17.499s-16.5 -6.5 -24.5 -6.5z" />
    <glyph glyph-name="perthousand" unicode="&#x2030;" horiz-adv-x="1092" 
d="M199 654c-46 0 -69 -41.333 -69 -124c0 -83.333 23 -125 69 -125c46.667 0 70 41.667 70 125c0 42 -5.33301 73.167 -16 93.5s-28.667 30.5 -54 30.5zM200 324c-48 0 -85 17.667 -111 53s-39 86.333 -39 153c0 64.667 12.333 114.667 37 150s62 53 112 53
s87.333 -17.667 112 -53s37 -85.333 37 -150c0 -66 -12.167 -116.833 -36.5 -152.5s-61.5 -53.5 -111.5 -53.5zM52 0l563 718h106l-565 -718h-104zM575 314c-46 0 -69 -41.333 -69 -124c0 -83.333 23 -125 69 -125c46.667 0 70 41.667 70 125c0 42 -5.33301 73.167 -16 93.5
s-28.667 30.5 -54 30.5zM576 -16c-48 0 -85 17.667 -111 53s-39 86.333 -39 153c0 64.667 12.333 114.667 37 150s62 53 112 53s87.333 -17.667 112 -53s37 -85.333 37 -150c0 -66 -12.167 -116.833 -36.5 -152.5s-61.5 -53.5 -111.5 -53.5zM894 314
c-46 0 -69 -41.333 -69 -124c0 -83.333 23 -125 69 -125c46.667 0 70 41.667 70 125c0 42 -5.33301 73.167 -16 93.5s-28.667 30.5 -54 30.5zM895 -16c-48 0 -85 17.667 -111 53s-39 86.333 -39 153c0 64.667 12.333 114.667 37 150s62 53 112 53s87.333 -17.667 112 -53
s37 -85.333 37 -150c0 -66 -12.167 -116.833 -36.5 -152.5s-61.5 -53.5 -111.5 -53.5z" />
    <glyph glyph-name="guilsinglleft" unicode="&#x2039;" horiz-adv-x="307" 
d="M140 339l124 -57v-90l-211 105v84l211 109v-93z" />
    <glyph glyph-name="guilsinglright" unicode="&#x203a;" horiz-adv-x="307" 
d="M176 342l-123 57v91l211 -106v-83l-211 -109v92z" />
    <glyph glyph-name="fraction" unicode="&#x2044;" horiz-adv-x="240" 
d="M-214 0l563 718h106l-565 -718h-104z" />
    <glyph glyph-name="zerosuperior" unicode="&#x2070;" horiz-adv-x="377" 
d="M187 654c-46 0 -69 -41.333 -69 -124c0 -83.333 23 -125 69 -125c46.667 0 70 41.667 70 125c0 42 -5.33301 73.167 -16 93.5s-28.667 30.5 -54 30.5zM188 324c-48 0 -85 17.667 -111 53s-39 86.333 -39 153c0 64.667 12.333 114.667 37 150s62 53 112 53
s87.333 -17.667 112 -53s37 -85.333 37 -150c0 -66 -12.167 -116.833 -36.5 -152.5s-61.5 -53.5 -111.5 -53.5z" />
    <glyph glyph-name="foursuperior" unicode="&#x2074;" horiz-adv-x="335" 
d="M177 506v92l-62 -92h62zM257 426v-97h-80v97h-152v72l152 230h80v-222h42v-80h-42z" />
    <glyph glyph-name="fivesuperior" unicode="&#x2075;" horiz-adv-x="336" 
d="M158 325c-22 0 -42.6689 2.83301 -62.002 8.5s-38.666 15.167 -57.999 28.5l39 78c17.333 -12 32.166 -20.5 44.499 -25.5s23.833 -7.5 34.5 -7.5c17.333 0 31.833 4.66699 43.5 14s17.5 24.333 17.5 45c0 20 -4.83301 34.833 -14.5 44.5s-21.167 14.5 -34.5 14.5
s-23.5 -2.33301 -30.5 -7s-14.167 -12.667 -21.5 -24l-72 33l17 201h212v-80h-141l-5 -50c6.66699 3.33301 13.834 5.5 21.501 6.5s14.834 1.5 21.501 1.5c40.667 0 71.834 -11.833 93.501 -35.5s32.5 -56.5 32.5 -98.5c0 -48 -11.833 -84.5 -35.5 -109.5
s-57.834 -37.5 -102.501 -37.5z" />
    <glyph glyph-name="sixsuperior" unicode="&#x2076;" horiz-adv-x="318" 
d="M160 521c-14 0 -25 -5 -33 -15s-12 -24.333 -12 -43s4 -33.167 12 -43.5s19 -15.5 33 -15.5c14.667 0 26 5.16699 34 15.5s12 24.5 12 42.5c0 18.667 -4.16699 33.167 -12.5 43.5s-19.5 15.5 -33.5 15.5zM160 324c-40 0 -70.835 14.501 -92.502 43.501
s-32.5 68.5 -32.5 118.5c0 32.667 4.5 63.667 13.5 93s21.5 55 37.5 77s34.833 39.667 56.5 53s45.167 20.666 70.5 21.999l13 -77c-21.333 -2 -40.666 -8.16699 -57.999 -18.5s-30.666 -26.833 -39.999 -49.5c14.667 8 29 12 43 12c34 0 61 -11.833 81 -35.5
s30 -55.5 30 -95.5c0 -95.333 -40.667 -143 -122 -143z" />
    <glyph glyph-name="sevensuperior" unicode="&#x2077;" horiz-adv-x="313" 
d="M85 330c3.33301 64 12.501 123.832 27.501 179.499s36.5 101.834 64.5 138.501h-143v80h249v-82c-16 -14 -30.833 -32.333 -44.5 -55s-25.5 -48 -35.5 -76s-17.833 -57.833 -23.5 -89.5s-8.83398 -63.5 -9.50098 -95.5h-85z" />
    <glyph glyph-name="eightsuperior" unicode="&#x2078;" horiz-adv-x="321" 
d="M160 660c-8.66699 0 -15.333 -3.33301 -20 -10s-7 -14.667 -7 -24c0 -10 2.5 -18.167 7.5 -24.5s11.5 -9.5 19.5 -9.5c9.33301 0 16.333 3.16699 21 9.5s7 14.5 7 24.5s-2.33301 18.167 -7 24.5s-11.667 9.5 -21 9.5zM160.001 510c-12.667 0 -23.166 -4.5 -31.499 -13.5
s-12.5 -22.167 -12.5 -39.5c0 -15.333 4.16699 -27.833 12.5 -37.5s18.833 -14.5 31.5 -14.5c13.333 0 24.166 4.66699 32.499 14s12.5 22 12.5 38c0 35.333 -15 53 -45 53zM160.002 324c-38.667 0 -69.166 11.332 -91.499 33.999s-33.5 55 -33.5 97
c0 23.333 4.5 44.333 13.5 63s20.5 32.667 34.5 42c-8.66699 10 -14.5 20.833 -17.5 32.5s-4.5 23.834 -4.5 36.501c0 32 8.66699 57.5 26 76.5s41.333 28.5 72 28.5c68.667 0 103 -35 103 -105c0 -14 -1.5 -26.667 -4.5 -38s-9.16699 -22 -18.5 -32
c16 -9.33301 27.833 -23.5 35.5 -42.5s11.5 -39.5 11.5 -61.5c0 -42 -11.333 -74.333 -34 -97s-53.334 -34 -92.001 -34z" />
    <glyph glyph-name="ninesuperior" unicode="&#x2079;" horiz-adv-x="320" 
d="M154 539c14 0 25.333 4.83496 34 14.502s13 23.5 13 41.5c0 19.333 -4 33.666 -12 42.999s-18.667 14 -32 14c-14 0 -25.333 -4.66699 -34 -14s-13 -23.333 -13 -42s4 -32.834 12 -42.501s18.667 -14.5 32 -14.5zM161 733.002c38.667 0 68.498 -14.334 89.498 -43.001
s31.5 -68 31.5 -118c0 -31.333 -4.5 -61.666 -13.5 -90.999s-21.667 -55.333 -38 -78s-35.666 -41 -57.999 -55s-46.5 -21.333 -72.5 -22l-9 75c20.667 2 39.5 8.83301 56.5 20.5s30.167 28.167 39.5 49.5c-13.333 -7.33301 -27.666 -11 -42.999 -11c-34 0 -61 12 -81 36
s-30 56 -30 96c0 48 11.333 83.5 34 106.5s54 34.5 94 34.5z" />
    <glyph glyph-name="zeroinferior" unicode="&#x2080;" horiz-adv-x="377" 
d="M187 314c-46 0 -69 -41.333 -69 -124c0 -83.333 23 -125 69 -125c46.667 0 70 41.667 70 125c0 42 -5.33301 73.167 -16 93.5s-28.667 30.5 -54 30.5zM188 -16c-48 0 -85 17.667 -111 53s-39 86.333 -39 153c0 64.667 12.333 114.667 37 150s62 53 112 53
s87.333 -17.667 112 -53s37 -85.333 37 -150c0 -66 -12.167 -116.833 -36.5 -152.5s-61.5 -53.5 -111.5 -53.5z" />
    <glyph glyph-name="oneinferior" unicode="&#x2081;" horiz-adv-x="186" 
d="M60 280h-34v74c26.667 2.66699 42 14 46 34h67v-398h-79v290z" />
    <glyph glyph-name="twoinferior" unicode="&#x2082;" horiz-adv-x="325" 
d="M39 32c0 27.333 2.49902 50.5039 7.49902 69.5039s11.5 35 19.5 48s17.167 23.667 27.5 32s21.166 15.5 32.499 21.5l35.5 19c9.66699 5.33301 17.5 10.5 23.5 15.5s10.333 10.5 13 16.5s4 13 4 21c0 22.667 -13 34 -39 34c-13.333 0 -25.333 -3.33301 -36 -10
s-22.334 -19.667 -35.001 -39l-54 73c15.333 21.333 33.5 36.666 54.5 45.999s45.5 14 73.5 14c16.667 0 32 -2.16699 46 -6.5s26.333 -11.166 37 -20.499s19 -21.333 25 -36s9 -32.334 9 -53.001c0 -18 -2.16699 -33.5 -6.5 -46.5s-10.166 -24.333 -17.499 -34
s-16.166 -18.334 -26.499 -26.001s-21.833 -14.834 -34.5 -21.501c-13.333 -7.33301 -24.166 -13.833 -32.499 -19.5s-15.166 -11.5 -20.499 -17.5s-9.33301 -12.333 -12 -19s-4.33398 -14.334 -5.00098 -23.001h155v-80h-244v42z" />
    <glyph glyph-name="threeinferior" unicode="&#x2083;" horiz-adv-x="317" 
d="M151 -16c-28 0 -51.5 6.49902 -70.5 19.499s-35.167 31.167 -48.5 54.5l69 48c6 -12.667 13.167 -22.667 21.5 -30s18.166 -11 29.499 -11c13.333 0 24.333 4.33301 33 13s13 20 13 34c0 20.667 -4.5 34.5 -13.5 41.5s-20.833 10.5 -35.5 10.5h-35v81h35
c9.33301 0 17 3 23 9s9 15.667 9 29c0 20.667 -10.333 31 -31 31c-16 0 -26.333 -9 -31 -27l-70 27c18.667 52.667 52.667 79 102 79c34 0 60.167 -8.66699 78.5 -26s27.5 -44 27.5 -80c0 -16.667 -3.16699 -31.334 -9.5 -44.001s-14.166 -22.667 -23.499 -30
c17.333 -9.33301 30.833 -21.666 40.5 -36.999s14.5 -34.666 14.5 -57.999c0 -46 -10.833 -79.667 -32.5 -101s-53.5 -32.333 -95.5 -33z" />
    <glyph glyph-name="fourinferior" unicode="&#x2084;" horiz-adv-x="335" 
d="M177 166v92l-62 -92h62zM257 86v-97h-80v97h-152v72l152 230h80v-222h42v-80h-42z" />
    <glyph glyph-name="fiveinferior" unicode="&#x2085;" horiz-adv-x="336" 
d="M158 -15c-22 0 -42.6689 2.83301 -62.002 8.5s-38.666 15.167 -57.999 28.5l39 78c17.333 -12 32.166 -20.5 44.499 -25.5s23.833 -7.5 34.5 -7.5c17.333 0 31.833 4.66699 43.5 14s17.5 24.333 17.5 45c0 20 -4.83301 34.833 -14.5 44.5s-21.167 14.5 -34.5 14.5
s-23.5 -2.33301 -30.5 -7s-14.167 -12.667 -21.5 -24l-72 33l17 201h212v-80h-141l-5 -50c6.66699 3.33301 13.834 5.5 21.501 6.5s14.834 1.5 21.501 1.5c40.667 0 71.834 -11.833 93.501 -35.5s32.5 -56.5 32.5 -98.5c0 -48 -11.833 -84.5 -35.5 -109.5
s-57.834 -37.5 -102.501 -37.5z" />
    <glyph glyph-name="sixinferior" unicode="&#x2086;" horiz-adv-x="318" 
d="M160 181c-14 0 -25 -5 -33 -15s-12 -24.333 -12 -43s4 -33.167 12 -43.5s19 -15.5 33 -15.5c14.667 0 26 5.16699 34 15.5s12 24.5 12 42.5c0 18.667 -4.16699 33.167 -12.5 43.5s-19.5 15.5 -33.5 15.5zM160 -16c-40 0 -70.835 14.501 -92.502 43.501
s-32.5 68.5 -32.5 118.5c0 32.667 4.5 63.667 13.5 93s21.5 55 37.5 77s34.833 39.667 56.5 53s45.167 20.666 70.5 21.999l13 -77c-21.333 -2 -40.666 -8.16699 -57.999 -18.5s-30.666 -26.833 -39.999 -49.5c14.667 8 29 12 43 12c34 0 61 -11.833 81 -35.5
s30 -55.5 30 -95.5c0 -95.333 -40.667 -143 -122 -143z" />
    <glyph glyph-name="seveninferior" unicode="&#x2087;" horiz-adv-x="313" 
d="M85 -10c3.33301 64 12.501 123.832 27.501 179.499s36.5 101.834 64.5 138.501h-143v80h249v-82c-16 -14 -30.833 -32.333 -44.5 -55s-25.5 -48 -35.5 -76s-17.833 -57.833 -23.5 -89.5s-8.83398 -63.5 -9.50098 -95.5h-85z" />
    <glyph glyph-name="eightinferior" unicode="&#x2088;" horiz-adv-x="321" 
d="M160 320c-8.66699 0 -15.333 -3.33301 -20 -10s-7 -14.667 -7 -24c0 -10 2.5 -18.167 7.5 -24.5s11.5 -9.5 19.5 -9.5c9.33301 0 16.333 3.16699 21 9.5s7 14.5 7 24.5s-2.33301 18.167 -7 24.5s-11.667 9.5 -21 9.5zM160.001 170c-12.667 0 -23.166 -4.5 -31.499 -13.5
s-12.5 -22.167 -12.5 -39.5c0 -15.333 4.16699 -27.833 12.5 -37.5s18.833 -14.5 31.5 -14.5c13.333 0 24.166 4.66699 32.499 14s12.5 22 12.5 38c0 35.333 -15 53 -45 53zM160.002 -16c-38.667 0 -69.166 11.332 -91.499 33.999s-33.5 55 -33.5 97
c0 23.333 4.5 44.333 13.5 63s20.5 32.667 34.5 42c-8.66699 10 -14.5 20.833 -17.5 32.5s-4.5 23.834 -4.5 36.501c0 32 8.66699 57.5 26 76.5s41.333 28.5 72 28.5c68.667 0 103 -35 103 -105c0 -14 -1.5 -26.667 -4.5 -38s-9.16699 -22 -18.5 -32
c16 -9.33301 27.833 -23.5 35.5 -42.5s11.5 -39.5 11.5 -61.5c0 -42 -11.333 -74.333 -34 -97s-53.334 -34 -92.001 -34z" />
    <glyph glyph-name="nineinferior" unicode="&#x2089;" horiz-adv-x="320" 
d="M154 199c14 0 25.333 4.83496 34 14.502s13 23.5 13 41.5c0 19.333 -4 33.666 -12 42.999s-18.667 14 -32 14c-14 0 -25.333 -4.66699 -34 -14s-13 -23.333 -13 -42s4 -32.834 12 -42.501s18.667 -14.5 32 -14.5zM161 393.002c38.667 0 68.498 -14.334 89.498 -43.001
s31.5 -68 31.5 -118c0 -31.333 -4.5 -61.666 -13.5 -90.999s-21.667 -55.333 -38 -78s-35.666 -41 -57.999 -55s-46.5 -21.333 -72.5 -22l-9 75c20.667 2 39.5 8.83301 56.5 20.5s30.167 28.167 39.5 49.5c-13.333 -7.33301 -27.666 -11 -42.999 -11c-34 0 -61 12 -81 36
s-30 56 -30 96c0 48 11.333 83.5 34 106.5s54 34.5 94 34.5z" />
    <glyph glyph-name="Euro" unicode="&#x20ac;" horiz-adv-x="631" 
d="M80 493c21.333 78.667 55.1689 137.499 101.502 176.499s103.833 58.5 172.5 58.5c87.333 0 157.333 -29.333 210 -88l-70 -117c-17.333 23.333 -37 39.833 -59 49.5s-49 14.5 -81 14.5c-30 0 -55.667 -7.16699 -77 -21.5s-38.666 -38.5 -51.999 -72.5h253l-64 -102h-219
v-56h196l-62 -105h-102c12.667 -34 30.167 -58.833 52.5 -74.5s48.5 -23.5 78.5 -23.5c12 0 24.167 1.83301 36.5 5.5s24.166 8.5 35.499 14.5s22.166 13 32.499 21s19.166 16 26.499 24l107 -73c-60 -89.333 -140.667 -134 -242 -134c-66 0 -122.833 20.833 -170.5 62.5
s-82.167 100.834 -103.5 177.501h-64l15 105h30v56h-45l15 102h49z" />
    <glyph glyph-name="trademark" unicode="&#x2122;" horiz-adv-x="887" 
d="M254 621v-373h-103v373h-116v97h334v-97h-115zM729 493l-88 -245h-17l-96 249v-249h-97v470h117l84 -234l83 234h112v-470h-98v245z" />
    <glyph glyph-name="onethird" unicode="&#x2153;" horiz-adv-x="812" 
d="M138 620h-34v74c26.667 2.66699 42 14 46 34h67v-398h-79v290zM50 0l563 718h106l-565 -718h-104zM635 -16c-28 0 -51.5 6.49902 -70.5 19.499s-35.167 31.167 -48.5 54.5l69 48c6 -12.667 13.167 -22.667 21.5 -30s18.166 -11 29.499 -11c13.333 0 24.333 4.33301 33 13
s13 20 13 34c0 20.667 -4.5 34.5 -13.5 41.5s-20.833 10.5 -35.5 10.5h-35v81h35c9.33301 0 17 3 23 9s9 15.667 9 29c0 20.667 -10.333 31 -31 31c-16 0 -26.333 -9 -31 -27l-70 27c18.667 52.667 52.667 79 102 79c34 0 60.167 -8.66699 78.5 -26s27.5 -44 27.5 -80
c0 -16.667 -3.16699 -31.334 -9.5 -44.001s-14.166 -22.667 -23.499 -30c17.333 -9.33301 30.833 -21.666 40.5 -36.999s14.5 -34.666 14.5 -57.999c0 -46 -10.833 -79.667 -32.5 -101s-53.5 -32.333 -95.5 -33z" />
    <glyph glyph-name="twothirds" unicode="&#x2154;" horiz-adv-x="885" 
d="M51 372c0 27.333 2.49902 50.5039 7.49902 69.5039s11.5 35 19.5 48s17.167 23.667 27.5 32s21.166 15.5 32.499 21.5l35.5 19c9.66699 5.33301 17.5 10.5 23.5 15.5s10.333 10.5 13 16.5s4 13 4 21c0 22.667 -13 34 -39 34c-13.333 0 -25.333 -3.33301 -36 -10
s-22.334 -19.667 -35.001 -39l-54 73c15.333 21.333 33.5 36.666 54.5 45.999s45.5 14 73.5 14c16.667 0 32 -2.16699 46 -6.5s26.333 -11.166 37 -20.499s19 -21.333 25 -36s9 -32.334 9 -53.001c0 -18 -2.16699 -33.5 -6.5 -46.5s-10.166 -24.333 -17.499 -34
s-16.166 -18.334 -26.499 -26.001s-21.833 -14.834 -34.5 -21.501c-13.333 -7.33301 -24.166 -13.833 -32.499 -19.5s-15.166 -11.5 -20.499 -17.5s-9.33301 -12.333 -12 -19s-4.33398 -14.334 -5.00098 -23.001h155v-80h-244v42zM122.999 0.00390625l563 718h106l-565 -718
h-104zM707.999 -15.9961c-28 0 -51.5 6.49902 -70.5 19.499s-35.167 31.167 -48.5 54.5l69 48c6 -12.667 13.167 -22.667 21.5 -30s18.166 -11 29.499 -11c13.333 0 24.333 4.33301 33 13s13 20 13 34c0 20.667 -4.5 34.5 -13.5 41.5s-20.833 10.5 -35.5 10.5h-35v81h35
c9.33301 0 17 3 23 9s9 15.667 9 29c0 20.667 -10.333 31 -31 31c-16 0 -26.333 -9 -31 -27l-70 27c18.667 52.667 52.667 79 102 79c34 0 60.167 -8.66699 78.5 -26s27.5 -44 27.5 -80c0 -16.667 -3.16699 -31.334 -9.5 -44.001s-14.166 -22.667 -23.499 -30
c17.333 -9.33301 30.833 -21.666 40.5 -36.999s14.5 -34.666 14.5 -57.999c0 -46 -10.833 -79.667 -32.5 -101s-53.5 -32.333 -95.5 -33z" />
    <glyph glyph-name="oneeighth" unicode="&#x215b;" horiz-adv-x="819" 
d="M138 620h-34v74c26.667 2.66699 42 14 46 34h67v-398h-79v290zM50 0l563 718h106l-565 -718h-104zM644 320c-8.66699 0 -15.333 -3.33301 -20 -10s-7 -14.667 -7 -24c0 -10 2.5 -18.167 7.5 -24.5s11.5 -9.5 19.5 -9.5c9.33301 0 16.333 3.16699 21 9.5s7 14.5 7 24.5
s-2.33301 18.167 -7 24.5s-11.667 9.5 -21 9.5zM644.001 170c-12.667 0 -23.166 -4.5 -31.499 -13.5s-12.5 -22.167 -12.5 -39.5c0 -15.333 4.16699 -27.833 12.5 -37.5s18.833 -14.5 31.5 -14.5c13.333 0 24.166 4.66699 32.499 14s12.5 22 12.5 38c0 35.333 -15 53 -45 53
zM644.002 -16c-38.667 0 -69.166 11.332 -91.499 33.999s-33.5 55 -33.5 97c0 23.333 4.5 44.333 13.5 63s20.5 32.667 34.5 42c-8.66699 10 -14.5 20.833 -17.5 32.5s-4.5 23.834 -4.5 36.501c0 32 8.66699 57.5 26 76.5s41.333 28.5 72 28.5c68.667 0 103 -35 103 -105
c0 -14 -1.5 -26.667 -4.5 -38s-9.16699 -22 -18.5 -32c16 -9.33301 27.833 -23.5 35.5 -42.5s11.5 -39.5 11.5 -61.5c0 -42 -11.333 -74.333 -34 -97s-53.334 -34 -92.001 -34z" />
    </font>
</defs>
</svg>
