<?xml version="1.0" encoding="utf-8"?>
<!-- Generator: Adobe Illustrator 20.1.0, SVG Export Plug-In . SVG Version: 6.00 Build 0)  -->
<svg version="1.1" xmlns="http://www.w3.org/2000/svg" xmlns:xlink="http://www.w3.org/1999/xlink" x="0px" y="0px" width="27px"
	 height="27px" viewBox="0 0 27 27" enable-background="new 0 0 27 27" xml:space="preserve">
<g id="Capa_1">
</g>
<g id="iniciar_sesion">
</g>
<g id="compras">
	<g>
		<path d="M18.6,8.4C18.1,4.2,16.4,2,13.5,2c-2.9,0-4.6,2.1-5.1,6.3H5L6.5,25h14L22,8.4H18.6z M13.5,3.2c2.2,0,3.5,1.7,4,5.2H9.5
			C10,4.9,11.3,3.2,13.5,3.2z M19.3,23.7H7.7l-1.3-14h1.8c0,0.2,0,0.5,0,0.7c-0.3,0.2-0.5,0.5-0.5,0.9c0,0.6,0.5,1.1,1.1,1.1
			s1.1-0.5,1.1-1.1c0-0.4-0.2-0.7-0.4-0.9c0-0.3,0-0.5,0-0.8h8.2c0,0.2,0,0.5,0,0.8c-0.3,0.2-0.4,0.5-0.4,0.9c0,0.6,0.5,1.1,1.1,1.1
			s1-0.5,1-1.1c0-0.4-0.2-0.7-0.5-0.9c0-0.3,0-0.5,0-0.7h1.8L19.3,23.7z"/>
		<rect fill="none" width="27" height="27"/>
	</g>
</g>
<g id="Capa_2">
</g>
<g id="español">
</g>
<g id="ingles">
</g>
<g id="buscar">
</g>
<g id="filtrar">
</g>
<g id="facebook">
</g>
<g id="twitter">
</g>
<g id="pinterest">
</g>
<g id="pin_it">
</g>
<g id="compartir">
</g>
<g id="compartir_2">
</g>
<g id="instagram">
</g>
</svg>
