<?xml version="1.0" encoding="utf-8"?>
<!-- Generator: Adobe Illustrator 16.0.0, SVG Export Plug-In . SVG Version: 6.00 Build 0)  -->
<!DOCTYPE svg PUBLIC "-//W3C//DTD SVG 1.1//EN" "http://www.w3.org/Graphics/SVG/1.1/DTD/svg11.dtd">
<svg version="1.1" id="Capa_1" xmlns="http://www.w3.org/2000/svg" xmlns:xlink="http://www.w3.org/1999/xlink" x="0px" y="0px"
	 width="191.243px" height="191.243px" viewBox="0 0 191.243 191.243" enable-background="new 0 0 191.243 191.243"
	 xml:space="preserve">
<circle fill="#FFFFFF" cx="95" cy="96" r="93.243"/>
<g>
	<path fill="#A0A0A0" d="M95,110.795L71.647,151.9c-1.119,1.92-3.198,3.356-5.758,3.356c-5.598,0-13.596-4.637-13.596-10.396
		c0-1.118,0.48-2.397,1.28-3.838l27.67-45.105l-26.71-44.945c-0.959-1.6-1.439-3.038-1.439-4.479c0-5.598,7.357-9.756,13.276-9.756
		c3.198,0,5.438,1.759,6.878,4.479L95,80.405l21.752-39.187c1.601-2.72,3.68-4.479,7.039-4.479c5.918,0,13.273,4.158,13.273,9.756
		c0,1.44-0.479,2.879-1.438,4.479L108.917,95.92l27.67,45.105c0.802,1.438,1.119,2.72,1.119,3.838
		c0,5.759-7.836,10.396-13.596,10.396c-2.559,0-4.639-1.438-5.598-3.356L95,110.795z"/>
</g>
</svg>
