<?xml version="1.0" encoding="utf-8"?>
<!-- Generator: Adobe Illustrator 20.1.0, SVG Export Plug-In . SVG Version: 6.00 Build 0)  -->
<svg version="1.1" xmlns="http://www.w3.org/2000/svg" xmlns:xlink="http://www.w3.org/1999/xlink" x="0px" y="0px" width="27px"
	 height="27px" viewBox="0 0 27 27" enable-background="new 0 0 27 27" xml:space="preserve">
<g id="Capa_1">
</g>
<g id="iniciar_sesion">
</g>
<g id="compras">
</g>
<g id="Capa_2">
</g>
<g id="español">
</g>
<g id="ingles">
	<g>
		<g>
			<g>
				<g>
					<g>
						<path d="M12,11.8v1H8.6v2.5h3.9v1H7.3V8.6h5.2v1H8.6v2.2H12z"/>
					</g>
					<g>
						<path d="M19.7,8.6v7.8h-1.3L15,10.7l0,0v5.7h-1.3V8.6h1.3l3.4,5.7l0,0V8.6H19.7z"/>
					</g>
				</g>
			</g>
			<g>
				<path d="M22.5,5.6c0.6,0,1.1,0.5,1.1,1.1v11.3c0,0.6-0.5,1.1-1.1,1.1H10.7h-0.4L10,19.5l-2.6,2v-1.1v-1.2H6.3H4.5
					c-0.6,0-1.1-0.5-1.1-1.1V6.7c0-0.6,0.5-1.1,1.1-1.1H22.5 M22.5,4.4H4.5c-1.3,0-2.3,1-2.3,2.3v11.3c0,1.3,1,2.3,2.3,2.3h1.8v3.5
					l4.5-3.5h11.8c1.3,0,2.3-1,2.3-2.3V6.7C24.9,5.5,23.8,4.4,22.5,4.4L22.5,4.4z"/>
			</g>
		</g>
		<rect fill="none" width="27" height="27"/>
	</g>
</g>
<g id="buscar">
</g>
<g id="filtrar">
</g>
<g id="facebook">
</g>
<g id="twitter">
</g>
<g id="pinterest">
</g>
<g id="pin_it">
</g>
<g id="compartir">
</g>
<g id="compartir_2">
</g>
<g id="instagram">
</g>
</svg>
