<?xml version="1.0" encoding="utf-8"?>
<!-- Generator: Adobe Illustrator 20.0.0, SVG Export Plug-In . SVG Version: 6.00 Build 0)  -->
<svg version="1.1" id="Layer_1" xmlns="http://www.w3.org/2000/svg" xmlns:xlink="http://www.w3.org/1999/xlink" x="0px" y="0px"
	 viewBox="0 0 119 119" style="enable-background:new 0 0 119 119;" xml:space="preserve">
<style type="text/css">
	.st0{fill:#292C2C;}
</style>
<g>
	<g>
		<g>
			<path class="st0" d="M65.7,64c1-0.6,1.4-1.8,1-2.9c-0.5-1.3-1.9-1.9-3.1-1.4c-1.3,0.5-1.9,1.9-1.4,3.1c0.4,1.1,1.5,1.7,2.7,1.5
				c0.1-0.1,0.3-0.1,0.4-0.2C65.4,64.1,65.5,64.1,65.7,64z"/>
		</g>
		<g>
			<path class="st0" d="M77,29.8c-4.5-12-17.8-18-29.8-13.5c-11.9,4.5-18,17.9-13.5,29.8c4.5,12,17.9,18,29.8,13.5
				C75.5,55.1,81.5,41.8,77,29.8z M61.9,55.2c-9.5,3.6-20.2-1.2-23.7-10.7c-3.6-9.5,1.2-20.2,10.7-23.7C58.4,17.2,69,22,72.6,31.5
				C76.2,41,71.4,51.6,61.9,55.2z"/>
		</g>
		<g>
			<path class="st0" d="M49.8,23.2c-8.1,3.1-12.3,12.2-9.2,20.3c0.1,0.2,0.2,0.3,0.4,0.3c0.1,0,0.3,0,0.4,0c0.3-0.1,0.4-0.4,0.3-0.7
				c-2.8-7.6,1-16,8.5-18.9c0.3-0.1,0.4-0.4,0.3-0.7C50.4,23.3,50.1,23.1,49.8,23.2z"/>
		</g>
		<g>
			<path class="st0" d="M84.7,104.9L70.2,66.4c-0.7-1.9-2.7-2.8-4.5-2.4c-0.1,0.1-0.2,0.2-0.4,0.2c-0.2,0.1-0.3,0-0.5,0.1
				c-1.7,0.9-2.5,2.9-1.8,4.8l14.5,38.5c0.7,2,3,3,5,2.2C84.5,109.1,85.5,106.9,84.7,104.9z"/>
		</g>
	</g>
</g>
</svg>
