<?xml version="1.0" encoding="utf-8"?>
<!-- Generator: Adobe Illustrator 20.0.0, SVG Export Plug-In . SVG Version: 6.00 Build 0)  -->
<svg version="1.1" id="Layer_1" xmlns="http://www.w3.org/2000/svg" xmlns:xlink="http://www.w3.org/1999/xlink" x="0px" y="0px"
	 viewBox="0 0 535.7 119" style="enable-background:new 0 0 535.7 119;" xml:space="preserve">
<style type="text/css">
	.st0{fill:#292C2C;}
	.st1{fill:none;stroke:#292C2C;stroke-miterlimit:10;}
</style>
<g>
	<g>
		<g>
			<g>
				<path class="st0" d="M44.9,60.8c0.8-0.5,1.2-1.5,0.9-2.4c-0.4-1-1.6-1.6-2.6-1.2c-1,0.4-1.6,1.6-1.2,2.6
					c0.3,0.9,1.3,1.4,2.2,1.2c0.1-0.1,0.2-0.1,0.3-0.2C44.6,60.9,44.7,60.8,44.9,60.8z"/>
			</g>
			<g>
				<path class="st0" d="M54.3,32.2c-3.8-10-14.9-15-24.9-11.3c-10,3.8-15,14.9-11.3,24.9c3.8,10,14.9,15,24.9,11.3
					C53,53.4,58.1,42.2,54.3,32.2z M41.7,53.5c-8,3-16.8-1-19.8-9c-3-8,1-16.8,9-19.8c7.9-3,16.8,1,19.8,9
					C53.7,41.6,49.6,50.5,41.7,53.5z"/>
			</g>
			<g>
				<path class="st0" d="M31.6,26.7c-6.8,2.6-10.3,10.2-7.7,17c0.1,0.1,0.2,0.2,0.3,0.3c0.1,0,0.2,0,0.3,0c0.2-0.1,0.4-0.4,0.3-0.6
					c-2.4-6.3,0.8-13.4,7.1-15.8c0.2-0.1,0.4-0.4,0.3-0.6C32.1,26.8,31.9,26.6,31.6,26.7z"/>
			</g>
			<g>
				<path class="st0" d="M60.8,94.9L48.6,62.8c-0.6-1.5-2.2-2.4-3.8-2c-0.1,0.1-0.2,0.2-0.3,0.2c-0.1,0-0.3,0-0.4,0.1
					c-1.4,0.7-2.1,2.4-1.5,4l12.1,32.1c0.6,1.7,2.5,2.5,4.1,1.9C60.5,98.4,61.4,96.6,60.8,94.9z"/>
			</g>
		</g>
	</g>
	<line class="st1" x1="79.7" y1="94.3" x2="518.8" y2="94.3"/>
</g>
</svg>
