<?xml version="1.0" encoding="utf-8"?>
<!-- Generator: Adobe Illustrator 20.1.0, SVG Export Plug-In . SVG Version: 6.00 Build 0)  -->
<svg version="1.1" xmlns="http://www.w3.org/2000/svg" xmlns:xlink="http://www.w3.org/1999/xlink" x="0px" y="0px" width="27px"
	 height="27px" viewBox="0 0 27 27" enable-background="new 0 0 27 27" xml:space="preserve">
<g id="Capa_1">
</g>
<g id="iniciar_sesion">
	<g>
		<g>
			<path d="M18.5,10.2c0.4-0.8,0.6-1.7,0.6-2.6c0-3.1-2.5-5.6-5.6-5.6S7.9,4.5,7.9,7.6c0,0.9,0.2,1.8,0.6,2.6
				c-2.8,0-5.1,2.3-5.1,5.2V25h1.3v-9.7c0-2.1,1.7-3.9,3.9-3.9h0.9c1,1.1,2.5,1.7,4,1.7c1.6,0,3-0.7,4-1.7h0.9
				c2.1,0,3.9,1.7,3.9,3.9V25h1.3v-9.7C23.6,12.5,21.3,10.2,18.5,10.2z M17,10.2c-0.4,0.5-1,1-1.6,1.3c-0.6,0.3-1.2,0.4-1.9,0.4
				c-0.7,0-1.3-0.2-1.9-0.4c-0.6-0.3-1.2-0.7-1.6-1.3C9.5,9.5,9.2,8.6,9.2,7.6c0-2.4,1.9-4.3,4.3-4.3s4.3,1.9,4.3,4.3
				C17.8,8.6,17.5,9.5,17,10.2z"/>
			<rect x="7" y="15.8" width="1.3" height="9.2"/>
			<rect x="18.7" y="15.8" width="1.3" height="9.2"/>
		</g>
		<rect fill="none" width="27" height="27"/>
	</g>
</g>
<g id="compras">
</g>
<g id="Capa_2">
</g>
<g id="español">
</g>
<g id="ingles">
</g>
<g id="buscar">
</g>
<g id="filtrar">
</g>
<g id="facebook">
</g>
<g id="twitter">
</g>
<g id="pinterest">
</g>
<g id="pin_it">
</g>
<g id="compartir">
</g>
<g id="compartir_2">
</g>
<g id="instagram">
</g>
</svg>
