<?xml version="1.0" encoding="utf-8"?>
<!-- Generator: Adobe Illustrator 20.0.0, SVG Export Plug-In . SVG Version: 6.00 Build 0)  -->
<svg version="1.1" id="Layer_1" xmlns="http://www.w3.org/2000/svg" xmlns:xlink="http://www.w3.org/1999/xlink" x="0px" y="0px"
	 viewBox="0 0 119 119" style="enable-background:new 0 0 119 119;" xml:space="preserve">
<style type="text/css">
	.st0{fill-rule:evenodd;clip-rule:evenodd;fill:#FFFFFF;}
</style>
<g>
	<path class="st0" d="M95,26.6c-0.3-6.1-4.1-9.2-7.8-9.2c-4.1,0-27.5,0-27.5,0s-23.1,0-27.2,0c-4.1,0-7.5,3.1-8.2,9.2
		c-0.4,6.1-5.8,65.5-6.1,70.3c-0.4,4.4,3.4,6.8,8.5,6.8c3.1,0,33,0,33,0s30.3,0,33,0c5.4,0,9.2-2.4,8.8-6.8
		C101.1,92.1,95.7,32.7,95,26.6L95,26.6z M42.7,34.7c0,2.4-1.7,4.1-3.7,4.1c-2.4,0-4.1-1.7-4.1-4.1c0-2,1.7-3.7,4.1-3.7
		C40.9,31,42.7,32.7,42.7,34.7L42.7,34.7z M76.3,34.7c0,2.4,1.7,4.1,4.1,4.1c2,0,3.7-1.7,3.7-4.1c0-2-1.7-3.7-3.7-3.7
		C78,31,76.3,32.7,76.3,34.7L76.3,34.7z M59.6,76.5h-0.3H59c-5.4,0-10.2-2-13.6-5.7c-7.1-7.8-8.8-20.7-9.2-28.5
		c-3.1-1-5.4-4.1-5.4-7.5c0-4.4,3.7-7.8,8.2-7.8c4.1,0,7.8,3.4,7.8,7.8c0,3.4-2.4,6.4-5.4,7.5c0.4,7.1,1.7,18.7,7.8,24.8
		c2.7,3,6.1,4.7,10.5,4.7c4.1,0,7.5-1.7,10.2-4.7c6.1-6.1,7.5-17.7,7.8-24.8c-3.1-1-5.1-4.1-5.1-7.5c0-4.4,3.4-7.8,7.8-7.8
		c4.4,0,7.8,3.4,7.8,7.8c0,3.4-2.4,6.4-5.4,7.5c-0.3,7.8-1.7,20.7-9.2,28.5c-3.4,3.7-8.2,5.7-13.6,5.7H59.6z"/>
</g>
</svg>
