<?xml version="1.0" encoding="utf-8"?>
<!-- Generator: Adobe Illustrator 16.0.0, SVG Export Plug-In . SVG Version: 6.00 Build 0)  -->
<!DOCTYPE svg PUBLIC "-//W3C//DTD SVG 1.1//EN" "http://www.w3.org/Graphics/SVG/1.1/DTD/svg11.dtd">
<svg version="1.1" id="Capa_1" xmlns="http://www.w3.org/2000/svg" xmlns:xlink="http://www.w3.org/1999/xlink" x="0px" y="0px"
	 width="191.243px" height="191.243px" viewBox="0 0 191.243 191.243" enable-background="new 0 0 191.243 191.243"
	 xml:space="preserve">
<circle fill="#005F92" cx="95" cy="96" r="93.243"/>
<g>
	<path fill="#FFFFFF" d="M95,110.795l-23.353,41.106c-1.119,1.92-3.198,3.358-5.758,3.358c-5.598,0-13.596-4.638-13.596-10.396
		c0-1.119,0.48-2.398,1.28-3.838l27.67-45.105L54.533,50.975c-0.959-1.6-1.439-3.038-1.439-4.479c0-5.598,7.357-9.756,13.276-9.756
		c3.198,0,5.438,1.759,6.878,4.479L95,80.405l21.753-39.187c1.6-2.72,3.679-4.479,7.038-4.479c5.918,0,13.275,4.158,13.275,9.756
		c0,1.44-0.479,2.879-1.439,4.479L108.916,95.92l27.671,45.105c0.8,1.439,1.119,2.719,1.119,3.838
		c0,5.759-7.837,10.396-13.596,10.396c-2.559,0-4.639-1.438-5.598-3.358L95,110.795z"/>
</g>
</svg>
