<?xml version="1.0" encoding="utf-8"?>
<!-- Generator: Adobe Illustrator 20.1.0, SVG Export Plug-In . SVG Version: 6.00 Build 0)  -->
<svg version="1.1" xmlns="http://www.w3.org/2000/svg" xmlns:xlink="http://www.w3.org/1999/xlink" x="0px" y="0px" width="27px"
	 height="27px" viewBox="0 0 27 27" enable-background="new 0 0 27 27" xml:space="preserve">
<g id="Capa_1">
</g>
<g id="iniciar_sesion">
</g>
<g id="compras">
</g>
<g id="Capa_2">
</g>
<g id="español">
	<g>
		<g>
			<g>
				<g>
					<g>
						<path d="M12.3,11.8v1H8.9v2.5h3.9v1H7.6V8.6h5.2v1H8.9v2.2H12.3z"/>
					</g>
					<g>
						<path d="M17.7,15.2c0.3-0.2,0.4-0.5,0.4-0.8c0-0.3-0.1-0.6-0.4-0.8c-0.2-0.2-0.7-0.4-1.3-0.6c-0.9-0.2-1.6-0.6-2-0.9
							c-0.5-0.4-0.7-0.9-0.7-1.5c0-0.6,0.3-1.1,0.8-1.5c0.5-0.4,1.2-0.6,2-0.6c0.8,0,1.5,0.2,2,0.7c0.5,0.5,0.8,1,0.8,1.7l0,0h-1.2
							c0-0.4-0.1-0.7-0.4-1c-0.3-0.2-0.6-0.4-1.1-0.4c-0.5,0-0.8,0.1-1.1,0.3c-0.3,0.2-0.4,0.5-0.4,0.8c0,0.3,0.1,0.6,0.4,0.8
							c0.3,0.2,0.7,0.4,1.4,0.6c0.9,0.2,1.5,0.5,1.9,0.9c0.4,0.4,0.6,0.9,0.6,1.5s-0.3,1.1-0.8,1.5c-0.5,0.4-1.2,0.6-2,0.6
							c-0.4,0-0.8-0.1-1.2-0.2c-0.4-0.1-0.7-0.3-1-0.5c-0.3-0.2-0.5-0.5-0.7-0.8c-0.2-0.3-0.2-0.6-0.2-1l0,0h1.3
							c0,0.5,0.2,0.8,0.5,1c0.3,0.2,0.7,0.4,1.3,0.4l0,0C17.1,15.5,17.5,15.4,17.7,15.2z"/>
					</g>
				</g>
			</g>
			<g>
				<path d="M22.5,5.6c0.6,0,1.1,0.5,1.1,1.1v11.3c0,0.6-0.5,1.1-1.1,1.1H10.7h-0.4L10,19.5l-2.6,2v-1.1v-1.2H6.3H4.5
					c-0.6,0-1.1-0.5-1.1-1.1V6.7c0-0.6,0.5-1.1,1.1-1.1H22.5 M22.5,4.4H4.5c-1.3,0-2.3,1-2.3,2.3v11.3c0,1.3,1,2.3,2.3,2.3h1.8v3.5
					l4.5-3.5h11.8c1.3,0,2.3-1,2.3-2.3V6.7C24.9,5.5,23.8,4.4,22.5,4.4L22.5,4.4z"/>
			</g>
		</g>
		<rect fill="none" width="27" height="27"/>
	</g>
</g>
<g id="ingles">
</g>
<g id="buscar">
</g>
<g id="filtrar">
</g>
<g id="facebook">
</g>
<g id="twitter">
</g>
<g id="pinterest">
</g>
<g id="pin_it">
</g>
<g id="compartir">
</g>
<g id="compartir_2">
</g>
<g id="instagram">
</g>
</svg>
