<?xml version="1.0" encoding="utf-8"?>
<!-- Generator: Adobe Illustrator 20.0.0, SVG Export Plug-In . SVG Version: 6.00 Build 0)  -->
<svg version="1.1" id="Layer_1" xmlns="http://www.w3.org/2000/svg" xmlns:xlink="http://www.w3.org/1999/xlink" x="0px" y="0px"
	 viewBox="0 0 100 100" style="enable-background:new 0 0 100 100;" xml:space="preserve">
<style type="text/css">
	.st0{fill:#231F20;}
</style>
<g>
	<path class="st0" d="M80,8.9H20c-6.1,0-11.1,5-11.1,11.1v60c0,6.1,5,11.1,11.1,11.1h29.6l0.1-29.4H42c-1,0-1.8-0.8-1.8-1.8l0-9.5
		c0-1,0.8-1.8,1.8-1.8h7.6v-9.1c0-10.6,6.5-16.4,15.9-16.4h7.8c1,0,1.8,0.8,1.8,1.8v8c0,1-0.8,1.8-1.8,1.8l-4.8,0
		c-5.1,0-6.1,2.4-6.1,6v7.9h11.3c1.1,0,1.9,0.9,1.8,2l-1.1,9.5c-0.1,0.9-0.9,1.6-1.8,1.6H62.4l-0.1,29.4H80c6.1,0,11.1-5,11.1-11.1
		V20C91.1,13.9,86.1,8.9,80,8.9L80,8.9z M80,8.9"/>
</g>
</svg>
