<?xml version="1.0" encoding="utf-8"?>
<!-- Generator: Adobe Illustrator 20.0.0, SVG Export Plug-In . SVG Version: 6.00 Build 0)  -->
<svg version="1.1" id="Layer_1" xmlns="http://www.w3.org/2000/svg" xmlns:xlink="http://www.w3.org/1999/xlink" x="0px" y="0px"
	 viewBox="0 0 100 100" style="enable-background:new 0 0 100 100;" xml:space="preserve">
<style type="text/css">
	.st0{fill:#231F20;}
</style>
<g>
	<circle class="st0" cx="50" cy="49.8" r="10.6"/>
	<path class="st0" d="M61.2,23.9H38.8c-3.8,0-7.3,1.5-10,4.2s-4.2,6.3-4.2,10v23.8c0,3.8,1.5,7.3,4.2,10c2.7,2.7,6.3,4.2,10,4.2
		h22.3c3.8,0,7.3-1.5,10-4.2c2.7-2.7,4.2-6.3,4.2-10V38.1c0-3.8-1.5-7.3-4.2-10C68.5,25.4,64.9,23.9,61.2,23.9z M50.1,66
		c-9,0-16.2-7.3-16.2-16.2c0-9,7.3-16.2,16.2-16.2s16.2,7.3,16.2,16.2C66.3,58.7,59.1,66,50.1,66z M66.6,37.1
		c-2.1,0-3.8-1.7-3.8-3.8s1.7-3.8,3.8-3.8s3.8,1.7,3.8,3.8S68.7,37.1,66.6,37.1z"/>
	<path class="st0" d="M73.3,8.9H26.7c-9.9,0-17.9,8.1-17.9,18v46.2c0,9.9,8,18,17.9,18h46.5c9.9,0,17.9-8.1,17.9-18V26.9
		C91.2,17,83.1,8.9,73.3,8.9z M79.8,61.9c0,10.3-8.4,18.6-18.6,18.6H38.8c-10.3,0-18.6-8.4-18.6-18.6V38.1
		c0-10.3,8.4-18.6,18.6-18.6h22.3c10.3,0,18.6,8.4,18.6,18.6V61.9z"/>
</g>
</svg>
