<?xml version="1.0" encoding="utf-8"?>
<!-- Generator: Adobe Illustrator 16.0.0, SVG Export Plug-In . SVG Version: 6.00 Build 0)  -->
<!DOCTYPE svg PUBLIC "-//W3C//DTD SVG 1.1//EN" "http://www.w3.org/Graphics/SVG/1.1/DTD/svg11.dtd">
<svg version="1.1" id="Capa_1" xmlns="http://www.w3.org/2000/svg" xmlns:xlink="http://www.w3.org/1999/xlink" x="0px" y="0px"
	 width="101px" height="28px" viewBox="0 0 101 28" enable-background="new 0 0 101 28" xml:space="preserve">
<g>
	<g>
		<path d="M14.588,6.515h1.419v6.501h3.169v1.397h-4.588V6.515z"/>
		<path d="M25.699,6.515l2.333,7.898h-1.529l-0.418-1.474h-2.585l-0.407,1.474h-1.53l2.333-7.898H25.699z M23.874,11.542h1.826
			L24.775,8.34L23.874,11.542z"/>
		<path d="M33.256,11.389v3.024h-1.551V11.41l-2.333-4.896h1.595l1.518,3.3l1.518-3.3h1.573L33.256,11.389z"/>
		<path d="M47.677,6.515h1.42v6.501h3.167v1.397h-4.587V6.515z"/>
		<path d="M58.907,6.515l2.332,7.898H59.71l-0.418-1.474h-2.585l-0.408,1.474h-1.528l2.332-7.898H58.907z M57.081,11.542h1.826
			L57.982,8.34L57.081,11.542z"/>
		<path d="M65.372,9.198v5.215h-1.408V6.515h1.629l2.541,4.983V6.515h1.408v7.898h-1.519L65.372,9.198z"/>
		<path d="M72.509,14.413V6.515h2.288c0.535,0,1.03,0.099,1.485,0.297s0.846,0.472,1.171,0.819c0.326,0.349,0.581,0.763,0.765,1.244
			c0.184,0.479,0.275,0.999,0.275,1.556c0,0.624-0.095,1.181-0.286,1.673c-0.191,0.491-0.453,0.907-0.786,1.248
			c-0.334,0.342-0.731,0.604-1.194,0.787c-0.462,0.183-0.965,0.274-1.507,0.274H72.509z M73.928,7.911v5.083h0.616
			c0.388,0,0.738-0.063,1.05-0.192c0.312-0.128,0.576-0.306,0.792-0.533c0.218-0.228,0.384-0.497,0.501-0.81
			c0.117-0.312,0.176-0.65,0.176-1.017c0-0.374-0.059-0.718-0.176-1.029s-0.283-0.578-0.501-0.798
			c-0.216-0.22-0.48-0.392-0.792-0.517s-0.662-0.188-1.05-0.188H73.928z"/>
		<path d="M84.08,6.515l2.332,7.898h-1.529l-0.417-1.474h-2.585l-0.408,1.474h-1.529l2.333-7.898H84.08z M82.254,11.542h1.826
			L83.156,8.34L82.254,11.542z"/>
		<path d="M41.223,6.515c-2.17,0-3.936,1.766-3.936,3.936s1.766,3.936,3.936,3.936s3.936-1.766,3.936-3.936
			S43.393,6.515,41.223,6.515z M41.223,12.958c-1.382,0-2.507-1.125-2.507-2.508c0-1.382,1.125-2.508,2.507-2.508
			c1.383,0,2.508,1.126,2.508,2.508C43.73,11.833,42.605,12.958,41.223,12.958z"/>
	</g>
	<g>
		<path d="M40.242,20.261c-0.203,0.246-0.469,0.426-0.766,0.426c-0.68,0-0.606-0.82-0.497-1.336c0.11-0.52,0.388-1.342,1.067-1.342
			c0.298,0,0.462,0.172,0.548,0.422l-0.25,0.135c-0.051-0.164-0.153-0.309-0.352-0.309c-0.478,0-0.666,0.75-0.74,1.094
			c-0.07,0.34-0.203,1.092,0.274,1.092c0.203,0,0.402-0.168,0.532-0.33L40.242,20.261z"/>
		<path d="M42.287,19.347c-0.07,0.328-0.273,1.34-1.009,1.34c-0.743,0-0.508-1.004-0.438-1.34c0.09-0.43,0.313-1.338,1.009-1.338
			C42.584,18.009,42.361,19.003,42.287,19.347z M41.114,19.347c-0.148,0.705-0.152,1.096,0.216,1.096
			c0.453,0,0.586-0.643,0.684-1.096c0.104-0.492,0.242-1.09-0.219-1.09S41.196,18.964,41.114,19.347z"/>
		<path d="M43.018,18.046h0.329l0.309,2.191l0.008-0.008l0.113-0.582l0.341-1.602h0.261l-0.554,2.607h-0.329l-0.31-2.199
			l-0.008,0.008l-0.112,0.592l-0.341,1.6h-0.262L43.018,18.046z"/>
		<path d="M45.813,20.261c-0.203,0.246-0.47,0.426-0.767,0.426c-0.681,0-0.606-0.82-0.496-1.336c0.109-0.52,0.387-1.342,1.067-1.342
			c0.297,0,0.461,0.172,0.547,0.422l-0.25,0.135c-0.051-0.164-0.152-0.309-0.352-0.309c-0.478,0-0.665,0.75-0.739,1.094
			c-0.07,0.34-0.203,1.092,0.273,1.092c0.203,0,0.402-0.168,0.532-0.33L45.813,20.261z"/>
		<path d="M46.853,18.046h1.271l-0.051,0.234h-1.008l-0.184,0.859h0.832l-0.047,0.234h-0.832l-0.223,1.043h1.008l-0.051,0.236
			h-1.271L46.853,18.046z"/>
		<path d="M48.437,20.653h-0.262l0.555-2.607h0.567c0.461,0,0.664,0.244,0.57,0.691c-0.102,0.484-0.434,0.754-0.794,0.754h-0.391
			L48.437,20.653z M48.733,19.257l0.367-0.004c0.242-0.004,0.423-0.188,0.493-0.516c0.07-0.32-0.07-0.457-0.352-0.457h-0.301
			L48.733,19.257z"/>
		<path d="M50.95,18.28h-0.563l0.052-0.234h1.375l-0.051,0.234h-0.551l-0.504,2.373h-0.262L50.95,18.28z"/>
		<path d="M54.469,19.358c-0.263-0.176-0.435-0.301-0.353-0.684c0.074-0.352,0.376-0.666,0.747-0.666
			c0.367,0,0.488,0.264,0.488,0.592l-0.266,0.039c0-0.193-0.055-0.383-0.277-0.383c-0.246,0-0.383,0.197-0.43,0.418
			c-0.044,0.211-0.02,0.277,0.34,0.523c0.277,0.191,0.465,0.352,0.379,0.756c-0.086,0.41-0.375,0.732-0.813,0.732
			c-0.461,0-0.563-0.305-0.517-0.717l0.27-0.037c-0.027,0.291-0.012,0.51,0.305,0.51c0.228,0,0.423-0.152,0.488-0.465
			C54.902,19.632,54.707,19.515,54.469,19.358z"/>
		<path d="M56.521,18.28h-0.563l0.052-0.234h1.376l-0.051,0.234h-0.552l-0.504,2.373h-0.262L56.521,18.28z"/>
		<path d="M58.999,19.347c-0.07,0.328-0.273,1.34-1.009,1.34c-0.742,0-0.508-1.004-0.438-1.34c0.09-0.43,0.313-1.338,1.009-1.338
			C59.296,18.009,59.073,19.003,58.999,19.347z M57.826,19.347c-0.148,0.705-0.152,1.096,0.216,1.096
			c0.453,0,0.586-0.643,0.684-1.096c0.105-0.492,0.242-1.09-0.219-1.09S57.908,18.964,57.826,19.347z"/>
		<path d="M59.871,18.046h0.703c0.258,0,0.536,0.223,0.434,0.691c-0.065,0.32-0.261,0.625-0.605,0.734l0.301,1.117l-0.257,0.115
			l-0.329-1.213h-0.293l-0.247,1.162h-0.261L59.871,18.046z M59.875,19.257h0.383c0.23,0,0.403-0.168,0.478-0.52
			c0.073-0.342-0.066-0.457-0.333-0.457h-0.32L59.875,19.257z"/>
		<path d="M61.708,18.046h1.271l-0.051,0.234H61.92l-0.185,0.859h0.833l-0.047,0.234h-0.833l-0.223,1.043h1.009l-0.052,0.236h-1.271
			L61.708,18.046z"/>
	</g>
	<polygon points="49.713,21.485 47.565,21.485 47.61,21.233 49.764,21.233 	"/>
</g>
<g>
</g>
<g>
</g>
<g>
</g>
<g>
</g>
<g>
</g>
<g>
</g>
</svg>
