<?xml version="1.0" encoding="utf-8"?>
<!-- Generator: Adobe Illustrator 16.0.0, SVG Export Plug-In . SVG Version: 6.00 Build 0)  -->
<!DOCTYPE svg PUBLIC "-//W3C//DTD SVG 1.1//EN" "http://www.w3.org/Graphics/SVG/1.1/DTD/svg11.dtd">
<svg version="1.1" id="Capa_1" xmlns="http://www.w3.org/2000/svg" xmlns:xlink="http://www.w3.org/1999/xlink" x="0px" y="0px"
	 width="300px" height="88px" viewBox="0 0 300 88" enable-background="new 0 0 300 88" xml:space="preserve">
<g>
	<g>
		<path d="M32.962,20.527h4.657v21.336h10.398v4.586H32.962V20.527z"/>
		<path d="M69.426,20.527l7.654,25.922h-5.019l-1.372-4.838h-8.484l-1.335,4.838h-5.019l7.654-25.922H69.426z M63.433,37.025h5.993
			L66.393,26.52L63.433,37.025z"/>
		<path d="M94.223,36.52v9.93h-5.09v-9.857l-7.654-16.064h5.235l4.982,10.83l4.982-10.83h5.163L94.223,36.52z"/>
		<path d="M141.548,20.527h4.657v21.336h10.396v4.586h-15.054V20.527z"/>
		<path d="M178.4,20.527l7.654,25.922h-5.018l-1.371-4.838h-8.486l-1.336,4.838h-5.018l7.654-25.922H178.4z M172.408,37.025h5.992
			l-3.031-10.506L172.408,37.025z"/>
		<path d="M199.617,29.336v17.113h-4.621V20.527h5.344l8.34,16.354V20.527h4.621v25.922h-4.982L199.617,29.336z"/>
		<path d="M223.035,46.449V20.527h7.51c1.758,0,3.381,0.324,4.875,0.975c1.492,0.648,2.773,1.547,3.844,2.689s1.908,2.504,2.51,4.08
			s0.902,3.279,0.902,5.107c0,2.047-0.313,3.875-0.939,5.488c-0.625,1.613-1.486,2.979-2.58,4.098
			c-1.096,1.119-2.4,1.98-3.918,2.582c-1.516,0.602-3.164,0.902-4.945,0.902H223.035z M227.693,25.111v16.68h2.021
			c1.275,0,2.424-0.211,3.447-0.631c1.023-0.422,1.891-1.006,2.6-1.752c0.711-0.746,1.258-1.629,1.643-2.654
			c0.385-1.021,0.578-2.135,0.578-3.338c0-1.229-0.193-2.354-0.578-3.377c-0.385-1.021-0.932-1.895-1.643-2.617
			c-0.709-0.721-1.576-1.287-2.6-1.695c-1.023-0.41-2.172-0.615-3.447-0.615H227.693z"/>
		<path d="M261.012,20.527l7.652,25.922h-5.018l-1.371-4.838h-8.484l-1.336,4.838h-5.02l7.654-25.922H261.012z M255.018,37.025
			h5.994l-3.033-10.506L255.018,37.025z"/>
		<path d="M120.368,20.527c-7.122,0-12.917,5.795-12.917,12.916s5.794,12.916,12.917,12.916s12.916-5.795,12.916-12.916
			S127.49,20.527,120.368,20.527z M120.368,41.672c-4.538,0-8.229-3.691-8.229-8.229s3.691-8.229,8.229-8.229
			s8.229,3.691,8.229,8.229S124.905,41.672,120.368,41.672z"/>
	</g>
	<g>
		<path d="M117.151,65.641c-0.667,0.809-1.539,1.398-2.514,1.398c-2.232,0-1.988-2.693-1.629-4.387c0.359-1.705,1.27-4.4,3.502-4.4
			c0.975,0,1.514,0.564,1.796,1.387l-0.821,0.436c-0.167-0.539-0.5-1.014-1.155-1.014c-1.565,0-2.181,2.463-2.424,3.592
			c-0.231,1.117-0.667,3.58,0.898,3.58c0.667,0,1.321-0.553,1.745-1.078L117.151,65.641z"/>
		<path d="M123.86,62.641c-0.231,1.076-0.898,4.398-3.31,4.398c-2.437,0-1.667-3.297-1.437-4.398
			c0.295-1.412,1.026-4.389,3.31-4.389C124.835,58.252,124.104,61.512,123.86,62.641z M120.012,62.641
			c-0.488,2.309-0.5,3.592,0.706,3.592c1.488,0,1.924-2.105,2.245-3.592c0.346-1.617,0.795-3.58-0.718-3.58
			S120.282,61.383,120.012,62.641z"/>
		<path d="M126.26,58.367h1.078l1.013,7.197l0.026-0.025l0.372-1.912l1.116-5.26h0.859l-1.821,8.557h-1.078l-1.014-7.209
			l-0.025,0.025l-0.372,1.938l-1.116,5.246h-0.859L126.26,58.367z"/>
		<path d="M135.432,65.641c-0.667,0.809-1.54,1.398-2.515,1.398c-2.232,0-1.988-2.693-1.629-4.387c0.359-1.705,1.27-4.4,3.502-4.4
			c0.975,0,1.514,0.564,1.796,1.387l-0.821,0.436c-0.167-0.539-0.5-1.014-1.155-1.014c-1.565,0-2.181,2.463-2.424,3.592
			c-0.231,1.117-0.667,3.58,0.898,3.58c0.667,0,1.321-0.553,1.745-1.078L135.432,65.641z"/>
		<path d="M138.845,58.367h4.169l-0.167,0.771h-3.31l-0.603,2.82h2.732l-0.154,0.77h-2.732l-0.731,3.426h3.31l-0.167,0.77h-4.169
			L138.845,58.367z"/>
		<path d="M144.041,66.924h-0.86l1.822-8.557h1.86c1.514,0,2.181,0.809,1.873,2.271c-0.333,1.59-1.424,2.477-2.604,2.477h-1.283
			L144.041,66.924z M145.015,62.346l1.206-0.014c0.795-0.014,1.385-0.615,1.616-1.693c0.231-1.053-0.231-1.5-1.154-1.5h-0.988
			L145.015,62.346z"/>
		<path d="M152.289,59.139h-1.847l0.167-0.771h4.517l-0.168,0.771h-1.809l-1.654,7.785h-0.86L152.289,59.139z"/>
		<path d="M163.836,62.678c-0.861-0.576-1.426-0.986-1.156-2.244c0.244-1.154,1.232-2.182,2.451-2.182
			c1.205,0,1.604,0.859,1.604,1.938l-0.873,0.129c0-0.629-0.18-1.258-0.91-1.258c-0.809,0-1.258,0.654-1.41,1.373
			c-0.143,0.691-0.064,0.91,1.115,1.719c0.91,0.629,1.525,1.154,1.244,2.477c-0.283,1.346-1.232,2.41-2.668,2.41
			c-1.514,0-1.848-1-1.693-2.359l0.885-0.115c-0.09,0.949-0.039,1.668,1,1.668c0.744,0,1.387-0.502,1.604-1.527
			C165.26,63.576,164.617,63.191,163.836,62.678z"/>
		<path d="M170.57,59.139h-1.848l0.168-0.771h4.516l-0.168,0.771h-1.809l-1.654,7.785h-0.859L170.57,59.139z"/>
		<path d="M178.703,62.641c-0.23,1.076-0.898,4.398-3.309,4.398c-2.438,0-1.668-3.297-1.438-4.398
			c0.295-1.412,1.025-4.389,3.309-4.389C179.678,58.252,178.947,61.512,178.703,62.641z M174.855,62.641
			c-0.488,2.309-0.502,3.592,0.705,3.592c1.488,0,1.924-2.105,2.244-3.592c0.348-1.617,0.797-3.58-0.717-3.58
			S175.125,61.383,174.855,62.641z"/>
		<path d="M181.564,58.367h2.309c0.848,0,1.758,0.732,1.424,2.271c-0.217,1.053-0.859,2.053-1.988,2.412l0.988,3.668l-0.846,0.373
			l-1.078-3.977h-0.963l-0.809,3.809h-0.859L181.564,58.367z M181.578,62.346h1.256c0.758,0,1.322-0.553,1.566-1.707
			c0.242-1.117-0.219-1.5-1.092-1.5h-1.051L181.578,62.346z"/>
		<path d="M187.594,58.367h4.17l-0.168,0.771h-3.309l-0.604,2.82h2.732l-0.154,0.77h-2.732l-0.73,3.426h3.309l-0.166,0.77h-4.17
			L187.594,58.367z"/>
	</g>
	<polygon points="148.23,69.654 141.182,69.654 141.328,68.832 148.396,68.832 	"/>
</g>
<g>
</g>
<g>
</g>
<g>
</g>
<g>
</g>
<g>
</g>
<g>
</g>
</svg>
