<?xml version="1.0" encoding="utf-8"?>
<!-- Generator: Adobe Illustrator 20.1.0, SVG Export Plug-In . SVG Version: 6.00 Build 0)  -->
<svg version="1.1" xmlns="http://www.w3.org/2000/svg" xmlns:xlink="http://www.w3.org/1999/xlink" x="0px" y="0px" width="27px"
	 height="27px" viewBox="0 0 27 27" enable-background="new 0 0 27 27" xml:space="preserve">
<g id="Capa_1">
</g>
<g id="iniciar_sesion">
</g>
<g id="compras">
</g>
<g id="Capa_2">
</g>
<g id="español">
</g>
<g id="ingles">
</g>
<g id="buscar">
	<g>
		<path d="M16.5,2c-4.7,0-8.5,3.8-8.5,8.5c0,2.1,0.8,4.1,2.1,5.5l-8,8L3,25l8-8c1.5,1.3,3.4,2.1,5.5,2.1c4.7,0,8.5-3.8,8.5-8.5
			C25,5.8,21.2,2,16.5,2z M16.5,17.8c-4,0-7.2-3.2-7.2-7.2c0-4,3.2-7.2,7.2-7.2s7.2,3.2,7.2,7.2C23.7,14.5,20.4,17.8,16.5,17.8z"/>
		<rect fill="none" width="27" height="27"/>
	</g>
</g>
<g id="filtrar">
</g>
<g id="facebook">
</g>
<g id="twitter">
</g>
<g id="pinterest">
</g>
<g id="pin_it">
</g>
<g id="compartir">
</g>
<g id="compartir_2">
</g>
<g id="instagram">
</g>
</svg>
