<?xml version="1.0" encoding="utf-8"?>
<!-- Generator: Adobe Illustrator 20.0.0, SVG Export Plug-In . SVG Version: 6.00 Build 0)  -->
<svg version="1.1" id="Layer_1" xmlns="http://www.w3.org/2000/svg" xmlns:xlink="http://www.w3.org/1999/xlink" x="0px" y="0px"
	 viewBox="0 0 100 100" style="enable-background:new 0 0 100 100;" xml:space="preserve">
<style type="text/css">
	.st0{fill:#231F20;}
</style>
<g>
	<path class="st0" d="M50,8.1C26.9,8.1,8.1,26.9,8.1,50c0,17.1,10.3,31.9,25.1,38.3c-0.1-2.9,0-6.4,0.7-9.6
		c0.8-3.4,5.4-22.8,5.4-22.8S38,53.2,38,49.3c0-6.2,3.6-10.8,8.1-10.8c3.8,0,5.6,2.9,5.6,6.3c0,3.8-2.4,9.6-3.7,14.9
		c-1,4.4,2.2,8.1,6.6,8.1c7.9,0,13.3-10.2,13.3-22.3c0-9.2-6.2-16-17.4-16c-12.7,0-20.6,9.5-20.6,20.1c0,3.6,1.1,6.2,2.8,8.2
		c0.8,0.9,0.9,1.3,0.6,2.3c-0.2,0.8-0.7,2.6-0.9,3.4c-0.3,1.1-1.1,1.4-2.1,1c-5.8-2.4-8.6-8.8-8.6-16c0-11.9,10-26.2,29.9-26.2
		c16,0,26.5,11.6,26.5,24c0,16.4-9.1,28.7-22.6,28.7c-4.5,0-8.8-2.4-10.2-5.2c0,0-2.4,9.6-2.9,11.5c-0.9,3.2-2.6,6.5-4.2,9
		c3.8,1.1,7.7,1.7,11.9,1.7c23.1,0,41.9-18.7,41.9-41.9C91.9,26.9,73.1,8.1,50,8.1z"/>
</g>
</svg>
